/* XPM */
static char * collectible_xpm[] = {
"31 31 88 1",
" 	c #C6A8D1",
".	c #C3ACD3",
"+	c #E9B9EE",
"@	c #FFC1FF",
"#	c #C6ADD5",
"$	c #FDC0FD",
"%	c #D2B1DE",
"&	c #C7ADD6",
"*	c #DFB5E7",
"=	c #F3BCF6",
"-	c #BFA8CF",
";	c #E5B7EB",
">	c #CDAFDA",
",	c #D3B1DF",
"'	c #DEB5E6",
")	c #D0B0DC",
"!	c #E1B6E9",
"~	c #C4ACD4",
"{	c #DDB5E5",
"]	c #C9AED7",
"^	c #F8BEFA",
"/	c #D3B1DE",
"(	c #EFBBF3",
"_	c #F1BCF4",
":	c #CEB0DB",
"<	c #D9B3E2",
"[	c #D8B3E2",
"}	c #E7B8ED",
"|	c #C8ADD6",
"1	c #C5ADD4",
"2	c #DAB4E3",
"3	c #CCAFD9",
"4	c #B6A9DA",
"5	c #C4AEE2",
"6	c #D6B2E0",
"7	c #CBAFD9",
"8	c #00A5FF",
"9	c #DAB5FE",
"0	c #CFB0E9",
"a	c #A8A6E1",
"b	c #E5B8EC",
"c	c #F3F9FE",
"d	c #EAF4FD",
"e	c #ADB3F1",
"f	c #DCEDFD",
"g	c #A8A7E1",
"h	c #CFE8FC",
"i	c #C3E2FB",
"j	c #A7D7FB",
"k	c #B6DCFB",
"l	c #8BCCFC",
"m	c #D5B2DF",
"n	c #EAB9EF",
"o	c #CFB0DB",
"p	c #9AD1FC",
"q	c #6AC3FD",
"r	c #34B9FF",
"s	c #EEBBF2",
"t	c #E2B6E9",
"u	c #00B5FF",
"v	c #D9B5FD",
"w	c #E4B7EA",
"x	c #ABA7E3",
"y	c #CEAFDB",
"z	c #D4B2DF",
"A	c #DBB4E4",
"B	c #CAAED8",
"C	c #7BC8FC",
"D	c #00B0FF",
"E	c #CFB0DC",
"F	c #D7B3E1",
"G	c #D6B2E1",
"H	c #E8B8EE",
"I	c #FDC0FE",
"J	c #E8B8ED",
"K	c #C7ADD5",
"L	c #FBC0FC",
"M	c #D2B1DD",
"N	c #C5ADD5",
"O	c #EBBAF0",
"P	c #D5B2E0",
"Q	c #E3B7EA",
"R	c #D1B1DD",
"S	c #EDBAF1",
"T	c #D7B2E1",
"U	c #E5B7EC",
"V	c #C5ACD4",
"W	c #C4ACD3",
" ...+@+...#$@%.......&$@%...*@=",
"-;>.,',...#$@%....)!.~{']...*@=",
"-^/.......#(_:....<=........[_}",
"-^/........||~....<=........1|&",
"-2]...............3[...........",
"-..............................",
"-..............................",
"-..............................",
"-..........44567.444..........|",
"-.........488890a8884.........%",
"-b>......48ccd8e8ccf8g......../",
"-^/.....48ddfff8ddfhh84......./",
"-^/.....8ffhiihhhiiiij8......./",
"-^/.....8iikkkkiikkkjl8.....m*]",
"-n:.o>..8lpjkkkkkkjpqr8#....*s.",
"-#~.}t..g8qljkkkkjpqu8v3....*s.",
"-...+w...a8qljkkjpqu8x$3....yz.",
"-...*A....a8qljjpqu8a#sB.......",
"-...1~.....a8qClqu8a..#........",
"-...........a8rrD8a............",
"-...EFE......a8D8a...~GF|......",
"-...HIJ.......a8a....KLIM......",
"-...+@+...NnO>.4.....&$@%...POQ",
"-...+@+...#$@%.......&$@%...*@=",
"-...+@+...#$@%.......&$@%...*@=",
" }>.MAM...#$@%....RQ.~2A]...*@=",
" ^/.......NS(y....<=........T(U",
" ^/........V1.....<=........W1~",
" []...............76...........",
"-..............................",
"-.............................."};
