/* XPM */
static char * ground_xpm[] = {
"31 31 72 1",
" 	c #C6A8D1",
".	c #C3ACD3",
"+	c #E9B9EE",
"@	c #FFC1FF",
"#	c #C6ADD5",
"$	c #FDC0FD",
"%	c #D2B1DE",
"&	c #C7ADD6",
"*	c #DFB5E7",
"=	c #F3BCF6",
"-	c #BFA8CF",
";	c #E5B7EB",
">	c #CDAFDA",
",	c #D3B1DF",
"'	c #DEB5E6",
")	c #D0B0DC",
"!	c #E1B6E9",
"~	c #C4ACD4",
"{	c #DDB5E5",
"]	c #C9AED7",
"^	c #F8BEFA",
"/	c #D3B1DE",
"(	c #EFBBF3",
"_	c #F1BCF4",
":	c #CEB0DB",
"<	c #D9B3E2",
"[	c #D8B3E2",
"}	c #E7B8ED",
"|	c #C8ADD6",
"1	c #C5ADD4",
"2	c #DAB4E3",
"3	c #CCAFD9",
"4	c #D2B1DD",
"5	c #D6B2E0",
"6	c #CBAFD9",
"7	c #FCC0FD",
"8	c #DDB4E5",
"9	c #E5B8EC",
"0	c #F3BDF6",
"a	c #D1B0DD",
"b	c #E2B6E9",
"c	c #D7B3E1",
"d	c #DCB4E5",
"e	c #CEAFDB",
"f	c #D5B2DF",
"g	c #EAB9EF",
"h	c #CFB0DB",
"i	c #CCAFDA",
"j	c #E6B8EC",
"k	c #EEBBF2",
"l	c #C5ADD5",
"m	c #FBBFFC",
"n	c #E4B7EA",
"o	c #DBB4E4",
"p	c #C7ADD5",
"q	c #D4B2DF",
"r	c #CAAED8",
"s	c #CFB0DC",
"t	c #D6B2E1",
"u	c #E8B8EE",
"v	c #FDC0FE",
"w	c #E8B8ED",
"x	c #FBC0FC",
"y	c #EBBAF0",
"z	c #D5B2E0",
"A	c #E3B7EA",
"B	c #D1B1DD",
"C	c #EDBAF1",
"D	c #D7B2E1",
"E	c #E5B7EC",
"F	c #C5ACD4",
"G	c #C4ACD3",
" ...+@+...#$@%.......&$@%...*@=",
"-;>.,',...#$@%....)!.~{']...*@=",
"-^/.......#(_:....<=........[_}",
"-^/........||~....<=........1|&",
"-2]...............3[...........",
"-..............................",
"-..............................",
"-..............................",
"-............456..............|",
"-............_78..............%",
"-9>..........0@'..ab........../",
"-^/..........0@'..<=........../",
"-^/..........0@'..<=........../",
"-^/.......1+]cde..<=........f*]",
"-g:.h>....#$i...../j.~5#....*k.",
"-#~.}b....#$i.....~l.#m3....*k.",
"-...+n....~op........&$3....eq.",
"-...*o...............#kr.......",
"-...1~................#........",
"-..............................",
"-...scs..............~tc|......",
"-...uvw..............pxv4......",
"-...+@+...lgy>.......&$@%...zyA",
"-...+@+...#$@%.......&$@%...*@=",
"-...+@+...#$@%.......&$@%...*@=",
" }>.4o4...#$@%....BA.~2o]...*@=",
" ^/.......lC(e....<=........D(E",
" ^/........F1.....<=........G1~",
" []...............65...........",
"-..............................",
"-.............................."};
