/* XPM */
static char * portal_xpm[] = {
"31 31 436 2",
"  	c #C6A8D1",
". 	c #C3ACD3",
"+ 	c #E9B9EE",
"@ 	c #FFC1FF",
"# 	c #C6ADD5",
"$ 	c #FDC0FD",
"% 	c #D2B1DE",
"& 	c #C7ADD6",
"* 	c #DFB5E7",
"= 	c #F3BCF6",
"- 	c #BFA8CF",
"; 	c #E5B7EB",
"> 	c #CDAFDA",
", 	c #D3B1DF",
"' 	c #DEB5E6",
") 	c #D0B0DC",
"! 	c #E1B6E9",
"~ 	c #C4ACD4",
"{ 	c #DDB5E5",
"] 	c #C9AED7",
"^ 	c #F8BEFA",
"/ 	c #D3B1DE",
"( 	c #EFBBF3",
"_ 	c #F1BCF4",
": 	c #CEB0DB",
"< 	c #D9B3E2",
"[ 	c #D8B3E2",
"} 	c #E7B8ED",
"| 	c #C8ADD6",
"1 	c #C5ADD4",
"2 	c #DAB4E3",
"3 	c #82758C",
"4 	c #83758C",
"5 	c #84758D",
"6 	c #84778E",
"7 	c #87798F",
"8 	c #867B92",
"9 	c #8A7D93",
"0 	c #8E7F95",
"a 	c #8F8196",
"b 	c #8F8498",
"c 	c #93889B",
"d 	c #948B9F",
"e 	c #9B8EA5",
"f 	c #A794AC",
"g 	c #9A8FA2",
"h 	c #968C9F",
"i 	c #A298AA",
"j 	c #A49CAC",
"k 	c #ACA0B0",
"l 	c #B0A7B7",
"m 	c #563654",
"n 	c #AB45A2",
"o 	c #B747AB",
"p 	c #A3429B",
"q 	c #873E86",
"r 	c #8E408B",
"s 	c #843F83",
"t 	c #874086",
"u 	c #B74AAB",
"v 	c #A3469A",
"w 	c #8B438A",
"x 	c #934790",
"y 	c #A24A9B",
"z 	c #BF51B3",
"A 	c #AC4BA3",
"B 	c #BD4DB0",
"C 	c #C151B5",
"D 	c #B851AD",
"E 	c #BE55B2",
"F 	c #AF69A6",
"G 	c #5F395C",
"H 	c #C750BE",
"I 	c #C34CB8",
"J 	c #9C4198",
"K 	c #954093",
"L 	c #984095",
"M 	c #833C85",
"N 	c #853C86",
"O 	c #9A3F95",
"P 	c #A2429C",
"Q 	c #A6439F",
"R 	c #AF43A5",
"S 	c #B446AA",
"T 	c #C455C0",
"U 	c #D051C4",
"V 	c #CA4BBC",
"W 	c #C64EBB",
"X 	c #C449B6",
"Y 	c #B244A8",
"Z 	c #AB53A0",
"` 	c #583C57",
" .	c #9C4096",
"..	c #964093",
"+.	c #7C3A7F",
"@.	c #7D397F",
"#.	c #7B397E",
"$.	c #78397C",
"%.	c #7E3A80",
"&.	c #65356C",
"*.	c #7B3A7F",
"=.	c #883C88",
"-.	c #A7429F",
";.	c #AD43A3",
">.	c #BF47B2",
",.	c #CD51C2",
"'.	c #CE5ECC",
").	c #C64AB9",
"!.	c #B946AD",
"~.	c #995593",
"{.	c #573F57",
"].	c #923F90",
"^.	c #863C86",
"/.	c #76387B",
"(.	c #6E3775",
"_.	c #6D3673",
":.	c #6A3570",
"<.	c #5E3366",
"[.	c #5D3466",
"}.	c #893D89",
"|.	c #B845AC",
"1.	c #BB46AF",
"2.	c #CE51C2",
"3.	c #C850BE",
"4.	c #A942A0",
"5.	c #94558F",
"6.	c #5D435C",
"7.	c #8F3E8E",
"8.	c #6F3876",
"9.	c #693670",
"0.	c #65366F",
"a.	c #55335E",
"b.	c #65356D",
"c.	c #78377B",
"d.	c #833B83",
"e.	c #9D4098",
"f.	c #BE48B2",
"g.	c #BD47B0",
"h.	c #BA47AF",
"i.	c #A4429D",
"j.	c #875385",
"k.	c #E5B8EC",
"l.	c #5E485E",
"m.	c #813A82",
"n.	c #723677",
"o.	c #67356F",
"p.	c #54345E",
"q.	c #52345B",
"r.	c #503458",
"s.	c #433649",
"t.	c #48354F",
"u.	c #6B4376",
"v.	c #64356A",
"w.	c #703674",
"x.	c #8E3D8C",
"y.	c #AE44A5",
"z.	c #BC47B0",
"A.	c #B746AC",
"B.	c #823B83",
"C.	c #754F76",
"D.	c #634F63",
"E.	c #6B3672",
"F.	c #5F3467",
"G.	c #46354D",
"H.	c #413748",
"I.	c #403646",
"J.	c #3E3642",
"K.	c #39373B",
"L.	c #3D3640",
"M.	c #89719A",
"N.	c #3D353F",
"O.	c #433646",
"P.	c #57345E",
"Q.	c #7F3A81",
"R.	c #A843A0",
"S.	c #AD45A5",
"T.	c #8B3D8B",
"U.	c #724972",
"V.	c #615362",
"W.	c #5F3468",
"X.	c #633669",
"Y.	c #9070A3",
"Z.	c #5F3E65",
"`.	c #3C373E",
" +	c #38363A",
".+	c #333633",
"++	c #B5B5B5",
"@+	c #343734",
"#+	c #524563",
"$+	c #58345B",
"%+	c #8D3E8C",
"&+	c #9A4196",
"*+	c #724B73",
"=+	c #655966",
"-+	c #62356B",
";+	c #4E3456",
">+	c #906DB8",
",+	c #F0EEFF",
"'+	c #9D64A4",
")+	c #473647",
"!+	c #6C4B7A",
"~+	c #353835",
"{+	c #9EB0C6",
"]+	c #6F5C8D",
"^+	c #605075",
"/+	c #433445",
"(+	c #783A7B",
"_+	c #A1429C",
":+	c #AF45A6",
"<+	c #7C527C",
"[+	c #D5B2DF",
"}+	c #EAB9EF",
"|+	c #CFB0DB",
"1+	c #6C636E",
"2+	c #56335E",
"3+	c #523359",
"4+	c #4F3557",
"5+	c #855498",
"6+	c #4A364E",
"7+	c #675582",
"8+	c #6D73A4",
"9+	c #A98FC2",
"0+	c #DFCAE3",
"a+	c #9B92AE",
"b+	c #685583",
"c+	c #3A363A",
"d+	c #5F3665",
"e+	c #A446A0",
"f+	c #C29DF0",
"g+	c #B79DF9",
"h+	c #905B91",
"i+	c #EEBBF2",
"j+	c #E2B6E9",
"k+	c #726573",
"l+	c #5A3464",
"m+	c #47354D",
"n+	c #643669",
"o+	c #49354D",
"p+	c #3A3538",
"q+	c #A18FB8",
"r+	c #FEFCFF",
"s+	c #FFFFFF",
"t+	c #ECD2F4",
"u+	c #483549",
"v+	c #54355B",
"w+	c #C495D9",
"x+	c #E6E1FF",
"y+	c #C7CFFF",
"z+	c #9A75B4",
"A+	c #E4B7EA",
"B+	c #6E656F",
"C+	c #4B3553",
"D+	c #7C407F",
"E+	c #D485CB",
"F+	c #CD82C9",
"G+	c #9578B9",
"H+	c #919CC7",
"I+	c #C2C3D9",
"J+	c #FBFFFF",
"K+	c #F0E7F7",
"L+	c #968FBF",
"M+	c #915DA4",
"N+	c #7A7578",
"O+	c #534355",
"P+	c #AD4DAA",
"Q+	c #BD94F4",
"R+	c #A98BE1",
"S+	c #7B527C",
"T+	c #CEAFDB",
"U+	c #D4B2DF",
"V+	c #DBB4E4",
"W+	c #6F6370",
"X+	c #4E3555",
"Y+	c #533657",
"Z+	c #B083AE",
"`+	c #C09ADB",
" @	c #E2CEDF",
".@	c #676460",
"+@	c #8E8AB1",
"@@	c #AA84A7",
"#@	c #D9CADD",
"$@	c #9379A1",
"%@	c #675682",
"&@	c #3B363D",
"*@	c #6A376D",
"=@	c #8D3F8D",
"-@	c #715773",
";@	c #766576",
">@	c #66366E",
",@	c #423646",
"'@	c #3E363F",
")@	c #6B5887",
"!@	c #B195CA",
"~@	c #8763A6",
"{@	c #A6B1C1",
"]@	c #753A6F",
"^@	c #553652",
"/@	c #8C3D8A",
"(@	c #B948AF",
"_@	c #C94DBD",
":@	c #A5419E",
"<@	c #6F586F",
"[@	c #706270",
"}@	c #5C3364",
"|@	c #5D3567",
"1@	c #4B3552",
"2@	c #3B373B",
"3@	c #763F75",
"4@	c #4F3A54",
"5@	c #8B8BC1",
"6@	c #523457",
"7@	c #68376F",
"8@	c #AE45A6",
"9@	c #CE60CE",
"0@	c #CB75DF",
"a@	c #C555C0",
"b@	c #7E587D",
"c@	c #CFB0DC",
"d@	c #D7B3E1",
"e@	c #715F70",
"f@	c #55355F",
"g@	c #4C3453",
"h@	c #433547",
"i@	c #3B373F",
"j@	c #3C363C",
"k@	c #3B3638",
"l@	c #8A5DA2",
"m@	c #3F3642",
"n@	c #513458",
"o@	c #7C387E",
"p@	c #BD49B1",
"q@	c #CE68D4",
"r@	c #C87EE6",
"s@	c #C554BF",
"t@	c #825C81",
"u@	c #E8B8EE",
"v@	c #FDC0FE",
"w@	c #7A6879",
"x@	c #67366E",
"y@	c #513457",
"z@	c #3A373C",
"A@	c #3B373E",
"B@	c #45354A",
"C@	c #57345F",
"D@	c #743979",
"E@	c #D34FC4",
"F@	c #D158CA",
"G@	c #835F83",
"H@	c #756574",
"I@	c #54355C",
"J@	c #4C3450",
"K@	c #513559",
"L@	c #53355C",
"M@	c #64356B",
"N@	c #D04FC2",
"O@	c #C148B3",
"P@	c #B044A6",
"Q@	c #91648E",
"R@	c #D5B2E0",
"S@	c #EBBAF0",
"T@	c #E3B7EA",
"U@	c #786678",
"V@	c #7A387C",
"W@	c #6D3775",
"X@	c #69366F",
"Y@	c #6B3671",
"Z@	c #B748AD",
"`@	c #C34EB9",
" #	c #CA6BD5",
".#	c #CE66D3",
"+#	c #B346A9",
"@#	c #966C94",
"##	c #776376",
"$#	c #8C3D8B",
"%#	c #703776",
"&#	c #6F3675",
"*#	c #9E4199",
"=#	c #A5439F",
"-#	c #AE58AE",
";#	c #CA55BC",
">#	c #D15CCC",
",#	c #CA78E1",
"'#	c #D05ECD",
")#	c #B547AC",
"!#	c #8C738C",
"~#	c #D2B1DD",
"{#	c #80657D",
"]#	c #A2409B",
"^#	c #733879",
"/#	c #AB44A3",
"(#	c #C54AB7",
"_#	c #CA4DBD",
":#	c #D14FC3",
"<#	c #CD99EF",
"[#	c #E4DAFF",
"}#	c #E9D1FA",
"|#	c #CB5FCB",
"1#	c #CC52C2",
"2#	c #CF64D2",
"3#	c #CD6ED9",
"4#	c #AA43A2",
"5#	c #8B778B",
"6#	c #82667F",
"7#	c #C048B3",
"8#	c #973F93",
"9#	c #AF5AB7",
"0#	c #DED7FF",
"a#	c #FCFCFF",
"b#	c #DEABE4",
"c#	c #CA57C4",
"d#	c #CB6FD9",
"e#	c #907190",
"f#	c #D7B2E1",
"g#	c #E5B7EC",
"h#	c #AA81AD",
"i#	c #C77BC4",
"j#	c #BE79BD",
"k#	c #B378B5",
"l#	c #A176A9",
"m#	c #92749D",
"n#	c #91759D",
"o#	c #9975A3",
"p#	c #9A75A4",
"q#	c #9B75A4",
"r#	c #A577AC",
"s#	c #BF8CD5",
"t#	c #E1CCF5",
"u#	c #E5C6FC",
"v#	c #C191DC",
"w#	c #AE78B2",
"x#	c #B679B8",
"y#	c #C47AC1",
"z#	c #9A7AA3",
"A#	c #C4ACD3",
"B#	c #CBAFD9",
"C#	c #D6B2E0",
"  . . . + @ + . . . # $ @ % . . . . . . . & $ @ % . . . * @ = ",
"- ; > . , ' , . . . # $ @ % . . . . ) ! . ~ { ' ] . . . * @ = ",
"- ^ / . . . . . . . # ( _ : . . . . < = . . . . . . . . [ _ } ",
"- ^ / . . . . . . . . | | ~ . . . . < = . . . . . . . . 1 | & ",
"- 2 ] . . . 3 4 5 6 7 8 9 0 a b c d e f g h i j k l . . . . . ",
"- . . . . . m n o p q r s t u v w x y z A B C D E F . . . . . ",
"- . . . . . G H I J K L M N O P Q R S T U V W X Y Z . . . . . ",
"- . . . . . `  ...+.@.#.$.+.%.&.*.=.-.;.>.,.'.).!.~.. . . . . ",
"- . . . . . {.].^./.(._.:.:.<.[./.}.Q |.1.2.3.4.Q 5.. . . . | ",
"- . . . . . 6.7.8.9._.0.a.a.a.b.c.d.e.S f.g.h.i.=.j.. . . . % ",
"- k.> . . . l.m.n.o.p.q.q.r.s.t.u.v.w.x.P y.z.A.B.C.. . . . / ",
"- ^ / . . . D.#.E.F.G.H.I.J.K.L.M.N.O.P.Q.e.R.S.T.U.. . . . / ",
"- ^ / . . . V.(.W.X.Y.Z.`. +.+.+++.+@+#+$+%+&+-...*+. . . . / ",
"- ^ / . . . =+-+;+>+,+'+)+!+@+~+{+~+]+^+/+(+_+y.:+<+. . [+* ] ",
"- }+: . |+> 1+2+3+4+5+6+.+7+8+9+0+a+b+~+c+d+e+f+g+h+. . * i+. ",
"- # ~ . } j+k+l+;+m+n+o+p+@+q+r+s+t+u+~+~+v+w+x+y+z+. . * i+. ",
"- . . . + A+B+a.C+D+E+F+G+H+I+J+s+K+L+M+N+O+P+Q+R+S+. . T+U+. ",
"- . . . * V+W+l+X+Y+Z+`+ @.@+@@@#@$@%@~+&@*@!.!.=@-@. . . . . ",
"- . . . 1 ~ ;@>@C+,@'@)@!@~@~+~+{@~+]@^@X+/@(@_@:@<@. . . . . ",
"- . . . . . [@}@|@1@,@2@3@4@~+~+5@~+&@6@7@8@9@0@a@b@. . . . . ",
"- . . . c@d@e@W.f@g@h@i@j@k@~+~+l@K.m@n@o@p@q@r@s@t@. . . . . ",
"- . . . u@v@w@x@q.n@y@g@H.z@~+k@A@B@C@D@T.h.E@F@R G@. . . . . ",
"- . . . + @ H@(.E.(.@.:.I@B@J@K@L@M@^.-.P _@N@O@P@Q@. . R@S@T@",
"- . . . + @ U@Q.V@W@Q.%._.X@Y@%.}.B.Z@).`@ #.#).+#@#. . * @ = ",
"- . . . + @ ##N $#%#&#Q.x.L *#R.+#=#-#;#>#,#q@'#)#!#. . * @ = ",
"  } > . ~#V+{#;.]#x.Q.^#=./#(#_#:#<#[#}#|#1#2#3#4#5#. . * @ = ",
"  ^ / . . . 6#z.7#;.}.-+v.Q.8#R.9#0#s+a#b#R.c#d#8#e#. . f#( g#",
"  ^ / . . . h#i#j#k#l#m#n#o#p#q#r#s#t#u#v#w#x#y#q#z#. . A#1 ~ ",
"  [ ] . . . . . . . . . . . . . . . B#C#. . . . . . . . . . . ",
"- . . . . . . . . . . . . . . . . . . . . . . . . . . . . . . ",
"- . . . . . . . . . . . . . . . . . . . . . . . . . . . . . . "};
