/* XPM */
static char * doorplusground_xpm[] = {
"31 31 467 2",
"  	c #C3ACD3",
". 	c #E9B9EE",
"+ 	c #FFC1FF",
"@ 	c #C6ADD5",
"# 	c #FDC0FD",
"$ 	c #D2B1DE",
"% 	c #C7ADD6",
"& 	c #DFB5E7",
"* 	c #F3BCF6",
"= 	c #E5B7EB",
"- 	c #CDAFDA",
"; 	c #D3B1DF",
"> 	c #DEB5E6",
", 	c #D0B0DC",
"' 	c #E1B6E9",
") 	c #C4ACD4",
"! 	c #DDB5E5",
"~ 	c #C9AED7",
"{ 	c #F8BEFA",
"] 	c #D3B1DE",
"^ 	c #EFBBF3",
"/ 	c #F1BCF4",
"( 	c #CEB0DB",
"_ 	c #D9B3E2",
": 	c #D8B3E2",
"< 	c #E7B8ED",
"[ 	c #C9BAD5",
"} 	c #C4BACE",
"| 	c #C5BBCE",
"1 	c #BFB5CA",
"2 	c #C1B6CB",
"3 	c #BDB2C7",
"4 	c #BAADC4",
"5 	c #BAAEC4",
"6 	c #B4AAC1",
"7 	c #B7ADC3",
"8 	c #B0A6BE",
"9 	c #B3AAC0",
"0 	c #AEA6BF",
"a 	c #BDACCA",
"b 	c #CDB3D9",
"c 	c #B0A9C2",
"d 	c #ABA5BF",
"e 	c #ADA8C2",
"f 	c #A69FBA",
"g 	c #AAA6C1",
"h 	c #B8A4C7",
"i 	c #C5ADD4",
"j 	c #C8ADD6",
"k 	c #DAB4E3",
"l 	c #BDB5C8",
"m 	c #A3A8AC",
"n 	c #B0B4B7",
"o 	c #AAAEB2",
"p 	c #A4A8AC",
"q 	c #A2A6A9",
"r 	c #8C959C",
"s 	c #9DA3A8",
"t 	c #99A0A6",
"u 	c #8B969F",
"v 	c #9CA3A9",
"w 	c #8394A2",
"x 	c #9AA7B1",
"y 	c #99B2C2",
"z 	c #9BABB6",
"A 	c #9CAEBA",
"B 	c #9DB4C4",
"C 	c #A1B8C9",
"D 	c #93AABB",
"E 	c #7892A5",
"F 	c #AC9CBA",
"G 	c #B9B1C5",
"H 	c #7E8992",
"I 	c #A6A8A9",
"J 	c #7D8083",
"K 	c #888A8B",
"L 	c #777A7C",
"M 	c #7A7D80",
"N 	c #7B7E81",
"O 	c #767A7C",
"P 	c #777A7E",
"Q 	c #787C80",
"R 	c #757B7F",
"S 	c #75818A",
"T 	c #767E83",
"U 	c #828F99",
"V 	c #787D81",
"W 	c #85929B",
"X 	c #788187",
"Y 	c #7B8B97",
"Z 	c #7190A7",
"` 	c #AA9AB9",
" .	c #C0B7CA",
"..	c #BBBEC0",
"+.	c #838384",
"@.	c #4B0277",
"#.	c #530482",
"$.	c #3C0761",
"%.	c #3A0B5E",
"&.	c #371057",
"*.	c #46136E",
"=.	c #50177B",
"-.	c #3E185E",
";.	c #421F64",
">.	c #5A2687",
",.	c #52217D",
"'.	c #5B1B8A",
").	c #5D278A",
"!.	c #5E3288",
"~.	c #604C7B",
"{.	c #737578",
"].	c #6A7C8B",
"^.	c #A998B7",
"/.	c #B8B0C4",
"(.	c #807F81",
"_.	c #65009E",
":.	c #5D0093",
"<.	c #450070",
"[.	c #450071",
"}.	c #3B0060",
"|.	c #400069",
"1.	c #4C007B",
"2.	c #4F0080",
"3.	c #520084",
"4.	c #63009C",
"5.	c #7000AE",
"6.	c #6900A3",
"7.	c #6600A0",
"8.	c #5A0090",
"9.	c #5A3380",
"0.	c #737C83",
"a.	c #647C8E",
"b.	c #A898B7",
"c.	c #BDB4C7",
"d.	c #828E97",
"e.	c #7B7A7C",
"f.	c #44006F",
"g.	c #3F0067",
"h.	c #340054",
"i.	c #350057",
"j.	c #38005B",
"k.	c #290041",
"l.	c #340055",
"m.	c #40006A",
"n.	c #500084",
"o.	c #5C0092",
"p.	c #7300B2",
"q.	c #6D00AA",
"r.	c #5B0091",
"s.	c #513770",
"t.	c #72787E",
"u.	c #68879D",
"v.	c #A897B6",
"w.	c #B4ACC1",
"x.	c #A5ABB0",
"y.	c #747475",
"z.	c #400068",
"A.	c #37005A",
"B.	c #320050",
"C.	c #2D0045",
"D.	c #27003E",
"E.	c #26003C",
"F.	c #26003D",
"G.	c #42006D",
"H.	c #5A0091",
"I.	c #5C0093",
"J.	c #6B00A6",
"K.	c #57008D",
"L.	c #4A0078",
"M.	c #523C6E",
"N.	c #647B8D",
"O.	c #A796B6",
"P.	c #E5B8EC",
"Q.	c #B2AAC0",
"R.	c #85919B",
"S.	c #3B0061",
"T.	c #2C0046",
"U.	c #27003D",
"V.	c #200034",
"W.	c #1E0031",
"X.	c #1F0031",
"Y.	c #2B0045",
"Z.	c #37005B",
"`.	c #490078",
" +	c #56008B",
".+	c #3E0066",
"++	c #453758",
"@+	c #737B82",
"#+	c #68869D",
"$+	c #A696B6",
"%+	c #B1A9BE",
"&+	c #A2A7AB",
"*+	c #757576",
"=+	c #370059",
"-+	c #30004B",
";+	c #230038",
">+	c #190027",
",+	c #180027",
"'+	c #13001E",
")+	c #11001B",
"!+	c #570085",
"~+	c #1A002A",
"{+	c #27003F",
"]+	c #4F0081",
"^+	c #460071",
"/+	c #413550",
"(+	c #727577",
"_+	c #61788B",
":+	c #A695B5",
"<+	c #ADA5BC",
"[+	c #929BA1",
"}+	c #6F6E70",
"|+	c #31004E",
"1+	c #280040",
"2+	c #1B002C",
"3+	c #0E0016",
"4+	c #07000B",
"5+	c #020003",
"6+	c #747474",
"7+	c #0B0013",
"8+	c #25003C",
"9+	c #480076",
"0+	c #423551",
"a+	c #79828B",
"b+	c #637C92",
"c+	c #A594B5",
"d+	c #7E8E9B",
"e+	c #707071",
"f+	c #290040",
"g+	c #200032",
"h+	c #C09EDB",
"i+	c #865EAD",
"j+	c #210036",
"k+	c #06000A",
"l+	c #826C8D",
"m+	c #11001A",
"n+	c #680F94",
"o+	c #12011F",
"p+	c #3C0062",
"q+	c #4E007F",
"r+	c #540089",
"s+	c #4F435E",
"t+	c #83898F",
"u+	c #6A8BA5",
"v+	c #A493B3",
"w+	c #D5B2DF",
"x+	c #EAB9EF",
"y+	c #CFB0DB",
"z+	c #B0A4BE",
"A+	c #9BA1A7",
"B+	c #737273",
"C+	c #210035",
"D+	c #1C002C",
"E+	c #56057E",
"F+	c #010002",
"G+	c #6A268D",
"H+	c #7E50A2",
"I+	c #B1A4C2",
"J+	c #7D5798",
"K+	c #0A0010",
"L+	c #30004E",
"M+	c #771CAC",
"N+	c #B55DEB",
"O+	c #60477B",
"P+	c #83888C",
"Q+	c #617B8D",
"R+	c #A595B5",
"S+	c #EEBBF2",
"T+	c #BDA9C7",
"U+	c #87939E",
"V+	c #6D6D6E",
"W+	c #24003A",
"X+	c #1A0029",
"Y+	c #2C0047",
"Z+	c #2E004A",
"`+	c #450765",
" @	c #63407A",
".@	c #DCD5E4",
"+@	c #E8E8E8",
"@@	c #AE99C4",
"#@	c #400063",
"$@	c #27202F",
"%@	c #594367",
"&@	c #B571E7",
"*@	c #D6ACF3",
"=@	c #7B4E9D",
"-@	c #8F99A0",
";@	c #85A7BC",
">@	c #BDA8C7",
",@	c #8E979F",
"'@	c #69696A",
")@	c #1B002A",
"!@	c #7A58A0",
"~@	c #B49ECC",
"{@	c #60357A",
"]@	c #644874",
"^@	c #D6CFDB",
"/@	c #E6E5E7",
"(@	c #AA99B9",
"_@	c #47006D",
":@	c #2C2434",
"<@	c #2D074A",
"[@	c #7902B8",
"}@	c #8224B6",
"|@	c #534A60",
"1@	c #92969A",
"2@	c #8FA9BA",
"3@	c #CEAFDB",
"4@	c #D4B2DF",
"5@	c #B5A5C3",
"6@	c #9AACBA",
"7@	c #666567",
"8@	c #280041",
"9@	c #190026",
"0@	c #8348AE",
"a@	c #B9AAC8",
"b@	c #63208D",
"c@	c #3F2154",
"d@	c #9389A0",
"e@	c #530578",
"f@	c #2A0044",
"g@	c #11001C",
"h@	c #3C0063",
"i@	c #5F0097",
"j@	c #4B007A",
"k@	c #56515C",
"l@	c #A2ABB2",
"m@	c #7B96A8",
"n@	c #A494B5",
"o@	c #AAA2BB",
"p@	c #A7C4D8",
"q@	c #605F61",
"r@	c #2A0042",
"s@	c #12001C",
"t@	c #0F0017",
"u@	c #60038E",
"v@	c #31004C",
"w@	c #08000C",
"x@	c #805496",
"y@	c #25003E",
"z@	c #510083",
"A@	c #7400B3",
"B@	c #6C00A8",
"C@	c #595165",
"D@	c #9DA4AA",
"E@	c #82A4BA",
"F@	c #A290B1",
"G@	c #A8A5BF",
"H@	c #9CACB7",
"I@	c #5E5D5E",
"J@	c #240039",
"K@	c #180024",
"L@	c #0C0013",
"M@	c #08000D",
"N@	c #620490",
"O@	c #6700A1",
"P@	c #9000DA",
"Q@	c #8000C3",
"R@	c #5B5269",
"S@	c #969A9D",
"T@	c #526D80",
"U@	c #A291B2",
"V@	c #CFB0DC",
"W@	c #BBB2CE",
"X@	c #A8BECD",
"Y@	c #616062",
"Z@	c #2B0046",
"`@	c #1D002F",
" #	c #180026",
".#	c #09000E",
"+#	c #0F0018",
"@#	c #150021",
"##	c #610099",
"$#	c #7800B8",
"%#	c #64009D",
"&#	c #625A6D",
"*#	c #9EA2A6",
"=#	c #4F6C81",
"-#	c #E8B8EE",
";#	c #D2BBE0",
">#	c #A7BECD",
",#	c #5A595A",
"'#	c #30004C",
")#	c #350056",
"!#	c #2E0049",
"~#	c #1D002E",
"{#	c #160022",
"]#	c #1C002D",
"^#	c #2D0048",
"/#	c #490077",
"(#	c #4C007D",
"_#	c #5A008F",
":#	c #615571",
"<#	c #909497",
"[#	c #55758B",
"}#	c #D3BCE2",
"|#	c #A1B6C5",
"1#	c #535255",
"2#	c #38005C",
"3#	c #340053",
"4#	c #30004D",
"5#	c #41006A",
"6#	c #41006B",
"7#	c #6900A5",
"8#	c #8700CD",
"9#	c #7200B1",
"0#	c #655A74",
"a#	c #999FA4",
"b#	c #4B687C",
"c#	c #D5B2E0",
"d#	c #EBBAF0",
"e#	c #E3B7EA",
"f#	c #C9A8CD",
"g#	c #8C9BA6",
"h#	c #515053",
"i#	c #3D0063",
"j#	c #43006D",
"k#	c #550089",
"l#	c #5E0095",
"m#	c #610098",
"n#	c #895EB3",
"o#	c #7500B4",
"p#	c #8600CD",
"q#	c #7E00C2",
"r#	c #696570",
"s#	c #9FA1A3",
"t#	c #3A5161",
"u#	c #A18EAF",
"v#	c #CBB2DB",
"w#	c #A8D4F0",
"x#	c #525155",
"y#	c #56008A",
"z#	c #540086",
"A#	c #7603B2",
"B#	c #CC96F0",
"C#	c #E1D2ED",
"D#	c #955EC9",
"E#	c #6900A4",
"F#	c #8800CF",
"G#	c #6E6975",
"H#	c #A6AAAE",
"I#	c #6488A0",
"J#	c #A190B1",
"K#	c #D2B1DD",
"L#	c #B09FBE",
"M#	c #8BA4B6",
"N#	c #504B59",
"O#	c #470075",
"P#	c #3E0064",
"Q#	c #5F048F",
"R#	c #C7AFE4",
"S#	c #E0D3EC",
"T#	c #B896D9",
"U#	c #4C007C",
"V#	c #7000AD",
"W#	c #500080",
"X#	c #60576C",
"Y#	c #9D9FA0",
"Z#	c #435D6D",
"`#	c #C5ADD5",
" $	c #EDBAF1",
".$	c #D7B2E1",
"+$	c #E5B7EC",
"@$	c #C5ACD4",
"#$	c #C4ACD3",
"$$	c #CBAFD9",
"%$	c #D6B2E0",
"        . + .       @ # + $               % # + $       & + * ",
"  = -   ; > ;       @ # + $         , '   ) ! > ~       & + * ",
"  { ]               @ ^ / (         _ *                 : / < ",
"  { ]     [ } | 1 2 3 4 5 6 7 8 9 0 a b c d e f g h     i j % ",
"  k ~     l m n o p q r s t u v w x y z A B C D E F           ",
"          G H I J K L M N O P Q R S T U V W X Y Z `           ",
"           ...+.@.#.$.%.&.*.=.-.;.>.,.'.).!.~.{.].^.          ",
"          /.m (._.:.<.[.}.|.1.2.3.4.5.6.7.8.9.0.a.b.          ",
"          c.d.e.f.g.h.i.h.j.k.l.m.n.o.p.q.r.s.t.u.v.        j ",
"          w.x.y.z.A.B.C.D.E.F.i.G.H.I.J.K.L.M.V N.O.        $ ",
"  P.-     Q.R.y.S.T.k.U.V.W.X.Y.Z.`. +8.r..+++@+#+$+        ] ",
"  { ]     %+&+*+=+-+;+>+,+'+)+!+~+{+z.]+ +^+/+(+_+:+        ] ",
"  { ]     <+[+}+|+U.1+2+3+4+5+6+5+7+8+f.1.9+0+a+b+c+        ] ",
"  { ]     %+d+e+f+g+h+i+j+T.k+l+m+n+o+p+q+r+s+t+u+v+    w+& ~ ",
"  x+(   y+z+A+B+C+D+E+V.F+G+H+I+J+4+K+L+M+N+O+P+Q+R+    & S+  ",
"  @ )   < T+U+V+W+X+Y+Z+`+ @.@+@@@#@$@%@&@*@=@-@;@R+    & S+  ",
"        . >@,@'@V.)@!@~@{@]@^@/@(@_@:@<@[@}@|@1@2@$+    3@4@  ",
"        & 5@6@7@8@9@8+0@a@b@c@d@e@f@g@h@i@j@k@l@m@n@          ",
"        i o@p@q@r@X.s@t@u@v@w@x@w@y@W+z@A@B@C@D@E@F@          ",
"          G@H@I@F.J@K@3+L@M@w@N@K+'+B.O@P@Q@R@S@T@U@          ",
"        V@W@X@Y@Z@`@)@ #s@.#M@+#@#1+p+##$#%#&#*#=#F@          ",
"        -#;#>#,#'#T.)#!#~#{#]#g+^#/#(#J.O@_#:#<#[#F@          ",
"        . }#|#1#2#h.3#j.4#Z+=+5#6#7.7#8#9#8.0#a#b#F@    c#d#e#",
"        . f#g#h#z.i#|+A.j#z@k#l#m#n#o#p#q#7.r#s#t#u#    & + * ",
"        . v#w#x#y#3.6#4#2#z#_.A#B#C#D#E#F#m#G#H#I#J#    & + * ",
"  < -   K#L#M#N#i@r.O#^#Y+=+P#Q#R#S#T#U#V#W#X#Y#Z#u#    & + * ",
"  { ]               `# $^ 3@        _ *                 .$^ +$",
"  { ]                 @$i           _ *                 #$i ) ",
"  : ~                               $$%$                      ",
"                                                              ",
"                                                              "};
