/* XPM */
static char * ground_xpm[] = {
"31 31 55 1",
" 	c #C2D3FF",
".	c #BED7FF",
"+	c #E0E7FF",
"@	c #F2F1FF",
"#	c #C1D8FF",
"$	c #F1EFFF",
"%	c #CCDDFF",
"&	c #D7E2FF",
"*	c #E7EBFF",
"=	c #BAD3FF",
"-	c #DDE4FF",
";	c #C7DBFF",
">	c #CADCFF",
",	c #D8E3FF",
"'	c #D7E1FF",
")	c #C4D9FF",
"!	c #EBEDFF",
"~	c #CDDDFF",
"{	c #E5E9FF",
"]	c #E7EAFF",
"^	c #C8DCFF",
"/	c #D3DFFF",
"(	c #D1DFFF",
"_	c #DEE6FF",
":	c #C3D8FF",
"<	c #D4E0FF",
"[	c #C7DAFF",
"}	c #D0DEFF",
"|	c #C5DBFF",
"1	c #EFF0FF",
"2	c #D6E1FF",
"3	c #DCE5FF",
"4	c #E8ECFF",
"5	c #DAE3FF",
"6	c #D4E1FF",
"7	c #C8DBFF",
"8	c #E1E7FF",
"9	c #C6DBFF",
"0	c #DEE5FF",
"a	c #E4E9FF",
"b	c #BFD8FF",
"c	c #EEEEFF",
"d	c #DCE4FF",
"e	c #CEDEFF",
"f	c #C4DAFF",
"g	c #C9DCFF",
"h	c #CFDEFF",
"i	c #DFE6FF",
"j	c #EFEFFF",
"k	c #E2E8FF",
"l	c #DBE4FF",
"m	c #CBDDFF",
"n	c #E3E8FF",
"o	c #DBE5FF",
"p	c #C0D7FF",
" ...+@+...#$@%.......#$@%...&@*",
"=-;.%&%...#$@%....>,..'&)...&@*",
"=!~.......#{]^..../*........(]_",
"=!~........::...../*........#:#",
"=<)...............[(...........",
"=..............................",
"=..............................",
"=..............................",
"=............~}|..............:",
"=............]12..............%",
"=3;..........4@&..>5..........~",
"=!~..........4@&../*..........~",
"=!~..........4@&../*..........~",
"=!~.......#+)(67../*........}&)",
"=8^.>;....#$9.....~0..}#....&a.",
"=#.._5....#$9......b.#c[....&a.",
"=...+d.....6:........#$[....7e.",
"=...&6...............#af.......",
"=...#.................#........",
"=..............................",
"=...g(g...............h(:......",
"=..._1i..............:j1~......",
"=...+@+...b8k;.......#$@%...ekl",
"=...+@+...#$@%.......#$@%...&@*",
"=...+@+...#$@%.......#$@%...&@*",
" _;.~6~...#$@%....ml..<6)...&@*",
" !~.......bn{7..../*........}{o",
" !~........p#...../*........p#.",
" ()...............|}...........",
"=..............................",
"=.............................."};
