/* XPM */
static char * perso_up_up_xpm[] = {
"31 31 288 2",
"  	c #C6A8D1",
". 	c #C3ACD3",
"+ 	c #C6ADD5",
"@ 	c #E9B9EE",
"# 	c #FFC1FF",
"$ 	c #FDC0FD",
"% 	c #D2B1DE",
"& 	c #C7ADD6",
"* 	c #DFB5E7",
"= 	c #F3BCF6",
"- 	c #BFA8CF",
"; 	c #E5B7EB",
"> 	c #CFB0DC",
", 	c #D3B1DF",
"' 	c #DEB5E6",
") 	c #FBBEFB",
"! 	c #974F59",
"~ 	c #BC6B81",
"{ 	c #E789AA",
"] 	c #E785A6",
"^ 	c #E886A8",
"/ 	c #E1B6E9",
"( 	c #C4ACD4",
"_ 	c #DDB5E5",
": 	c #C9AED7",
"< 	c #F8BEFA",
"[ 	c #D3B1DE",
"} 	c #A73939",
"| 	c #E7556A",
"1 	c #E78EAF",
"2 	c #E797B8",
"3 	c #E7A5C6",
"4 	c #E790B1",
"5 	c #E78DAE",
"6 	c #E88CB0",
"7 	c #D8B3E2",
"8 	c #F1BCF4",
"9 	c #E7B8ED",
"0 	c #C68AA9",
"a 	c #E090B0",
"b 	c #E786A2",
"c 	c #E7566C",
"d 	c #E795B6",
"e 	c #DA7C9A",
"f 	c #BA87A4",
"g 	c #C5ADD4",
"h 	c #C8ADD6",
"i 	c #DAB4E3",
"j 	c #9F788F",
"k 	c #D47894",
"l 	c #E72E3B",
"m 	c #E784A5",
"n 	c #E7B5CD",
"o 	c #E7B8CF",
"p 	c #E7A3C4",
"q 	c #E791B2",
"r 	c #D084A2",
"s 	c #A65A69",
"t 	c #E11F26",
"u 	c #E79ABB",
"v 	c #E7B0CB",
"w 	c #E7B3CC",
"x 	c #E79DBD",
"y 	c #DC7D9B",
"z 	c #C59FC3",
"A 	c #936272",
"B 	c #DE718C",
"C 	c #E78DAD",
"D 	c #D98CAE",
"E 	c #E683A4",
"F 	c #E7A4C5",
"G 	c #97697B",
"H 	c #DE7E9D",
"I 	c #E79EBE",
"J 	c #E589A9",
"K 	c #C66F88",
"L 	c #A988A4",
"M 	c #D47794",
"N 	c #E788A9",
"O 	c #E7A2C3",
"P 	c #E07F9E",
"Q 	c #E482A3",
"R 	c #E583A3",
"S 	c #995964",
"T 	c #E799BA",
"U 	c #E5B8EC",
"V 	c #CDAFDA",
"W 	c #9D6E7B",
"X 	c #854342",
"Y 	c #D17692",
"Z 	c #B06072",
"` 	c #D67996",
" .	c #99515B",
"..	c #AD7A7B",
"+.	c #884742",
"@.	c #864344",
"#.	c #E78AAB",
"$.	c #E799B9",
"%.	c #DE7F9D",
"&.	c #AF6072",
"*.	c #995742",
"=.	c #854343",
"-.	c #C26C83",
";.	c #9A525C",
">.	c #B06073",
",.	c #E381A2",
"'.	c #B9667B",
").	c #956677",
"!.	c #F5BDF8",
"~.	c #C2AAD0",
"{.	c #A86B5A",
"].	c #844242",
"^.	c #D37793",
"/.	c #9A515C",
"(.	c #AA5C6D",
"_.	c #A27C94",
":.	c #D5B2DF",
"<.	c #EAB9EF",
"[.	c #D0B1DC",
"}.	c #CFB0DB",
"|.	c #9F5D42",
"1.	c #884547",
"2.	c #A05562",
"3.	c #96454F",
"4.	c #843434",
"5.	c #842828",
"6.	c #843F3F",
"7.	c #894548",
"8.	c #A87086",
"9.	c #D6B2E0",
"0.	c #EEBBF2",
"a.	c #E2B6E9",
"b.	c #A36142",
"c.	c #984C33",
"d.	c #840808",
"e.	c #840E0E",
"f.	c #840303",
"g.	c #840D0D",
"h.	c #847F7F",
"i.	c #9D6277",
"j.	c #FBBFFC",
"k.	c #CCAFD9",
"l.	c #E4B7EA",
"m.	c #B37252",
"n.	c #D69575",
"o.	c #9A4C32",
"p.	c #C20000",
"q.	c #E70000",
"r.	c #970000",
"s.	c #848181",
"t.	c #968D98",
"u.	c #CEAFDB",
"v.	c #D4B2DF",
"w.	c #DBB4E4",
"x.	c #A09DA2",
"y.	c #E79249",
"z.	c #E1A483",
"A.	c #A85B33",
"B.	c #AD2121",
"C.	c #DC4141",
"D.	c #DD4848",
"E.	c #DA3A3A",
"F.	c #841010",
"G.	c #90828C",
"H.	c #CAAED8",
"I.	c #BCAAC8",
"J.	c #BDB2C6",
"K.	c #D3D3D3",
"L.	c #D6BDA5",
"M.	c #E7BF9A",
"N.	c #D1740E",
"O.	c #755050",
"P.	c #848484",
"Q.	c #909090",
"R.	c #787878",
"S.	c #844B4B",
"T.	c #956D75",
"U.	c #D8D7D9",
"V.	c #AEAEAE",
"W.	c #A5A5A5",
"X.	c #C3A78F",
"Y.	c #A2622C",
"Z.	c #4B3939",
"`.	c #654242",
" +	c #493838",
".+	c #323232",
"++	c #614141",
"@+	c #846E6E",
"#+	c #818181",
"$+	c #9991A0",
"%+	c #D7B3E1",
"&+	c #9B9B9B",
"*+	c #949494",
"=+	c #7D7D7D",
"-+	c #383838",
";+	c #552828",
">+	c #512626",
",+	c #000000",
"'+	c #562929",
")+	c #844444",
"!+	c #828282",
"~+	c #9B979E",
"{+	c #D6B2E1",
"]+	c #E8B8EE",
"^+	c #FDC0FE",
"/+	c #E8B8ED",
"(+	c #978597",
"_+	c #5C5C5C",
":+	c #887575",
"<+	c #6C3535",
"[+	c #2D1212",
"}+	c #5F4646",
"|+	c #8B8B8B",
"1+	c #756666",
"2+	c #8E5864",
"3+	c #9C667E",
"4+	c #FABEFB",
"5+	c #D2B1DD",
"6+	c #66616A",
"7+	c #545454",
"8+	c #525252",
"9+	c #686868",
"0+	c #A3A0A0",
"a+	c #8C8888",
"b+	c #A091AB",
"c+	c #5B4E4E",
"d+	c #7D1515",
"e+	c #840000",
"f+	c #8E4152",
"g+	c #D4B0DD",
"h+	c #D5B2E0",
"i+	c #EBBAF0",
"j+	c #E3B7EA",
"k+	c #821818",
"l+	c #875D5D",
"m+	c #6C6C6C",
"n+	c #A795B4",
"o+	c #CD0000",
"p+	c #5F0000",
"q+	c #210000",
"r+	c #3C2C3B",
"s+	c #EE779F",
"t+	c #BB8D8D",
"u+	c #AAA9A9",
"v+	c #882929",
"w+	c #DD0000",
"x+	c #871E27",
"y+	c #B18FB0",
"z+	c #D10000",
"A+	c #670000",
"B+	c #AB7F9D",
"C+	c #BF0000",
"D+	c #E40000",
"E+	c #E7C7C7",
"F+	c #B7B2B8",
"G+	c #A87F9D",
"H+	c #D1B1DD",
"I+	c #E50000",
"J+	c #C40000",
"K+	c #5E0000",
"L+	c #B18EAF",
"M+	c #8D3E4E",
"N+	c #D40000",
"O+	c #E7C2C2",
"P+	c #C60000",
"Q+	c #EC9CCB",
"R+	c #DB0000",
"S+	c #710000",
"T+	c #D7B2E1",
"U+	c #EFBBF3",
"V+	c #E5B7EC",
"W+	c #B08DAE",
"X+	c #BC3B4A",
"Y+	c #E30000",
"Z+	c #E60000",
"`+	c #B90000",
" @	c #560000",
".@	c #796A83",
"+@	c #C4ACD3",
"@@	c #B290B1",
"#@	c #B62E3B",
"$@	c #B70000",
"%@	c #B60000",
"&@	c #520000",
"*@	c #BCA1C6",
"=@	c #985E74",
"-@	c #B190B1",
";@	c #897895",
"  . + . @ # @ . . . + $ # % . . . . . . . & $ # % . . . * # = ",
"- ; > . , ' , & & . + ) ! ~ { { { ] ^ / . ( _ ' : & . . * # = ",
"- < [ . . . . . . . } | 1 2 3 3 3 4 5 6 . . . . . . . . 7 8 9 ",
"- < [ . . . . 0 a b c d 3 3 3 3 3 3 3 4 e f . . . . . . g h & ",
"- i : . . . . j k l m 3 3 n o 3 3 3 3 p q r . . . . . . . ( . ",
"- . . . . . . j s t u 3 3 v w 3 3 3 3 3 x y z . . . . . . . . ",
"- . . . . . . . A B C 3 3 3 3 3 3 3 3 3 x m . . . . . . . . . ",
"- . . . . . . . D E m 3 3 3 3 3 3 3 F 5 x m . . . . . . . . . ",
"- . . . . . . . G H m { 3 3 3 4 I 3 p J x K L . . . . . . . h ",
"- . . . . . . . G M m N O 3 d P Q O R S T K L . . . . . . . % ",
"- U V . . . . . W X Y m 1 3 d Z ` u R  .m K L . . . . . . . [ ",
"- < [ . . . . . ..+.@.m #.$.1 Z ` m R  .%.&.L . . . . . . . [ ",
"- < [ . . . . . ..*.=.-.m m Y ;.>.,.'. .Y ).. . . . . . . . [ ",
"- !.[ . . . . . ~.{.].! m ^./.].].(.]. .Y _.. . . . . . :.* : ",
"- <.[.. }.V . . . . |.1.2.3.4.].5.6.].7.8.( 9.+ . . . . * 0.. ",
"- + & . 9 a.. . . . + $ b.c.d.e.f.g.h.i.. + j.k.. . . . * 0.. ",
"- . . . @ l.. . . . ( m.n.o.p.q.q.r.s.t.. & $ k.. . . . u.v.. ",
"- . . . * w.. . . x.y.z.A.B.C.D.D.E.F.G.. + 0.H.. g + . . . . ",
"- . . . g ( . I.J.K.L.M.N.O.P.Q.Q.R.S.T.. . + . . . . . . . . ",
"- . . . . . . I.U.V.W.X.Y.Z.`. +.+++@+#+$+. . . . . . . . . . ",
"- . . . > %+> . . &+*+=+-+;+].>+,+'+)+!+~+( {+%+h . . . . . . ",
"- . . . ]+^+/+. (+!+P.=+_+:+<+[+,+,+}+|+1+2+3+4+5+. . . . . . ",
"- . . . @ # @ . . 6+7+8+9+0+a+b+. . . c+d+e+e+f+g+. . . h+i+j+",
"- . + . @ # @ . . . + $ k+l+m+n+. . . . o+e+p+q+r+. . . * # = ",
"- . + . @ # @ s+t+u+v+w+e+e+x+y+. . . . z+A+,+,+,+. . . * # = ",
"  9 > . 5+w.B+C+D+E+F+w+e+e+G+. . . H+I+J+K+,+,+,+. . . * # = ",
"  < [ . . . L+M+N+q.O+P+e+e+G+. . . Q+R+S+,+,+,+,+. . . T+U+V+",
"  < [ . . . . W+X+Y+Z+e+e+e+G+. . . Z+`+ @,+,+,+.@. . . +@g ( ",
"  7 : . . . . . @@#@$@e+e+e+G+. . . %@&@,+,+,+,+. . . . . . . ",
"- . . . . . . . . *@e+e+e+=@. . . . -@,+,+,+,+;@. . . . . . . ",
"- . . . . . . . . . . . . . . . . . . . . . . . . . . . . . . "};
