/* XPM */
static char * perso_down_down_xpm[] = {
"31 31 74 1",
" 	c #C6A8D1",
".	c #C3ACD3",
"+	c #E9B9EE",
"@	c #FFC1FF",
"#	c #C6ADD5",
"$	c #FDC0FD",
"%	c #D2B1DE",
"&	c #C7ADD6",
"*	c #DFB5E7",
"=	c #F3BCF6",
"-	c #BFA8CF",
";	c #E5B7EB",
">	c #CDAFDA",
",	c #D3B1DF",
"'	c #DEB5E6",
")	c #D0B0DC",
"!	c #E1B6E9",
"~	c #C4ACD4",
"{	c #DDB5E5",
"]	c #C9AED7",
"^	c #F8BEFA",
"/	c #D3B1DE",
"(	c #844242",
"_	c #E784A5",
":	c #D9B3E2",
"<	c #D8B3E2",
"[	c #F1BCF4",
"}	c #E7B8ED",
"|	c #E7A5C6",
"1	c #C5ADD4",
"2	c #C8ADD6",
"3	c #DAB4E3",
"4	c #E70000",
"5	c #E7E7E7",
"6	c #424242",
"7	c #E5B8EC",
"8	c #A56342",
"9	c #848484",
"0	c #000000",
"a	c #EAB9EF",
"b	c #CEB0DB",
"c	c #CFB0DB",
"d	c #EEBBF2",
"e	c #E2B6E9",
"f	c #E4B7EA",
"g	c #E7A584",
"h	c #CCAFD9",
"i	c #CEAFDB",
"j	c #D4B2DF",
"k	c #DBB4E4",
"l	c #CAAED8",
"m	c #E78400",
"n	c #840000",
"o	c #CFB0DC",
"p	c #D7B3E1",
"q	c #D6B2E1",
"r	c #E8B8EE",
"s	c #FDC0FE",
"t	c #E8B8ED",
"u	c #A5A5A5",
"v	c #FBC0FC",
"w	c #D2B1DD",
"x	c #D5B2E0",
"y	c #EBBAF0",
"z	c #E3B7EA",
"A	c #C5ADD5",
"B	c #EDBAF1",
"C	c #EFBBF3",
"D	c #D7B2E1",
"E	c #E5B7EC",
"F	c #C5ACD4",
"G	c #C4ACD3",
"H	c #CBAFD9",
"I	c #D6B2E0",
" ...+@+...#$@%.......&$@%...*@=",
"-;>.,',...#$@%....)!.~{']...*@=",
"-^/.......#(_____(:=........<[}",
"-^/.......___||||__(........12&",
"-3]......__|||||4444(..........",
"-.......(_|||44444444((((......",
"-.......(_||4444|||___((.......",
"-......(__|444_|||_|5__||......",
"-......(__|(|__|5||||5|||||...2",
"-......(__(_||____|||||||6....%",
"-7>....(__(||||||__|||___|6.../",
"-^/....(__(886_______||((_96../",
"-^/....(__4_600(___(___|_(596./",
"-^/....((_4__05599_(((((_5596*]",
"-ab.c>.((____(55560_((((99596d.",
"-#~.}e..((____955609(8866996*d.",
"-...+f..(((__8(95558g88h.66.ij.",
"-...*k..959__88ggggg800l.......",
"-...1~.65559mn888888nn#........",
"-......65559mnnnnnnnn6.........",
"-...opo695596n444444n9qp2......",
"-...rst66996n9u4444u96vsw......",
"-...+@+.666nnnn9uu996&$@%...xyz",
"-...+@+...#nn499n....&$@%...*@=",
"-...+@+...#nn499nn...&$@%...*@=",
" }>.wkw...#$n44uu4nz.~3k]...*@=",
" ^/.......ABCn4459n=........DCE",
" ^/........F1.n49un=........G1~",
" <]............nn9HI...........",
"-..............................",
"-.............................."};
