/* XPM */
static char * perso_down_down_xpm[] = {
"31 31 68 1",
" 	c #C6A8D1",
".	c #C3ACD3",
"+	c #E9B9EE",
"@	c #FFC1FF",
"#	c #C6ADD5",
"$	c #FDC0FD",
"%	c #D2B1DE",
"&	c #C7ADD6",
"*	c #DFB5E7",
"=	c #F3BCF6",
"-	c #BFA8CF",
";	c #E5B7EB",
">	c #CDAFDA",
",	c #D3B1DF",
"'	c #DEB5E6",
")	c #D0B0DC",
"!	c #E1B6E9",
"~	c #C4ACD4",
"{	c #DDB5E5",
"]	c #C9AED7",
"^	c #F8BEFA",
"/	c #D3B1DE",
"(	c #EFBBF3",
"_	c #F1BCF4",
":	c #CEB0DB",
"<	c #8E5151",
"[	c #F08EAE",
"}	c #D8B3E2",
"|	c #E7B8ED",
"1	c #C8ADD6",
"2	c #F0AECF",
"3	c #C5ADD4",
"4	c #DAB4E3",
"5	c #F02C2C",
"6	c #F0F0F0",
"7	c #515151",
"8	c #E5B8EC",
"9	c #8E8E8E",
"0	c #AE6E51",
"a	c #2C2C2C",
"b	c #D5B2DF",
"c	c #EAB9EF",
"d	c #EEBBF2",
"e	c #F0AE8E",
"f	c #CEAFDB",
"g	c #D4B2DF",
"h	c #DBB4E4",
"i	c #8E2C2C",
"j	c #F08E2C",
"k	c #CFB0DC",
"l	c #D7B3E1",
"m	c #E8B8EE",
"n	c #FDC0FE",
"o	c #E8B8ED",
"p	c #AEAEAE",
"q	c #C5ADD5",
"r	c #D5B2E0",
"s	c #EBBAF0",
"t	c #E3B7EA",
"u	c #D2B1DD",
"v	c #EDBAF1",
"w	c #D7B2E1",
"x	c #E5B7EC",
"y	c #C5ACD4",
"z	c #D9B3E2",
"A	c #C4ACD3",
"B	c #CBAFD9",
"C	c #D6B2E0",
" ...+@+...#$@%.......&$@%...*@=",
"-;>.,',...#$@%....)!.~{']...*@=",
"-^/.......#(_:<[[[[[<.......}_|",
"-^/........1<[[2222[[[......31&",
"-4]........<555522222[[........",
"-......<<<<55555555222[<.......",
"-.......<<[[[222555522[<.......",
"-......22[[62[222[5552[[<......",
"-....222226222262[[2<2[[<.....1",
"-.....72222222[[[[22[<[[<.....%",
"-8>..72[[[222[[222222<[[<...../",
"-^/.79[<<22[[[[[[[700<[[<...../",
"-^/796<[2[[[<[[[<aa7[5[[<...../",
"-^/7966[<<<<<[9966a[[5[<<...b*]",
"-c:79699<<<<[a7666<[[[[<<...*d.",
"-#~.7997700<9a7669[[[[<<....*d.",
"-...+77..00e06669<0[[<<<....fg.",
"-...*h...aa0eeeee00[[969.......",
"-...3~....ii000000ij96667......",
"-.........7iiiiiiiij96667......",
"-...klk...9i555555i796697......",
"-...mno...79p5555p9i79977......",
"-...+@+...q799pp9iiii777%...rst",
"-...+@+...#$@%.i995ii&$@%...*@=",
"-...+@+...#$@%ii995ii&$@%...*@=",
" |>.uhu...#$@i5pp55i.~4h]...*@=",
" ^/.......qv(i9655i=........w(x",
" ^/........y3ip95iz=........A3~",
" }]...........9ii.BC...........",
"-..............................",
"-.............................."};
