/* XPM */
static char * perso_down_xpm[] = {
"31 31 76 1",
" 	c #C6A8D1",
".	c #C3ACD3",
"+	c #E9B9EE",
"@	c #FFC1FF",
"#	c #C6ADD5",
"$	c #FDC0FD",
"%	c #D2B1DE",
"&	c #C7ADD6",
"*	c #DFB5E7",
"=	c #F3BCF6",
"-	c #BFA8CF",
";	c #E5B7EB",
">	c #CDAFDA",
",	c #D3B1DF",
"'	c #DEB5E6",
")	c #D0B0DC",
"!	c #E1B6E9",
"~	c #C4ACD4",
"{	c #DDB5E5",
"]	c #C9AED7",
"^	c #F8BEFA",
"/	c #D3B1DE",
"(	c #8E5151",
"_	c #F08EAE",
":	c #D9B3E2",
"<	c #D8B3E2",
"[	c #F1BCF4",
"}	c #E7B8ED",
"|	c #F0AECF",
"1	c #C5ADD4",
"2	c #C8ADD6",
"3	c #DAB4E3",
"4	c #F02C2C",
"5	c #F0F0F0",
"6	c #515151",
"7	c #E5B8EC",
"8	c #AE6E51",
"9	c #8E8E8E",
"0	c #2C2C2C",
"a	c #D5B2DF",
"b	c #EAB9EF",
"c	c #CEB0DB",
"d	c #CFB0DB",
"e	c #EEBBF2",
"f	c #E2B6E9",
"g	c #E4B7EA",
"h	c #F0AE8E",
"i	c #CCAFD9",
"j	c #CEAFDB",
"k	c #D4B2DF",
"l	c #DBB4E4",
"m	c #CAAED8",
"n	c #F08E2C",
"o	c #8E2C2C",
"p	c #CFB0DC",
"q	c #D7B3E1",
"r	c #D6B2E1",
"s	c #E8B8EE",
"t	c #FDC0FE",
"u	c #AEAEAE",
"v	c #C7ADD5",
"w	c #FBC0FC",
"x	c #D2B1DD",
"y	c #D5B2E0",
"z	c #EBBAF0",
"A	c #E3B7EA",
"B	c #D1B1DD",
"C	c #C5ADD5",
"D	c #EDBAF1",
"E	c #D7B2E1",
"F	c #EFBBF3",
"G	c #E5B7EC",
"H	c #C5ACD4",
"I	c #C4ACD3",
"J	c #CBAFD9",
"K	c #D6B2E0",
" ...+@+...#$@%.......&$@%...*@=",
"-;>.,',...#$@%....)!.~{']...*@=",
"-^/.......(_____(.:=........<[}",
"-^/......___||||__(=........12&",
"-3].....__|||||4444(...........",
"-......(_|||44444444((((.......",
"-......(_||4444|||___((........",
"-.....(__|444_|||_|5__||.......",
"-.....(__|(|__|5||||5|||||....2",
"-.....(__(_||____|||||||6.....%",
"-7>...(__(||||||__|||___|6..../",
"-^/...(__(886_______||((_96.../",
"-^/...(__4_600(___(___|_(596../",
"-^/...((_4__05599_(((((_5596a*]",
"-bc.d>((____(55560_((((99596*e.",
"-#~.}f.((____955609(8866996.*e.",
"-...+g.(((__8(95558h88$i66..jk.",
"-...*l.959__88hhhhh800em.......",
"-...1~65559no888888oo.#........",
"-.....65559noooooooo6..........",
"-...pq695596o444444o9~rq2......",
"-...st66996o9u4444u96vwtx......",
"-...+@+666oooo9uu996.&$@%...yzA",
"-...+@+...oo499o.....&$@%...*@=",
"-...+@+...oo499oo....&$@%...*@=",
" }>.xlx...#o44uu4oBA.~3l]...*@=",
" ^/.......CDo4459o:=........EFG",
" ^/........H1o49uo:=........I1~",
" <]...........oo9.JK...........",
"-..............................",
"-.............................."};
