/* XPM */
static char * perso_left_left_xpm[] = {
"31 31 338 2",
"  	c #C6A8D1",
". 	c #C3ACD3",
"+ 	c #E9B9EE",
"@ 	c #FFC1FF",
"# 	c #C6ADD5",
"$ 	c #FDC0FD",
"% 	c #D2B1DE",
"& 	c #C7ADD6",
"* 	c #DFB5E7",
"= 	c #F3BCF6",
"- 	c #BFA8CF",
"; 	c #E5B7EB",
"> 	c #CDAFDA",
", 	c #D3B1DF",
"' 	c #DEB5E6",
") 	c #CDB6E1",
"! 	c #DE7E9D",
"~ 	c #E583A3",
"{ 	c #842D2D",
"] 	c #900000",
"^ 	c #950000",
"/ 	c #920303",
"( 	c #8B3933",
"_ 	c #D0B0DC",
": 	c #E1B6E9",
"< 	c #C4ACD4",
"[ 	c #DDB5E5",
"} 	c #C9AED7",
"| 	c #F8BEFA",
"1 	c #D3B1DE",
"2 	c #B5B6D2",
"3 	c #CD8DA8",
"4 	c #D99AB2",
"5 	c #B0878F",
"6 	c #C5728A",
"7 	c #854343",
"8 	c #B05166",
"9 	c #B05B71",
"0 	c #D8667C",
"a 	c #E75368",
"b 	c #C73A34",
"c 	c #C88970",
"d 	c #B87962",
"e 	c #AC1C16",
"f 	c #D8B3E2",
"g 	c #F1BCF4",
"h 	c #E7B8ED",
"i 	c #E795AF",
"j 	c #E7ADC5",
"k 	c #CF8FAB",
"l 	c #C66F88",
"m 	c #E789AA",
"n 	c #E79EBF",
"o 	c #E7A5C6",
"p 	c #E787A8",
"q 	c #CC8C72",
"r 	c #E7A584",
"s 	c #C28162",
"t 	c #B33C35",
"u 	c #B6667A",
"v 	c #C5ADD4",
"w 	c #C8ADD6",
"x 	c #DAB4E3",
"y 	c #D5A3BA",
"z 	c #E7A0C1",
"A 	c #E7A3C3",
"B 	c #E7D1DB",
"C 	c #E7A1C1",
"D 	c #E7A1C2",
"E 	c #E7A1B8",
"F 	c #D58288",
"G 	c #AB6949",
"H 	c #894842",
"I 	c #902733",
"J 	c #C3B8C8",
"K 	c #CF97BA",
"L 	c #E3A0C0",
"M 	c #CF748F",
"N 	c #C26E85",
"O 	c #E79DBE",
"P 	c #E5C3D2",
"Q 	c #E2B8CC",
"R 	c #E1A1C1",
"S 	c #E79ABB",
"T 	c #E786A7",
"U 	c #9E5460",
"V 	c #CE748F",
"W 	c #C0ABD0",
"X 	c #BD778D",
"Y 	c #E796B7",
"Z 	c #E78AAB",
"` 	c #E79CBD",
" .	c #E797B8",
"..	c #CE889B",
"+.	c #918787",
"@.	c #505050",
"#.	c #CC90AD",
"$.	c #DC98B7",
"%.	c #DCADC4",
"&.	c #E796B5",
"*.	c #AF5065",
"=.	c #E795B6",
"-.	c #D2809C",
";.	c #BC687E",
">.	c #E784A5",
",.	c #B06F84",
"'.	c #D1BAC0",
").	c #E7E7E7",
"!.	c #9F9F9F",
"~.	c #513940",
"{.	c #AB6D85",
"].	c #D5C8CE",
"^.	c #E7B1CB",
"/.	c #A45866",
"(.	c #944E56",
"_.	c #592A2A",
":.	c #A35866",
"<.	c #323232",
"[.	c #ADADAD",
"}.	c #ABABAB",
"|.	c #242424",
"1.	c #604E57",
"2.	c #C99FB4",
"3.	c #E794B3",
"4.	c #626161",
"5.	c #434343",
"6.	c #E5A3C4",
"7.	c #1D1D1D",
"8.	c #A8A8A8",
"9.	c #98505A",
"0.	c #E691B2",
"a.	c #E1809F",
"b.	c #854344",
"c.	c #E5B8EC",
"d.	c #596666",
"e.	c #796F6F",
"f.	c #B67657",
"g.	c #A2928C",
"h.	c #C0C0C0",
"i.	c #E3DBD8",
"j.	c #A87368",
"k.	c #E59CB2",
"l.	c #E08FAB",
"m.	c #E792B2",
"n.	c #806262",
"o.	c #9B715F",
"p.	c #E6A584",
"q.	c #E0A589",
"r.	c #C6A597",
"s.	c #CB947C",
"t.	c #E5A382",
"u.	c #DEC1B6",
"v.	c #C27B81",
"w.	c #E78CAD",
"x.	c #BE6980",
"y.	c #9B928A",
"z.	c #BD7C5D",
"A.	c #D59474",
"B.	c #CE8D6E",
"C.	c #E6A483",
"D.	c #B7775A",
"E.	c #B86775",
"F.	c #C56E86",
"G.	c #8B474A",
"H.	c #805D5D",
"I.	c #C7ABBD",
"J.	c #894644",
"K.	c #96574A",
"L.	c #A96747",
"M.	c #AA6848",
"N.	c #AC6A4A",
"O.	c #A05F42",
"P.	c #894548",
"Q.	c #844242",
"R.	c #D5B2DF",
"S.	c #EAB9EF",
"T.	c #CEB0DB",
"U.	c #CFB0DB",
"V.	c #835555",
"W.	c #895C5C",
"X.	c #A48989",
"Y.	c #B19999",
"Z.	c #887D7D",
"`.	c #624742",
" +	c #7A7B7B",
".+	c #E6B8EC",
"++	c #D6B2E0",
"@+	c #EEBBF2",
"#+	c #E2B6E9",
"$+	c #B5B5CF",
"%+	c #B3B3B3",
"&+	c #858585",
"*+	c #C0A0A0",
"=+	c #E70000",
"-+	c #D30000",
";+	c #8B0000",
">+	c #A76648",
",+	c #9CA39A",
"'+	c #C5ADD5",
")+	c #FBBFFC",
"!+	c #CCAFD9",
"~+	c #E4B7EA",
"{+	c #B7B7B7",
"]+	c #868686",
"^+	c #BEADAD",
"/+	c #CD0000",
"(+	c #AB0000",
"_+	c #840000",
":+	c #9A4D36",
"<+	c #C88768",
"[+	c #8CA399",
"}+	c #CEAFDB",
"|+	c #D4B2DF",
"1+	c #DBB4E4",
"2+	c #849D9D",
"3+	c #E0E0E0",
"4+	c #525252",
"5+	c #A13B3B",
"6+	c #E10000",
"7+	c #DF0000",
"8+	c #8E0000",
"9+	c #8A2617",
"0+	c #946048",
"a+	c #79716F",
"b+	c #CECECE",
"c+	c #D8D8D8",
"d+	c #96A0A0",
"e+	c #CAAED8",
"f+	c #586F6F",
"g+	c #939393",
"h+	c #D55E5E",
"i+	c #E12626",
"j+	c #840A0A",
"k+	c #703333",
"l+	c #6E6E6E",
"m+	c #D4D4D4",
"n+	c #D6D6D6",
"o+	c #989898",
"p+	c #BCB2D5",
"q+	c #92A3A3",
"r+	c #909090",
"s+	c #E78A8A",
"t+	c #DB7070",
"u+	c #976161",
"v+	c #8C6464",
"w+	c #646464",
"x+	c #545454",
"y+	c #6C6C6C",
"z+	c #C7C7C7",
"A+	c #D3D3D3",
"B+	c #A4A4A4",
"C+	c #CFB0DC",
"D+	c #D7B3E1",
"E+	c #B9A8A8",
"F+	c #A18B8B",
"G+	c #B7B6D4",
"H+	c #9A797D",
"I+	c #9E5F70",
"J+	c #695B5B",
"K+	c #C2C2C2",
"L+	c #7E7E7E",
"M+	c #666666",
"N+	c #E8B8EE",
"O+	c #FDC0FE",
"P+	c #E8B8ED",
"Q+	c #846565",
"R+	c #B8657A",
"S+	c #D3B6BE",
"T+	c #494949",
"U+	c #6B3E3E",
"V+	c #820808",
"W+	c #830D0D",
"X+	c #8FACC1",
"Y+	c #A4A6A6",
"Z+	c #7C7B7B",
"`+	c #474141",
" @	c #DEDEDE",
".@	c #847F7F",
"+@	c #861B1B",
"@@	c #840909",
"#@	c #830000",
"$@	c #D5B2E0",
"%@	c #EBBAF0",
"&@	c #E3B7EA",
"*@	c #C2C0D2",
"=@	c #B8B8B8",
"-@	c #B8B9B9",
";@	c #DCC2C2",
">@	c #C20000",
",@	c #848484",
"'@	c #CFCFCF",
")@	c #AE8080",
"!@	c #8C0000",
"~@	c #FAC2FD",
"{@	c #DDDDDD",
"]@	c #E7ACAC",
"^@	c #D89595",
"/@	c #A49090",
"(@	c #BFBFBF",
"_@	c #A16C6C",
":@	c #A80000",
"<@	c #828282",
"[@	c #AEAEAE",
"}@	c #D78585",
"|@	c #C70000",
"1@	c #D2B1DD",
"2@	c #B4B4B4",
"3@	c #AC0000",
"4@	c #E74F3E",
"5@	c #E7644F",
"6@	c #D73F3F",
"7@	c #D14848",
"8@	c #777A7A",
"9@	c #D1B1DD",
"0@	c #B7BFD5",
"a@	c #D7D7D7",
"b@	c #D5B9B9",
"c@	c #DE3030",
"d@	c #A5ACC8",
"e@	c #2C0000",
"f@	c #8B110B",
"g@	c #8B1811",
"h@	c #D9B3E2",
"i@	c #DCDCDC",
"j@	c #E73939",
"k@	c #E72E2E",
"l@	c #A50000",
"m@	c #1C0000",
"n@	c #D7B2E1",
"o@	c #EFBBF3",
"p@	c #E5B7EC",
"q@	c #693C3C",
"r@	c #780000",
"s@	c #786363",
"t@	c #BC0000",
"u@	c #390000",
"v@	c #C4ACD3",
"w@	c #CBAFD9",
"  . . . + @ + . . . # $ @ % . . . . . . . & $ @ % . . . * @ = ",
"- ; > . , ' ) . . ! ~ $ @ { ] ^ / ( _ : . < [ ' } . . . * @ = ",
"- | 1 . . . 2 3 4 5 6 7 8 9 0 a b c d e . . . . . . . . f g h ",
"- | 1 . . . . . i j k l m n o p q r s t u . . . . . . . v w & ",
"- x } . . . . y z A B C D o o z E F G H I J . . . . . . . . . ",
"- . . . . . K L M N O o o P Q R o S T U I V . . . . . . . . . ",
"- . . . . . . W X Y Z `  ...+.@.#.$.%.&.*.V . . . . . . . . . ",
"- . . . . . . . =.-.;.>.,.'.).!.~.{.].^.>.V . . . . . . . . . ",
"- . . . . . . . /.(._.:.<.[.).}.|.1.2.3.>.V . . . . . . . . w ",
"- . . . . . . . . 4.5.6.7.8.).}.9.0.o m a.b.. . . . . . . . % ",
"- c.> . . . . . . d.e.f.g.h.i.j.k.l.m.9.a.n.. . . . . . . . 1 ",
"- | 1 . . . . . . . o.p.q.r.s.t.u.v.w.9.x.. . . . . . . . . 1 ",
"- | 1 . . . . . . . y.z.r A.B.C.D.E.F.G.H.. . . . . . . . . 1 ",
"- | 1 . . . . . . . I.J.K.L.M.N.O.P.P.Q.. . . . . . . . R.* } ",
"- S.T.. U.> . . . . # V.W.X.Y.Z.`.H. +.+. < ++# . . . . * @+. ",
"- # < . h #+. . . $+%+&+*+=+-+;+>+,+< '+. # )+!+. . . . * @+. ",
"- . . . + ~+. . . {+).]+^+/+(+_+:+<+[+. . & $ !+. . . . }+|+. ",
"- . . . * 1+. . 2+3+h.4+5+6+7+8+9+0+a+b+c+d+@+e+. . . . . . . ",
"- . . . v < . . f+g+h+i+=+=+=+6+j+k+l+m+).n+o+. . . . . . . . ",
"- . . . . . . . p+. q+r+s+s+t+u+v+w+x+y+z+A+B+. . . . . . . . ",
"- . . . C+D+C+. . . . . . E+F+G+H+I+J+K+l+L+M+D+w . . . . . . ",
"- . . . N+O+P+. . . . . . Q+. . . R+S+r+x+T+U+V+W+X+. . . . . ",
"- . . . + @ + . . . '+Y+Z+`+. . . . .  @.@+@@@_+#@. . . $@%@&@",
"- . . . + @ *@=@. . # -@;@>@. . . . . . ,@'@)@!@#@. . . * @ = ",
"- . . . + ~@{@]@]@^@/@(@_@:@. . . . . . <@[@}@|@#@. . . * @ = ",
"  h > . 1@1+2@3@4@5@6@7@_+_+8@. . . 9@0@a@b@c@=+#@. . . * @ = ",
"  | 1 . . d@|.e@f@g@;+;+_+_+_+. . . h@i@j@k@=+l@m@. . . n@o@p@",
"  | 1 . . . . . . . q@r@r@r@s@. . . h@g+-+t@r@u@. . . . v@v < ",
"  f } . . . . . . . . . . . . . . . w@++. . . . . . . . . . . ",
"- . . . . . . . . . . . . . . . . . . . . . . . . . . . . . . ",
"- . . . . . . . . . . . . . . . . . . . . . . . . . . . . . . "};
