/* XPM */
static char * perso_xpm[] = {
"31 31 485 2",
"  	c #C3ACD3",
". 	c #E9B9EE",
"+ 	c #FFC1FF",
"@ 	c #C6ADD5",
"# 	c #FDC0FD",
"$ 	c #D2B1DE",
"% 	c #C7ADD6",
"& 	c #DFB5E7",
"* 	c #F3BCF6",
"= 	c #E5B7EB",
"- 	c #CDAFDA",
"; 	c #D3B1DF",
"> 	c #DEB5E6",
", 	c #CEA8D3",
"' 	c #AA2949",
") 	c #A0233D",
"! 	c #89131A",
"~ 	c #C19AC1",
"{ 	c #B35172",
"] 	c #C4ACD4",
"^ 	c #DDB5E5",
"/ 	c #C9AED7",
"( 	c #DE87BC",
"_ 	c #CF9ECA",
": 	c #F8BEFA",
"< 	c #D3B1DE",
"[ 	c #CAA9D2",
"} 	c #E770AE",
"| 	c #8D0716",
"1 	c #AB2845",
"2 	c #C46961",
"3 	c #D88B75",
"4 	c #CF213F",
"5 	c #BF203A",
"6 	c #97203A",
"7 	c #B02D54",
"8 	c #B32F57",
"9 	c #C1A4CB",
"0 	c #D2A5D2",
"a 	c #EEB8D9",
"b 	c #EBB4CA",
"c 	c #EA6BAA",
"d 	c #CE9FCA",
"e 	c #D8B3E2",
"f 	c #F1BCF4",
"g 	c #E7B8ED",
"h 	c #CAA4CE",
"i 	c #D871A6",
"j 	c #AF1E38",
"k 	c #AA2244",
"l 	c #C36961",
"m 	c #EEAA88",
"n 	c #DD9379",
"o 	c #D76189",
"p 	c #EE6CAF",
"q 	c #EE6FB3",
"r 	c #EE67AB",
"s 	c #EE66AA",
"t 	c #C34979",
"u 	c #EEA2D3",
"v 	c #EEBDD6",
"w 	c #D85A94",
"x 	c #C784AD",
"y 	c #C6A9D1",
"z 	c #C5ADD4",
"A 	c #C8ADD6",
"B 	c #DAB4E3",
"C 	c #CBA2CD",
"D 	c #E47CB5",
"E 	c #C5345A",
"F 	c #CE0000",
"G 	c #EEA68B",
"H 	c #EE9695",
"I 	c #EE87A7",
"J 	c #EE81C4",
"K 	c #EE88CC",
"L 	c #EE76BA",
"M 	c #EE86C9",
"N 	c #EE7DC1",
"O 	c #EE73B6",
"P 	c #E25C9B",
"Q 	c #C99BC4",
"R 	c #DA8FC0",
"S 	c #D65691",
"T 	c #E52441",
"U 	c #9A0000",
"V 	c #EE8F99",
"W 	c #EE869E",
"X 	c #EE70B4",
"Y 	c #EE83C6",
"Z 	c #EE78BB",
"` 	c #EE86CA",
" .	c #E871B2",
"..	c #D14F86",
"+.	c #C26E95",
"@.	c #C0A1C7",
"#.	c #BE9ABF",
"$.	c #D46E9F",
"%.	c #B83F6D",
"&.	c #DA0000",
"*.	c #D6538C",
"=.	c #EE69AD",
"-.	c #EE7CBF",
";.	c #EE72B5",
">.	c #EE70B3",
",.	c #B76196",
"'.	c #C45C8E",
").	c #C95D90",
"!.	c #EE85C8",
"~.	c #E962A3",
"{.	c #D65E97",
"].	c #D6619A",
"^.	c #CB92BC",
"/.	c #BA8DAF",
"(.	c #CF4D83",
"_.	c #DB528A",
":.	c #EE7FC3",
"<.	c #EECCDC",
"[.	c #DF77B4",
"}.	c #D85C96",
"|.	c #B74D82",
"1.	c #8F2545",
"2.	c #A78B8E",
"3.	c #AA9496",
"4.	c #C65384",
"5.	c #EE6AAE",
"6.	c #D95C97",
"7.	c #C28EB5",
"8.	c #E761A2",
"9.	c #B22F53",
"0.	c #E65FA0",
"a.	c #EE9BD1",
"b.	c #EB85C7",
"c.	c #B56093",
"d.	c #40162B",
"e.	c #958A8B",
"f.	c #DEDDDD",
"g.	c #E5E5E5",
"h.	c #6E2442",
"i.	c #E25D9C",
"j.	c #B7345E",
"k.	c #BB799C",
"l.	c #C2A8CE",
"m.	c #EC65A8",
"n.	c #D971AB",
"o.	c #AA2649",
"p.	c #6B1228",
"q.	c #CFCFCF",
"r.	c #EEEEEE",
"s.	c #3E0816",
"t.	c #B25D7D",
"u.	c #C2AAD0",
"v.	c #C3ABD2",
"w.	c #E5B8EC",
"x.	c #EA63A5",
"y.	c #EC7CBE",
"z.	c #EB64A7",
"A.	c #EED6DF",
"B.	c #5F3F54",
"C.	c #E093CA",
"D.	c #C0AAD0",
"E.	c #BC94B8",
"F.	c #CA5A8A",
"G.	c #E963A5",
"H.	c #B5315A",
"I.	c #EE6BAF",
"J.	c #D86BA5",
"K.	c #C84679",
"L.	c #E2629B",
"M.	c #EBC7D7",
"N.	c #EEECED",
"O.	c #A8938C",
"P.	c #AFA19B",
"Q.	c #9B90A3",
"R.	c #B780A1",
"S.	c #D8548E",
"T.	c #DA5692",
"U.	c #D8548F",
"V.	c #AA3544",
"W.	c #BB6F58",
"X.	c #E490A8",
"Y.	c #EED3D0",
"Z.	c #EEDAD3",
"`.	c #ECA886",
" +	c #C9907C",
".+	c #9E8CAA",
"++	c #EE69AC",
"@+	c #C54374",
"#+	c #AA4D44",
"$+	c #D79574",
"%+	c #CD876B",
"&+	c #CE8C6B",
"*+	c #B17C7C",
"=+	c #D5B2DF",
"-+	c #EAB9EF",
";+	c #CEB0DB",
">+	c #CFB0DB",
",+	c #BF3D6B",
"'+	c #CF4C83",
")+	c #E05B99",
"!+	c #A13539",
"~+	c #B97456",
"{+	c #CA8867",
"]+	c #A4593D",
"^+	c #CA8767",
"/+	c #BA94AB",
"(+	c #C99FC0",
"_+	c #EEBBF2",
":+	c #E2B6E9",
"<+	c #BBA6C9",
"[+	c #9C94A3",
"}+	c #A3939C",
"|+	c #AA616C",
"1+	c #BC3A66",
"2+	c #AD274B",
"3+	c #743F4B",
"4+	c #8C4C67",
"5+	c #7E575C",
"6+	c #9A8485",
"7+	c #998683",
"8+	c #B395AB",
"9+	c #BE9CB9",
"0+	c #BC9CB8",
"a+	c #C4ADD2",
"b+	c #D2BED2",
"c+	c #D5CDD8",
"d+	c #BAABC5",
"e+	c #DAAFE0",
"f+	c #726C76",
"g+	c #949494",
"h+	c #A7A7A7",
"i+	c #D1906F",
"j+	c #BB483C",
"k+	c #7F1919",
"l+	c #AC2929",
"m+	c #E24343",
"n+	c #E24141",
"o+	c #CB99BA",
"p+	c #E78F60",
"q+	c #E8C7B2",
"r+	c #E7D1BD",
"s+	c #EAEAEA",
"t+	c #CCCACE",
"u+	c #BCABC7",
"v+	c #CEAFDB",
"w+	c #D4B2DF",
"x+	c #D0ABD8",
"y+	c #5B5B5B",
"z+	c #898989",
"A+	c #C28A68",
"B+	c #ED8915",
"C+	c #EC8607",
"D+	c #B46940",
"E+	c #AA2344",
"F+	c #8C2113",
"G+	c #BB7858",
"H+	c #D79272",
"I+	c #D1482E",
"J+	c #BB0000",
"K+	c #B796B9",
"L+	c #E78F5F",
"M+	c #EE8800",
"N+	c #EED0B3",
"O+	c #EEE6DE",
"P+	c #EEDAC9",
"Q+	c #EDEDED",
"R+	c #C7C6C7",
"S+	c #BDACCA",
"T+	c #BAA4C9",
"U+	c #595959",
"V+	c #848484",
"W+	c #C2AA95",
"X+	c #EEC8A4",
"Y+	c #BE8868",
"Z+	c #E3A07E",
"`+	c #890604",
" @	c #8C2013",
".@	c #AA6241",
"+@	c #C88161",
"@@	c #EAA684",
"#@	c #C98666",
"$@	c #B06D4C",
"%@	c #B47858",
"&@	c #EECBA9",
"*@	c #ECD5C1",
"=@	c #E9E9E9",
"-@	c #A0A0A0",
";@	c #AD99BB",
">@	c #BBA5CA",
",@	c #655D6B",
"'@	c #444444",
")@	c #B46C30",
"!@	c #E28214",
"~@	c #B4724D",
"{@	c #A45E41",
"]@	c #880201",
"^@	c #8C0000",
"/@	c #B90000",
"(@	c #DD3823",
"_@	c #BA5C3D",
":@	c #D48B6B",
"<@	c #C17B4F",
"[@	c #EEB588",
"}@	c #D08855",
"|@	c #929292",
"1@	c #827D85",
"2@	c #B29DC0",
"3@	c #AE94BA",
"4@	c #C297BE",
"5@	c #AB90B4",
"6@	c #5C83A1",
"7@	c #A5929D",
"8@	c #988F9E",
"9@	c #717A84",
"0@	c #865656",
"a@	c #884F4F",
"b@	c #940000",
"c@	c #DB0000",
"d@	c #EE0000",
"e@	c #D5432B",
"f@	c #AA6C58",
"g@	c #9E8C9B",
"h@	c #C3723A",
"i@	c #E6840E",
"j@	c #B37850",
"k@	c #7D7681",
"l@	c #9D8AAA",
"m@	c #000000",
"n@	c #880000",
"o@	c #875068",
"p@	c #839BC5",
"q@	c #749EC8",
"r@	c #697A8A",
"s@	c #6F6F6F",
"t@	c #707070",
"u@	c #987575",
"v@	c #A97575",
"w@	c #DE8989",
"x@	c #EEA5A5",
"y@	c #B49C9C",
"z@	c #86ADCE",
"A@	c #C9885E",
"B@	c #DE9A94",
"C@	c #E79FB1",
"D@	c #B68DB7",
"E@	c #B89CC1",
"F@	c #BDABC9",
"G@	c #B8ABC2",
"H@	c #4A4051",
"I@	c #A50000",
"J@	c #CA0000",
"K@	c #8B3535",
"L@	c #8C8C8C",
"M@	c #8C4C56",
"N@	c #BD5989",
"O@	c #AD7F89",
"P@	c #B9ABC3",
"Q@	c #C0A9BA",
"R@	c #CBA6AB",
"S@	c #E2AEC0",
"T@	c #BF8997",
"U@	c #9E9899",
"V@	c #CACACA",
"W@	c #AB9CB5",
"X@	c #C8AFD1",
"Y@	c #C9C5CC",
"Z@	c #D4D4D4",
"`@	c #B09DB6",
" #	c #EBBAF0",
".#	c #E3B7EA",
"+#	c #720000",
"@#	c #A15A5A",
"##	c #C38F8F",
"$#	c #9A8181",
"%#	c #9F9F9F",
"&#	c #D66797",
"*#	c #C34171",
"=#	c #C89AC3",
"-#	c #C0A3C9",
";#	c #BC92B6",
">#	c #C06A90",
",#	c #A26A76",
"'#	c #A7A4A4",
")#	c #C2C2C2",
"!#	c #918D94",
"~#	c #E8B5E8",
"{#	c #C2BDC4",
"]#	c #E7B1B1",
"^#	c #EE8D8D",
"/#	c #C9BDBD",
"(#	c #7F708A",
"_#	c #1E1921",
":#	c #960000",
"<#	c #CE3F3F",
"[#	c #B1ACAC",
"}#	c #C9C9C9",
"|#	c #969696",
"1#	c #D1D1D1",
"2#	c #C0ABB3",
"3#	c #F2B0EA",
"4#	c #917891",
"5#	c #807A7B",
"6#	c #686868",
"7#	c #8F8F8F",
"8#	c #AEADAE",
"9#	c #E6DAE6",
"0#	c #CBC2CB",
"a#	c #E7B4B4",
"b#	c #EE4747",
"c#	c #A14949",
"d#	c #D1ADD8",
"e#	c #6D5C74",
"f#	c #E90000",
"g#	c #EA0000",
"h#	c #ED7C7C",
"i#	c #D6D6D6",
"j#	c #B9AEC1",
"k#	c #887C91",
"l#	c #EEBAEE",
"m#	c #C0A9CF",
"n#	c #7D6F83",
"o#	c #7F1E1E",
"p#	c #882323",
"q#	c #E44D4D",
"r#	c #C0C0C0",
"s#	c #ECC3C3",
"t#	c #EE3030",
"u#	c #B00000",
"v#	c #410000",
"w#	c #DEB4E6",
"x#	c #F4BBF6",
"y#	c #6D5B73",
"z#	c #E00000",
"A#	c #E54C4C",
"B#	c #DDD6E2",
"C#	c #C5ADD5",
"D#	c #EDBAF1",
"E#	c #EFBBF3",
"F#	c #D9B3E2",
"G#	c #705571",
"H#	c #B40000",
"I#	c #52242F",
"J#	c #B7A2C6",
"K#	c #D7B2E1",
"L#	c #E5B7EC",
"M#	c #A07AA2",
"N#	c #5F0000",
"O#	c #E30000",
"P#	c #E44C4C",
"Q#	c #BFBFBF",
"R#	c #D8D7D9",
"S#	c #B7ABBF",
"T#	c #C5ACD4",
"U#	c #7D0B10",
"V#	c #820000",
"W#	c #673C4C",
"X#	c #AF9ABD",
"Y#	c #C4ACD3",
"Z#	c #8B7292",
"`#	c #C25555",
" $	c #DC6262",
".$	c #AAAAAA",
"+$	c #D7D7D8",
"@$	c #B6ABBF",
"#$	c #CBAFD9",
"$$	c #D6B2E0",
"%$	c #72647B",
"&$	c #760000",
"*$	c #830000",
"=$	c #730000",
"-$	c #724658",
";$	c #A995B7",
">$	c #9F8CAD",
",$	c #97949A",
"'$	c #A8A8A8",
")$	c #B7ABC0",
"!$	c #826E88",
"~$	c #5C0000",
"{$	c #53485A",
"]$	c #A793B5",
"^$	c #B2A1BE",
"/$	c #B7A9C0",
"($	c #BEA8CE",
"_$	c #9583A1",
":$	c #A894B6",
"        . + .       @ # + $               % # + $       & + * ",
"  = -   ; > ;       @ # + , ' ) ! ! ~ { ' ] ^ > / ( _   & + * ",
"  : <               [ } | 1 2 3 4 5 6 7 8 9 0 a b c d   e f g ",
"  : <             h i j k l m n o p q r s t u v w x y   z A % ",
"  B /           C D E F k m G H I J K L s L M N O P Q         ",
"                R S T U k V W s X Y K K Z `  .....+.@.        ",
"              #.$.%.&.U *.=.-.-.;.>.,.'.).!.~.{.].^.          ",
"              /.(.%.&._.:.<.K [.}.|.1.2.3.4.s 5.6.7.          ",
"              /.(.8.9.0.K a.K b.c.d.e.f.g.h.i.j.k.l.        A ",
"              /.(.s m.s r K K n.o.p.q.r.r.s.t.u.v.          $ ",
"  w.-         /.(.s s x.s ` K y.z.s A.r.r.B.C.D.            < ",
"  : <         E.F.G.s H.s I.` J.K.L.M.N.r.O.P.Q.            < ",
"  : <           R.S.s H.T.I.J U.V.W.X.Y.Z.`. +.+            < ",
"  : <           R.S.s H.k ++ .@+#+$+m %+m &+*+          =+& / ",
"  -+;+  >+-     R.,+0.H.k '+)+k !+~+{+]+^+/+(+@         & _+  ",
"  @ ]   g :+<+[+}+|+1+2+k 3+4+5+6+7+8+9+0+a+b+c+d+      & _+  ",
"        . e+f+g+h+i+j+k k k+k+l+m+n+o+  p+q+r+s+t+u+    v+w+  ",
"        & x+y+z+A+B+C+D+E+F+G+H+I+J+K+L+M+N+O+P+Q+R+S+        ",
"        z T+U+V+W+X+Y+Z+`+ @.@+@@@#@$@$@$@%@&@*@=@-@;@        ",
"          >@,@'@)@!@~@{@]@^@/@(@_@:@Z+Z+Z+<@[@}@|@1@2@        ",
"        3@4@5@6@7@8@9@0@a@b@c@d@d@e@f@g@h@M+i@j@k@;@          ",
"      l@m@n@o@p@p@q@r@s@t@u@v@w@x@x@y@z@A@B@C@D@E@F@G@G@      ",
"      H@m@n@n@I@J@K@L@M@N@O@P@Q@R@S@T@U@V@W@# + X@Y@Z@Z@`@ #.#",
"      H@+#n@n@@###$#%#&#*#=#  -#;#>#,#'#)#!## ~#{#]#^#/#z++ * ",
"    (#_#n@:#<#[#}#|#1#2#3#$       4#5#6#7#8#9#0#a#b#d@c#d#+ * ",
"  g e#m@f#g#h#i#j#k#V+l#+ $       m#n#o#p#q#r#s#t#d@u#v#w#+ * ",
"  x#y#z#d@A#r#B#    C#D#E#v+        F#G#n@n@n@H#g#H#I#J#K#E#L#",
"  M#N#O#P#Q#R#S#      T#z           F#* U#n@n@n@V#W#X#  Y#z ] ",
"  Z#`# $.$+$@$                      #$$$%$&$*$=$-$;$          ",
"  >$,$'$.$)$                              !$~${$]$            ",
"    ^$/$G@                                ($_$:$              "};
