/* XPM */
static char * perso_right_right_xpm[] = {
"31 31 333 2",
"  	c #C6A8D1",
". 	c #C3ACD3",
"+ 	c #E9B9EE",
"@ 	c #FFC1FF",
"# 	c #C6ADD5",
"$ 	c #FDC0FD",
"% 	c #D2B1DE",
"& 	c #C7ADD6",
"* 	c #DFB5E7",
"= 	c #F3BCF6",
"- 	c #BFA8CF",
"; 	c #E5B7EB",
"> 	c #CDAFDA",
", 	c #D3B1DF",
"' 	c #DEB5E6",
") 	c #8B3933",
"! 	c #920303",
"~ 	c #950000",
"{ 	c #900000",
"] 	c #842D2D",
"^ 	c #E1B6E9",
"/ 	c #E583A3",
"( 	c #DE7E9D",
"_ 	c #C9AED7",
": 	c #BDB2D6",
"< 	c #F8BEFA",
"[ 	c #D3B1DE",
"} 	c #EFBBF3",
"| 	c #AC1C16",
"1 	c #B87962",
"2 	c #C88970",
"3 	c #C73A34",
"4 	c #E75368",
"5 	c #D8667C",
"6 	c #B05B71",
"7 	c #B05166",
"8 	c #854343",
"9 	c #C5728A",
"0 	c #B0878F",
"a 	c #D99AB2",
"b 	c #CD8DA8",
"c 	c #B5B6D2",
"d 	c #D8B3E2",
"e 	c #F1BCF4",
"f 	c #E7B8ED",
"g 	c #B6667A",
"h 	c #B33C35",
"i 	c #C28162",
"j 	c #E7A584",
"k 	c #CC8C72",
"l 	c #E787A8",
"m 	c #E7A5C6",
"n 	c #E79EBF",
"o 	c #E789AA",
"p 	c #C66F88",
"q 	c #CF8FAB",
"r 	c #E7ADC5",
"s 	c #E795AF",
"t 	c #C5ADD4",
"u 	c #C8ADD6",
"v 	c #DAB4E3",
"w 	c #C3B8C8",
"x 	c #902733",
"y 	c #894842",
"z 	c #AB6949",
"A 	c #D58288",
"B 	c #E7A1B8",
"C 	c #E7A0C1",
"D 	c #E7A1C2",
"E 	c #E7A1C1",
"F 	c #E7D1DB",
"G 	c #E7A3C3",
"H 	c #D5A3BA",
"I 	c #CE748F",
"J 	c #9E5460",
"K 	c #E786A7",
"L 	c #E79ABB",
"M 	c #E1A1C1",
"N 	c #E2B8CC",
"O 	c #E5C3D2",
"P 	c #E79DBE",
"Q 	c #C26E85",
"R 	c #CF748F",
"S 	c #E3A0C0",
"T 	c #CF97BA",
"U 	c #AF5065",
"V 	c #E796B5",
"W 	c #DCADC4",
"X 	c #DC98B7",
"Y 	c #CC90AD",
"Z 	c #505050",
"` 	c #918787",
" .	c #CE889B",
"..	c #E797B8",
"+.	c #E79CBD",
"@.	c #E78AAB",
"#.	c #E796B7",
"$.	c #BD778D",
"%.	c #C0ABD0",
"&.	c #E784A5",
"*.	c #E7B1CB",
"=.	c #D5C8CE",
"-.	c #AB6D85",
";.	c #513940",
">.	c #9F9F9F",
",.	c #E7E7E7",
"'.	c #D1BAC0",
").	c #B06F84",
"!.	c #BC687E",
"~.	c #D2809C",
"{.	c #E795B6",
"].	c #E794B3",
"^.	c #C99FB4",
"/.	c #604E57",
"(.	c #242424",
"_.	c #ABABAB",
":.	c #ADADAD",
"<.	c #323232",
"[.	c #A35866",
"}.	c #592A2A",
"|.	c #944E56",
"1.	c #A45866",
"2.	c #854344",
"3.	c #E1809F",
"4.	c #E691B2",
"5.	c #98505A",
"6.	c #A8A8A8",
"7.	c #1D1D1D",
"8.	c #E5A3C4",
"9.	c #434343",
"0.	c #626161",
"a.	c #E5B8EC",
"b.	c #806262",
"c.	c #E792B2",
"d.	c #E08FAB",
"e.	c #E59CB2",
"f.	c #A87368",
"g.	c #E3DBD8",
"h.	c #C0C0C0",
"i.	c #A2928C",
"j.	c #B67657",
"k.	c #796F6F",
"l.	c #596666",
"m.	c #BE6980",
"n.	c #E78CAD",
"o.	c #C27B81",
"p.	c #DEC1B6",
"q.	c #E5A382",
"r.	c #CB947C",
"s.	c #C6A597",
"t.	c #E0A589",
"u.	c #E6A584",
"v.	c #9B715F",
"w.	c #805D5D",
"x.	c #8B474A",
"y.	c #C56E86",
"z.	c #B86775",
"A.	c #B7775A",
"B.	c #E6A483",
"C.	c #CE8D6E",
"D.	c #D59474",
"E.	c #BD7C5D",
"F.	c #9B928A",
"G.	c #844242",
"H.	c #894548",
"I.	c #A05F42",
"J.	c #AC6A4A",
"K.	c #AA6848",
"L.	c #A96747",
"M.	c #96574A",
"N.	c #894644",
"O.	c #C7ABBD",
"P.	c #D5B2DF",
"Q.	c #EAB9EF",
"R.	c #CEB0DB",
"S.	c #CFB0DB",
"T.	c #CCAFDA",
"U.	c #7A7B7B",
"V.	c #624742",
"W.	c #887D7D",
"X.	c #B19999",
"Y.	c #A48989",
"Z.	c #895C5C",
"`.	c #835555",
" +	c #C4ACD4",
".+	c #D6B2E0",
"++	c #EEBBF2",
"@+	c #E2B6E9",
"#+	c #9CA39A",
"$+	c #A76648",
"%+	c #8B0000",
"&+	c #D30000",
"*+	c #E70000",
"=+	c #C0A0A0",
"-+	c #858585",
";+	c #B3B3B3",
">+	c #E0C2ED",
",+	c #CCAFD9",
"'+	c #E4B7EA",
")+	c #DBB4E4",
"!+	c #C7ADD5",
"~+	c #8CA399",
"{+	c #C88768",
"]+	c #9A4D36",
"^+	c #840000",
"/+	c #AB0000",
"(+	c #CD0000",
"_+	c #BEADAD",
":+	c #868686",
"<+	c #B7B7B7",
"[+	c #CEAFDB",
"}+	c #D4B2DF",
"|+	c #96A0A0",
"1+	c #D8D8D8",
"2+	c #CECECE",
"3+	c #79716F",
"4+	c #946048",
"5+	c #8A2617",
"6+	c #8E0000",
"7+	c #DF0000",
"8+	c #E10000",
"9+	c #A13B3B",
"0+	c #525252",
"a+	c #E0E0E0",
"b+	c #849D9D",
"c+	c #989898",
"d+	c #D6D6D6",
"e+	c #D4D4D4",
"f+	c #6E6E6E",
"g+	c #703333",
"h+	c #840A0A",
"i+	c #E12626",
"j+	c #D55E5E",
"k+	c #939393",
"l+	c #586F6F",
"m+	c #A4A4A4",
"n+	c #D3D3D3",
"o+	c #C7C7C7",
"p+	c #6C6C6C",
"q+	c #545454",
"r+	c #646464",
"s+	c #8C6464",
"t+	c #976161",
"u+	c #DB7070",
"v+	c #E78A8A",
"w+	c #909090",
"x+	c #92A3A3",
"y+	c #BCB2D5",
"z+	c #CFB0DC",
"A+	c #D7B3E1",
"B+	c #666666",
"C+	c #7E7E7E",
"D+	c #C2C2C2",
"E+	c #695B5B",
"F+	c #9E5F70",
"G+	c #9A797D",
"H+	c #B7B6D4",
"I+	c #A18B8B",
"J+	c #B9A8A8",
"K+	c #D6B2E1",
"L+	c #E8B8EE",
"M+	c #FDC0FE",
"N+	c #ABB2D0",
"O+	c #830D0D",
"P+	c #820808",
"Q+	c #6B3E3E",
"R+	c #494949",
"S+	c #D3B6BE",
"T+	c #B8657A",
"U+	c #846565",
"V+	c #FBC0FC",
"W+	c #D2B1DD",
"X+	c #830000",
"Y+	c #840909",
"Z+	c #861B1B",
"`+	c #847F7F",
" @	c #DEDEDE",
".@	c #474141",
"+@	c #7C7B7B",
"@@	c #A4A6A6",
"#@	c #D5B2E0",
"$@	c #EBBAF0",
"%@	c #E3B7EA",
"&@	c #8C0000",
"*@	c #AE8080",
"=@	c #CFCFCF",
"-@	c #848484",
";@	c #C20000",
">@	c #DCC2C2",
",@	c #B8B9B9",
"'@	c #B8B8B8",
")@	c #B4BCC8",
"!@	c #C70000",
"~@	c #D78585",
"{@	c #AEAEAE",
"]@	c #828282",
"^@	c #A80000",
"/@	c #A16C6C",
"(@	c #BFBFBF",
"_@	c #A49090",
":@	c #D89595",
"<@	c #E7ACAC",
"[@	c #DDDDDD",
"}@	c #C0AED3",
"|@	c #DE3030",
"1@	c #D5B9B9",
"2@	c #D7D7D7",
"3@	c #C7C3DF",
"4@	c #777A7A",
"5@	c #D14848",
"6@	c #D73F3F",
"7@	c #E7644F",
"8@	c #E74F3E",
"9@	c #AC0000",
"0@	c #B4B4B4",
"a@	c #1C0000",
"b@	c #A50000",
"c@	c #E72E2E",
"d@	c #E73939",
"e@	c #DCDCDC",
"f@	c #8B1811",
"g@	c #8B110B",
"h@	c #2C0000",
"i@	c #A5ACC8",
"j@	c #D7B2E1",
"k@	c #E5B7EC",
"l@	c #390000",
"m@	c #780000",
"n@	c #BC0000",
"o@	c #786363",
"p@	c #693C3C",
"q@	c #C4ACD3",
"r@	c #CBAFD9",
"  . . . + @ + . . . # $ @ % . . . . . . . & $ @ % . . . * @ = ",
"- ; > . , ' , . . . # $ @ % ) ! ~ { ] ^ . / ( ' _ : . . * @ = ",
"- < [ . . . . . . . # } | 1 2 3 4 5 6 7 8 9 0 a b c . . d e f ",
"- < [ . . . . . . . . g h i j k l m n o p q r s . . . . t u & ",
"- v _ . . . . . . . w x y z A B C m m D E F G C H . . . . . . ",
"- . . . . . . . . . I x J K L m M N O m m P Q R S T . . . . . ",
"- . . . . . . . . . I U V W X Y Z `  ...+.@.#.$.%.. . . . . . ",
"- . . . . . . . . . I &.*.=.-.;.>.,.'.).&.!.~.{.. . . . . . . ",
"- . . . . . . . . . I &.].^./.(._.,.:.<.[.}.|.1.. . . . . . u ",
"- . . . . . . . . . 2.3.o m 4.5._.,.6.7.8.9.0.. . . . . . . % ",
"- a.> . . . . . . . b.3.5.c.d.e.f.g.h.i.j.k.l.. . . . . . . [ ",
"- < [ . . . . . . . . m.5.n.o.p.q.r.s.t.u.v.. . . . . . . . [ ",
"- < [ . . . . . . . . w.x.y.z.A.B.C.D.j E.F.. . . . . . . . [ ",
"- < [ . . . . . . . t + G.H.H.I.J.K.L.M.N.O.. . . . . . P.* _ ",
"- Q.R.. S.> . . . . # $ T.U.w.V.W.X.Y.Z.`. +.+# . . . . * ++. ",
"- #  +. f @+. . . . # $ T.. #+$+%+&+*+=+-+;+>+,+. . . . * ++. ",
"- . . . + '+. . . .  +)+!+~+{+]+^+/+(+_+:+,.<+,+. . . . [+}+. ",
"- . . . * )+. . . . |+1+2+3+4+5+6+7+8+9+0+h.a+b+. . . . . . . ",
"- . . . t  +. . . c+d+,.e+f+g+h+8+*+*+*+i+j+k+l+. . . . . . . ",
"- . . . . . . . . m+n+o+p+q+r+s+t+u+v+v+w+x+. y+. . . . . . . ",
"- . . . z+A+z+. . B+C+f+D+E+F+G+H+I+J+. .  +K+A+u . . . . . . ",
"- . . . L+M+N+O+P+Q+R+q+w+S+T+. . . U+. . !+V+M+W+. . . . . . ",
"- . . . + @ + X+^+Y+Z+`+ @> . . . . .@+@@@& $ @ % . . . #@$@%@",
"- . . . + @ + X+&@*@=@-@@ % . . . . ;@>@,@& $ @ '@)@. . * @ = ",
"- . . . + @ + X+!@~@{@]@@ % . . . . ^@/@(@_@:@<@<@[@}@. * @ = ",
"  f > . W+)+W+X+*+|@1@2@3@% . . . 4@^+^+5@6@7@8@9@0@. . * @ = ",
"  < [ . . . . a@b@*+c@d@e@[+. . . ^+^+^+%+%+f@g@h@(.i@. j@} k@",
"  < [ . . . . . l@m@n@&+k+. . . . o@m@m@m@p@. . . . . . q@t  +",
"  d _ . . . . . . . . . . . . . . . r@.+. . . . . . . . . . . ",
"- . . . . . . . . . . . . . . . . . . . . . . . . . . . . . . ",
"- . . . . . . . . . . . . . . . . . . . . . . . . . . . . . . "};
