/* XPM */
static char * perso_left_xpm[] = {
"31 31 485 2",
"  	c #F3BCF6",
". 	c #FFC1FF",
"+ 	c #DFB5E7",
"@ 	c #C3ACD3",
"# 	c #D2B1DE",
"$ 	c #FDC0FD",
"% 	c #C7ADD6",
"& 	c #C6ADD5",
"* 	c #E9B9EE",
"= 	c #CF9ECA",
"- 	c #DE87BC",
"; 	c #C9AED7",
"> 	c #DEB5E6",
", 	c #DDB5E5",
"' 	c #C4ACD4",
") 	c #AA2949",
"! 	c #B35172",
"~ 	c #C19AC1",
"{ 	c #89131A",
"] 	c #A0233D",
"^ 	c #CEA8D3",
"/ 	c #D3B1DF",
"( 	c #CDAFDA",
"_ 	c #E5B7EB",
": 	c #E7B8ED",
"< 	c #F1BCF4",
"[ 	c #D8B3E2",
"} 	c #CE9FCA",
"| 	c #EA6BAA",
"1 	c #EBB4CA",
"2 	c #EEB8D9",
"3 	c #D2A5D2",
"4 	c #C1A4CB",
"5 	c #B32F57",
"6 	c #B02D54",
"7 	c #97203A",
"8 	c #BF203A",
"9 	c #CF213F",
"0 	c #D88B75",
"a 	c #C46961",
"b 	c #AB2845",
"c 	c #8D0716",
"d 	c #E770AE",
"e 	c #CAA9D2",
"f 	c #D3B1DE",
"g 	c #F8BEFA",
"h 	c #C8ADD6",
"i 	c #C5ADD4",
"j 	c #C6A9D1",
"k 	c #C784AD",
"l 	c #D85A94",
"m 	c #EEBDD6",
"n 	c #EEA2D3",
"o 	c #C34979",
"p 	c #EE66AA",
"q 	c #EE67AB",
"r 	c #EE6FB3",
"s 	c #EE6CAF",
"t 	c #D76189",
"u 	c #DD9379",
"v 	c #EEAA88",
"w 	c #C36961",
"x 	c #AA2244",
"y 	c #AF1E38",
"z 	c #D871A6",
"A 	c #CAA4CE",
"B 	c #C99BC4",
"C 	c #E25C9B",
"D 	c #EE73B6",
"E 	c #EE7DC1",
"F 	c #EE86C9",
"G 	c #EE76BA",
"H 	c #EE88CC",
"I 	c #EE81C4",
"J 	c #EE87A7",
"K 	c #EE9695",
"L 	c #EEA68B",
"M 	c #CE0000",
"N 	c #C5345A",
"O 	c #E47CB5",
"P 	c #CBA2CD",
"Q 	c #DAB4E3",
"R 	c #C0A1C7",
"S 	c #C26E95",
"T 	c #D14F86",
"U 	c #E871B2",
"V 	c #EE86CA",
"W 	c #EE78BB",
"X 	c #EE83C6",
"Y 	c #EE70B4",
"Z 	c #EE869E",
"` 	c #EE8F99",
" .	c #9A0000",
"..	c #E52441",
"+.	c #D65691",
"@.	c #DA8FC0",
"#.	c #CB92BC",
"$.	c #D6619A",
"%.	c #D65E97",
"&.	c #E962A3",
"*.	c #EE85C8",
"=.	c #C95D90",
"-.	c #C45C8E",
";.	c #B76196",
">.	c #EE70B3",
",.	c #EE72B5",
"'.	c #EE7CBF",
").	c #EE69AD",
"!.	c #D6538C",
"~.	c #DA0000",
"{.	c #B83F6D",
"].	c #D46E9F",
"^.	c #BE9ABF",
"/.	c #C28EB5",
"(.	c #D95C97",
"_.	c #EE6AAE",
":.	c #C65384",
"<.	c #AA9496",
"[.	c #A78B8E",
"}.	c #8F2545",
"|.	c #B74D82",
"1.	c #D85C96",
"2.	c #DF77B4",
"3.	c #EECCDC",
"4.	c #EE7FC3",
"5.	c #DB528A",
"6.	c #CF4D83",
"7.	c #BA8DAF",
"8.	c #C2A8CE",
"9.	c #BB799C",
"0.	c #B7345E",
"a.	c #E25D9C",
"b.	c #6E2442",
"c.	c #E5E5E5",
"d.	c #DEDDDD",
"e.	c #958A8B",
"f.	c #40162B",
"g.	c #B56093",
"h.	c #EB85C7",
"i.	c #EE9BD1",
"j.	c #E65FA0",
"k.	c #B22F53",
"l.	c #E761A2",
"m.	c #C3ABD2",
"n.	c #C2AAD0",
"o.	c #B25D7D",
"p.	c #3E0816",
"q.	c #EEEEEE",
"r.	c #CFCFCF",
"s.	c #6B1228",
"t.	c #AA2649",
"u.	c #D971AB",
"v.	c #EC65A8",
"w.	c #C0AAD0",
"x.	c #E093CA",
"y.	c #5F3F54",
"z.	c #EED6DF",
"A.	c #EB64A7",
"B.	c #EC7CBE",
"C.	c #EA63A5",
"D.	c #E5B8EC",
"E.	c #9B90A3",
"F.	c #AFA19B",
"G.	c #A8938C",
"H.	c #EEECED",
"I.	c #EBC7D7",
"J.	c #E2629B",
"K.	c #C84679",
"L.	c #D86BA5",
"M.	c #EE6BAF",
"N.	c #B5315A",
"O.	c #E963A5",
"P.	c #CA5A8A",
"Q.	c #BC94B8",
"R.	c #9E8CAA",
"S.	c #C9907C",
"T.	c #ECA886",
"U.	c #EEDAD3",
"V.	c #EED3D0",
"W.	c #E490A8",
"X.	c #BB6F58",
"Y.	c #AA3544",
"Z.	c #D8548F",
"`.	c #DA5692",
" +	c #D8548E",
".+	c #B780A1",
"++	c #D5B2DF",
"@+	c #B17C7C",
"#+	c #CE8C6B",
"$+	c #CD876B",
"%+	c #D79574",
"&+	c #AA4D44",
"*+	c #C54374",
"=+	c #EE69AC",
"-+	c #EEBBF2",
";+	c #C99FC0",
">+	c #BA94AB",
",+	c #CA8767",
"'+	c #A4593D",
")+	c #CA8867",
"!+	c #B97456",
"~+	c #A13539",
"{+	c #E05B99",
"]+	c #CF4C83",
"^+	c #BF3D6B",
"/+	c #CFB0DB",
"(+	c #CEB0DB",
"_+	c #EAB9EF",
":+	c #BAABC5",
"<+	c #D5CDD8",
"[+	c #D2BED2",
"}+	c #C4ADD2",
"|+	c #BC9CB8",
"1+	c #BE9CB9",
"2+	c #B395AB",
"3+	c #998683",
"4+	c #9A8485",
"5+	c #7E575C",
"6+	c #8C4C67",
"7+	c #743F4B",
"8+	c #AD274B",
"9+	c #BC3A66",
"0+	c #AA616C",
"a+	c #A3939C",
"b+	c #9C94A3",
"c+	c #BBA6C9",
"d+	c #E2B6E9",
"e+	c #D4B2DF",
"f+	c #CEAFDB",
"g+	c #BCABC7",
"h+	c #CCCACE",
"i+	c #EAEAEA",
"j+	c #E7D1BD",
"k+	c #E8C7B2",
"l+	c #E78F60",
"m+	c #CB99BA",
"n+	c #E24141",
"o+	c #E24343",
"p+	c #AC2929",
"q+	c #7F1919",
"r+	c #BB483C",
"s+	c #D1906F",
"t+	c #A7A7A7",
"u+	c #949494",
"v+	c #726C76",
"w+	c #DAAFE0",
"x+	c #BDACCA",
"y+	c #C7C6C7",
"z+	c #EDEDED",
"A+	c #EEDAC9",
"B+	c #EEE6DE",
"C+	c #EED0B3",
"D+	c #EE8800",
"E+	c #E78F5F",
"F+	c #B796B9",
"G+	c #BB0000",
"H+	c #D1482E",
"I+	c #D79272",
"J+	c #BB7858",
"K+	c #8C2113",
"L+	c #AA2344",
"M+	c #B46940",
"N+	c #EC8607",
"O+	c #ED8915",
"P+	c #C28A68",
"Q+	c #898989",
"R+	c #5B5B5B",
"S+	c #D0ABD8",
"T+	c #AD99BB",
"U+	c #A0A0A0",
"V+	c #E9E9E9",
"W+	c #ECD5C1",
"X+	c #EECBA9",
"Y+	c #B47858",
"Z+	c #B06D4C",
"`+	c #C98666",
" @	c #EAA684",
".@	c #C88161",
"+@	c #AA6241",
"@@	c #8C2013",
"#@	c #890604",
"$@	c #E3A07E",
"%@	c #BE8868",
"&@	c #EEC8A4",
"*@	c #C2AA95",
"=@	c #848484",
"-@	c #595959",
";@	c #BAA4C9",
">@	c #B29DC0",
",@	c #827D85",
"'@	c #929292",
")@	c #D08855",
"!@	c #EEB588",
"~@	c #C17B4F",
"{@	c #D48B6B",
"]@	c #BA5C3D",
"^@	c #DD3823",
"/@	c #B90000",
"(@	c #8C0000",
"_@	c #880201",
":@	c #A45E41",
"<@	c #B4724D",
"[@	c #E28214",
"}@	c #B46C30",
"|@	c #444444",
"1@	c #655D6B",
"2@	c #BBA5CA",
"3@	c #7D7681",
"4@	c #B37850",
"5@	c #E6840E",
"6@	c #C3723A",
"7@	c #9E8C9B",
"8@	c #AA6C58",
"9@	c #D5432B",
"0@	c #EE0000",
"a@	c #DB0000",
"b@	c #940000",
"c@	c #884F4F",
"d@	c #865656",
"e@	c #717A84",
"f@	c #988F9E",
"g@	c #A5929D",
"h@	c #5C83A1",
"i@	c #AB90B4",
"j@	c #C297BE",
"k@	c #AE94BA",
"l@	c #B8ABC2",
"m@	c #BDABC9",
"n@	c #B89CC1",
"o@	c #B68DB7",
"p@	c #E79FB1",
"q@	c #DE9A94",
"r@	c #C9885E",
"s@	c #86ADCE",
"t@	c #B49C9C",
"u@	c #EEA5A5",
"v@	c #DE8989",
"w@	c #A97575",
"x@	c #987575",
"y@	c #707070",
"z@	c #6F6F6F",
"A@	c #697A8A",
"B@	c #749EC8",
"C@	c #839BC5",
"D@	c #875068",
"E@	c #880000",
"F@	c #000000",
"G@	c #9D8AAA",
"H@	c #E3B7EA",
"I@	c #EBBAF0",
"J@	c #B09DB6",
"K@	c #D4D4D4",
"L@	c #C9C5CC",
"M@	c #C8AFD1",
"N@	c #AB9CB5",
"O@	c #CACACA",
"P@	c #9E9899",
"Q@	c #BF8997",
"R@	c #E2AEC0",
"S@	c #CBA6AB",
"T@	c #C0A9BA",
"U@	c #B9ABC3",
"V@	c #AD7F89",
"W@	c #BD5989",
"X@	c #8C4C56",
"Y@	c #8C8C8C",
"Z@	c #8B3535",
"`@	c #CA0000",
" #	c #A50000",
".#	c #4A4051",
"+#	c #C9BDBD",
"@#	c #EE8D8D",
"##	c #E7B1B1",
"$#	c #C2BDC4",
"%#	c #E8B5E8",
"&#	c #918D94",
"*#	c #C2C2C2",
"=#	c #A7A4A4",
"-#	c #A26A76",
";#	c #C06A90",
">#	c #BC92B6",
",#	c #C0A3C9",
"'#	c #C89AC3",
")#	c #C34171",
"!#	c #D66797",
"~#	c #9F9F9F",
"{#	c #9A8181",
"]#	c #C38F8F",
"^#	c #A15A5A",
"/#	c #720000",
"(#	c #D1ADD8",
"_#	c #A14949",
":#	c #EE4747",
"<#	c #E7B4B4",
"[#	c #CBC2CB",
"}#	c #E6DAE6",
"|#	c #AEADAE",
"1#	c #8F8F8F",
"2#	c #686868",
"3#	c #807A7B",
"4#	c #917891",
"5#	c #F2B0EA",
"6#	c #C0ABB3",
"7#	c #D1D1D1",
"8#	c #969696",
"9#	c #C9C9C9",
"0#	c #B1ACAC",
"a#	c #CE3F3F",
"b#	c #960000",
"c#	c #1E1921",
"d#	c #7F708A",
"e#	c #DEB4E6",
"f#	c #410000",
"g#	c #B00000",
"h#	c #EE3030",
"i#	c #ECC3C3",
"j#	c #C0C0C0",
"k#	c #E44D4D",
"l#	c #882323",
"m#	c #7F1E1E",
"n#	c #7D6F83",
"o#	c #C0A9CF",
"p#	c #EEBAEE",
"q#	c #887C91",
"r#	c #B9AEC1",
"s#	c #D6D6D6",
"t#	c #ED7C7C",
"u#	c #EA0000",
"v#	c #E90000",
"w#	c #6D5C74",
"x#	c #E5B7EC",
"y#	c #EFBBF3",
"z#	c #D7B2E1",
"A#	c #B7A2C6",
"B#	c #52242F",
"C#	c #B40000",
"D#	c #705571",
"E#	c #D9B3E2",
"F#	c #EDBAF1",
"G#	c #C5ADD5",
"H#	c #DDD6E2",
"I#	c #E54C4C",
"J#	c #E00000",
"K#	c #6D5B73",
"L#	c #F4BBF6",
"M#	c #C4ACD3",
"N#	c #AF9ABD",
"O#	c #673C4C",
"P#	c #820000",
"Q#	c #7D0B10",
"R#	c #C5ACD4",
"S#	c #B7ABBF",
"T#	c #D8D7D9",
"U#	c #BFBFBF",
"V#	c #E44C4C",
"W#	c #E30000",
"X#	c #5F0000",
"Y#	c #A07AA2",
"Z#	c #A995B7",
"`#	c #724658",
" $	c #730000",
".$	c #830000",
"+$	c #760000",
"@$	c #72647B",
"#$	c #D6B2E0",
"$$	c #CBAFD9",
"%$	c #B6ABBF",
"&$	c #D7D7D8",
"*$	c #AAAAAA",
"=$	c #DC6262",
"-$	c #C25555",
";$	c #8B7292",
">$	c #A793B5",
",$	c #53485A",
"'$	c #5C0000",
")$	c #826E88",
"!$	c #B7ABC0",
"~$	c #A8A8A8",
"{$	c #97949A",
"]$	c #9F8CAD",
"^$	c #A894B6",
"/$	c #9583A1",
"($	c #BEA8CE",
"_$	c #B7A9C0",
":$	c #B2A1BE",
"  . + @ @ @ # . $ % @ @ @ @ @ @ @ # . $ & @ @ @ * . * @ @ @ @ ",
"  . + @ = - ; > , ' ) ! ~ { { ] ) ^ . $ & @ @ @ / > / @ ( _ @ ",
": < [ @ } | 1 2 3 4 5 6 7 8 9 0 a b c d e @ @ @ @ @ @ @ f g @ ",
"% h i @ j k l m n o p q r s t u v w x y z A @ @ @ @ @ @ f g @ ",
"@ @ @ @ B C D E F G p G H I J K L v x M N O P @ @ @ @ @ ; Q @ ",
"@ @ @ @ R S T T U V W H H X Y p Z ` x  ...+.@.@ @ @ @ @ @ @ @ ",
"@ @ @ @ @ #.$.%.&.*.=.-.;.>.,.'.'.).!. .~.{.].^.@ @ @ @ @ @ @ ",
"@ @ @ @ @ /.(._.p :.<.[.}.|.1.2.H 3.4.5.~.{.6.7.@ @ @ @ @ @ @ ",
"h @ @ @ @ 8.9.0.a.b.c.d.e.f.g.h.H i.H j.k.l.6.7.@ @ @ @ @ @ @ ",
"# @ @ @ @ @ m.n.o.p.q.q.r.s.t.u.H H q p v.p 6.7.@ @ @ @ @ @ @ ",
"f @ @ @ @ @ @ w.x.y.q.q.z.p A.B.H V p C.p p 6.7.@ @ @ @ ( D.@ ",
"f @ @ @ @ @ @ E.F.G.q.H.I.J.K.L.V M.p N.p O.P.Q.@ @ @ @ f g @ ",
"f @ @ @ @ @ @ R.S.T.U.V.W.X.Y.Z.I M.`.N.p  +.+@ @ @ @ @ f g @ ",
"; + ++@ @ @ @ @ @+#+v $+v %+&+*+U =+x N.p  +.+@ @ @ @ @ f g @ ",
"@ -++ @ @ @ @ & ;+>+,+'+)+!+~+x {+]+x N.j.^+.+@ @ ( /+@ (+_+@ ",
"@ -++ @ @ @ :+<+[+}+|+1+2+3+4+5+6+7+x 8+9+0+a+b+c+d+: @ ' & @ ",
"@ e+f+@ @ g+h+i+j+k+l+@ m+n+o+p+q+q+x x r+s+t+u+v+w+* @ @ @ @ ",
"@ @ @ @ x+y+z+A+B+C+D+E+F+G+H+I+J+K+L+M+N+O+P+Q+R+S++ @ @ @ @ ",
"@ @ @ @ T+U+V+W+X+Y+Z+Z+Z+`+ @.@+@@@#@$@%@&@*@=@-@;@i @ @ @ @ ",
"@ @ @ @ >@,@'@)@!@~@$@$@$@{@]@^@/@(@_@:@<@[@}@|@1@2@@ @ @ @ @ ",
"@ @ @ @ @ T+3@4@5@D+6@7@8@9@0@0@a@b@c@d@e@f@g@h@i@j@k@@ @ @ @ ",
"@ @ @ l@l@m@n@o@p@q@r@s@t@u@u@v@w@x@y@z@A@B@C@C@D@E@F@G@@ @ @ ",
"H@I@J@K@K@L@M@. $ N@O@P@Q@R@S@T@U@V@W@X@Y@Z@`@ #E@E@F@.#@ @ @ ",
"  . Q++#@###$#%#$ &#*#=#-#;#>#,#@ '#)#!#~#{#]#^#E@E@/#.#@ @ @ ",
"  . (#_#0@:#<#[#}#|#1#2#3#4#@ @ @ # 5#6#7#8#9#0#a#b#E@c#d#@ @ ",
"  . e#f#g#0@h#i#j#k#l#m#n#o#@ @ @ # . p#=@q#r#s#t#u#v#F@w#: @ ",
"x#y#z#A#B#C#u#C#E@E@E@D#E#@ @ @ @ f+y#F#G#@ @ H#j#I#0@J#K#L#@ ",
"' i M#@ N#O#P#E@E@E@Q#  E#@ @ @ @ @ i R#@ @ @ S#T#U#V#W#X#Y#@ ",
"@ @ @ @ @ Z#`# $.$+$@$#$$$@ @ @ @ @ @ @ @ @ @ @ %$&$*$=$-$;$@ ",
"@ @ @ @ @ @ >$,$'$)$@ @ @ @ @ @ @ @ @ @ @ @ @ @ @ !$*$~${$]$@ ",
"@ @ @ @ @ @ @ ^$/$($@ @ @ @ @ @ @ @ @ @ @ @ @ @ @ @ l@_$:$@ @ "};
