/* XPM */
static char * perso_down_xpm[] = {
"31 31 69 1",
" 	c #C6A8D1",
".	c #C3ACD3",
"+	c #E9B9EE",
"@	c #FFC1FF",
"#	c #C6ADD5",
"$	c #FDC0FD",
"%	c #D2B1DE",
"&	c #C7ADD6",
"*	c #DFB5E7",
"=	c #F3BCF6",
"-	c #BFA8CF",
";	c #E5B7EB",
">	c #CDAFDA",
",	c #D3B1DF",
"'	c #DEB5E6",
")	c #D0B0DC",
"!	c #E1B6E9",
"~	c #C4ACD4",
"{	c #DDB5E5",
"]	c #C9AED7",
"^	c #F8BEFA",
"/	c #D3B1DE",
"(	c #EFBBF3",
"_	c #F1BCF4",
":	c #844242",
"<	c #E784A5",
"[	c #D8B3E2",
"}	c #E7B8ED",
"|	c #E7A5C6",
"1	c #C5ADD4",
"2	c #C8ADD6",
"3	c #DAB4E3",
"4	c #E70000",
"5	c #E7E7E7",
"6	c #424242",
"7	c #E5B8EC",
"8	c #848484",
"9	c #A56342",
"0	c #000000",
"a	c #D5B2DF",
"b	c #EAB9EF",
"c	c #EEBBF2",
"d	c #CCAFD9",
"e	c #E7A584",
"f	c #CEAFDB",
"g	c #D4B2DF",
"h	c #DBB4E4",
"i	c #CAAED8",
"j	c #840000",
"k	c #E78400",
"l	c #CFB0DC",
"m	c #D7B3E1",
"n	c #E8B8EE",
"o	c #FDC0FE",
"p	c #E8B8ED",
"q	c #A5A5A5",
"r	c #D2B1DD",
"s	c #D5B2E0",
"t	c #EBBAF0",
"u	c #E3B7EA",
"v	c #C5ADD5",
"w	c #EDBAF1",
"x	c #D9B3E2",
"y	c #D7B2E1",
"z	c #E5B7EC",
"A	c #C5ACD4",
"B	c #C4ACD3",
"C	c #CBAFD9",
"D	c #D6B2E0",
" ...+@+...#$@%.......&$@%...*@=",
"-;>.,',...#$@%....)!.~{']...*@=",
"-^/.......#(_:<<<<<:........[_}",
"-^/........:<<||||<<<.......12&",
"-3].......:4444|||||<<.........",
"-.....::::44444444|||<:........",
"-......::<<<|||4444||<:........",
"-.....||<<5|<|||<444|<<:.......",
"-...|||||5||||5|<<|:|<<:......2",
"-....6|||||||<<<<||<:<<:......%",
"-7>.6|<<<|||<<||||||:<<:....../",
"-^/68<::||<<<<<<<699:<<:....../",
"-^685:<|<<<:<<<:006<4<<:....../",
"-^6855<:::::<88550<<4<::....a*]",
"-b68588::::<06555:<<<<::....*c.",
"-#~6886699:806558<<<<::d....*c.",
"-...66..99e95558:9<<:::d....fg.",
"-...*h..009eeeee99<<858i.......",
"-...1~...jj999999jk85556.......",
"-........6jjjjjjjjk85556.......",
"-...lml..8j444444j6855862......",
"-...nop..68q4444q8j68866r......",
"-...+@+...688qq8jjjj666@%...stu",
"-...+@+...#$@%j884jj.&$@%...*@=",
"-...+@+...#$@jj884jj.&$@%...*@=",
" }>.rhr...#$j4qq44ju.~3h]...*@=",
" ^/.......vwj8544jx=........y(z",
" ^/........Ajq84j.x=........B1~",
" []..........8jj..CD...........",
"-..............................",
"-.............................."};
