/* XPM */
static char * wall_xpm[] = {
"31 31 7 1",
" 	c #FF009F",
".	c #FFB8E0",
"+	c #FFB5D1",
"@	c #000000",
"#	c #FF00A2",
"$	c #6D5815",
"%	c #FF8FCD",
"   .........+...@@  .......    ",
"@+.      #      @@..  ##  #@@+.",
"@..          #  @@++     # @@..",
"@.. # # # ##   #@@..       @@..",
"@..      #  ##  @@.. #  # #@@..",
"@..#     #      @@..@@  #  @@..",
"@+. ##    # # ##@@..@@   ##@@+.",
"@..     #  #    @@##@@@@@@@@@..",
"@.+ ##   #      @@# @@@@@@@@@.+",
"@..#    # ##    @@.....++.+@@..",
"@.+     #   # # @@...+++..+@@.+",
"@..   ## #   #  @@..       @@..",
"@..## # ##  #   @@..  # ## @@..",
"@+.   #    # #  @@++   #   @@+.",
"@..  ##      ###@@..#  #   @@..",
"@..    ##   # # @@..  #### @@..",
"@@@$ ##       @@..    #    @@@@",
"@@@$ # # ## ##@@.+    #   #@@@@",
"@+..@@@@#     @@..       # @@+.",
"@...@@@@ # ## @@..   ###   @@..",
"@+%#....@@@@@@..  ## #    #@@+%",
"@.%#..+.$$$$@@..     #  ## @@.%",
"@.%  ## ....@@..     ###   @@.%",
"@.%  #      @@..       # @@@@.%",
"@+%#   ##  #@@..  # #  ##@@@@+%",
"   @@@@@@@@@  ..@@@@@@@@@@@    ",
"#  @@@@@@@@@  ..@@@@@@@@@@@ #  ",
"# #....+.+......@@# .+..+.. # #",
"   .........+...@@  .......    ",
"@+.      #      @@..  ##  #@@+.",
"@..          #  @@++     # @@.."};
