/* XPM */
static char * diamond_xpm[] = {
"31 31 72 1",
" 	c #C3ACD3",
".	c #E9B9EE",
"+	c #FFC1FF",
"@	c #C6ADD5",
"#	c #FDC0FD",
"$	c #D2B1DE",
"%	c #C7ADD6",
"&	c #DFB5E7",
"*	c #F3BCF6",
"=	c #E5B7EB",
"-	c #CDAFDA",
";	c #D3B1DF",
">	c #DEB5E6",
",	c #D0B0DC",
"'	c #E1B6E9",
")	c #C4ACD4",
"!	c #DDB5E5",
"~	c #C9AED7",
"{	c #F8BEFA",
"]	c #D3B1DE",
"^	c #EFBBF3",
"/	c #F1BCF4",
"(	c #CEB0DB",
"_	c #D9B3E2",
":	c #D8B3E2",
"<	c #E7B8ED",
"[	c #C8ADD6",
"}	c #C5ADD4",
"|	c #DAB4E3",
"1	c #CCAFD9",
"2	c #D2B1DD",
"3	c #D6B2E0",
"4	c #CBAFD9",
"5	c #FCC0FD",
"6	c #DDB4E5",
"7	c #E5B8EC",
"8	c #F3BDF6",
"9	c #D1B0DD",
"0	c #E2B6E9",
"a	c #1278CF",
"b	c #3ACFFE",
"c	c #B0FFFF",
"d	c #FFFFFF",
"e	c #D5B2DF",
"f	c #EAB9EF",
"g	c #CFB0DB",
"h	c #E6B8EC",
"i	c #EEBBF2",
"j	c #C5ADD5",
"k	c #FBBFFC",
"l	c #E4B7EA",
"m	c #DBB4E4",
"n	c #CEAFDB",
"o	c #D4B2DF",
"p	c #CAAED8",
"q	c #CFB0DC",
"r	c #D7B3E1",
"s	c #D6B2E1",
"t	c #E8B8EE",
"u	c #FDC0FE",
"v	c #E8B8ED",
"w	c #C7ADD5",
"x	c #FBC0FC",
"y	c #EBBAF0",
"z	c #D5B2E0",
"A	c #E3B7EA",
"B	c #D1B1DD",
"C	c #EDBAF1",
"D	c #D7B2E1",
"E	c #E5B7EC",
"F	c #C5ACD4",
"G	c #C4ACD3",
"    .+.   @#+$       %#+$   &+*",
" =- ;>;   @#+$    ,' )!>~   &+*",
" {]       @^/(    _*        :/<",
" {]        [[)    _*        }[%",
" |~               1:           ",
"                               ",
"                               ",
"                               ",
"             234              [",
"             /56              $",
" 7-          8+>  90          ]",
" {]          abb  _*          ]",
" {]         abccbb_*          ]",
" {]       }abccccdb*        e&~",
" f( g-    @abbccddbh )3@    &i ",
" @) <0    @aaabbcb)j @k1    &i ",
"    .l    )maaaba    %#1    no ",
"    &m       aaa     @ip       ",
"    })        a       @        ",
"                               ",
"    qrq              )sr[      ",
"    tuv              wxu2      ",
"    .+.   jfy-       %#+$   zyA",
"    .+.   @#+$       %#+$   &+*",
"    .+.   @#+$       %#+$   &+*",
" <- 2m2   @#+$    BA )|m~   &+*",
" {]       jC^n    _*        D^E",
" {]        F}     _*        G})",
" :~               43           ",
"                               ",
"                               "};
