/* XPM */
static char * perso_right_right_xpm[] = {
"31 31 374 2",
"  	c #C6A8D1",
". 	c #C3ACD3",
"+ 	c #E9B9EE",
"@ 	c #FFC1FF",
"# 	c #C6ADD5",
"$ 	c #FDC0FD",
"% 	c #D2B1DE",
"& 	c #C7ADD6",
"* 	c #DFB5E7",
"= 	c #F3BCF6",
"- 	c #BFA8CF",
"; 	c #E5B7EB",
"> 	c #CDAFDA",
", 	c #D3B1DF",
"' 	c #DEB5E6",
") 	c #BF9AC0",
"! 	c #B392B4",
"~ 	c #B494B6",
"{ 	c #D0B0DC",
"] 	c #E1B6E9",
"^ 	c #CBA4CA",
"/ 	c #CFA1C7",
"( 	c #E0ABD7",
"_ 	c #C9AED7",
": 	c #F8BEFA",
"< 	c #D3B1DE",
"[ 	c #D199C7",
"} 	c #C28DB4",
"| 	c #945140",
"1 	c #9E2525",
"2 	c #C00000",
"3 	c #920000",
"4 	c #86181F",
"5 	c #B387A8",
"6 	c #C38DB6",
"7 	c #D784A3",
"8 	c #BE6A80",
"9 	c #C0768F",
"0 	c #D7A8CC",
"a 	c #D79FC3",
"b 	c #C6A9D0",
"c 	c #D8B3E2",
"d 	c #F1BCF4",
"e 	c #E7B8ED",
"f 	c #CAA6CC",
"g 	c #DF8FB2",
"h 	c #D85369",
"i 	c #A3583F",
"j 	c #D89778",
"k 	c #DB8982",
"l 	c #E77491",
"m 	c #D88CA9",
"n 	c #D490AD",
"o 	c #D47894",
"p 	c #B26275",
"q 	c #9C535E",
"r 	c #D291AD",
"s 	c #D7C4C9",
"t 	c #D0809B",
"u 	c #BF90AF",
"v 	c #C5ABD1",
"w 	c #C5ADD4",
"x 	c #C8ADD6",
"y 	c #DAB4E3",
"z 	c #CCA4C9",
"A 	c #E7647D",
"B 	c #AD3738",
"C 	c #A36142",
"D 	c #E7A584",
"E 	c #E79A91",
"F 	c #E784A5",
"G 	c #E7A0C0",
"H 	c #E7A5C6",
"I 	c #E79CBD",
"J 	c #E683A4",
"K 	c #E59BBC",
"L 	c #E787A7",
"M 	c #D994B8",
"N 	c #C3ABD2",
"O 	c #D57492",
"P 	c #BB0000",
"Q 	c #BD5337",
"R 	c #E29B87",
"S 	c #E79C91",
"T 	c #E795B6",
"U 	c #E7B4CD",
"V 	c #E7CEDA",
"W 	c #E7A3C2",
"X 	c #DA99B7",
"Y 	c #E798B9",
"Z 	c #D69CC0",
"` 	c #C4ABD2",
" .	c #AD8BA9",
"..	c #D06066",
"+.	c #E491B0",
"@.	c #E796B7",
"#.	c #CB91AE",
"$.	c #B4809A",
"%.	c #C6B7B8",
"&.	c #E79CBC",
"*.	c #E794B4",
"=.	c #B9667B",
"-.	c #C57891",
";.	c #DB85A3",
">.	c #C9A7CD",
",.	c #864345",
"'.	c #BB4B5F",
").	c #E78E8E",
"!.	c #E7CFD7",
"~.	c #A6768C",
"{.	c #CD83A0",
"].	c #7C6972",
"^.	c #B3B3B3",
"/.	c #CDC0C1",
"(.	c #E788A8",
"_.	c #E791B1",
":.	c #E788A9",
"<.	c #E790B1",
"[.	c #E395B5",
"}.	c #C2809D",
"|.	c #AF768E",
"1.	c #C0A3C8",
"2.	c #E582A3",
"3.	c #E280A0",
"4.	c #E79C8F",
"5.	c #E7E2E1",
"6.	c #CF9378",
"7.	c #50353D",
"8.	c #848484",
"9.	c #DCDCDC",
"0.	c #E4E4E4",
"a.	c #8B787E",
"b.	c #B66D85",
"c.	c #B16174",
"d.	c #954E56",
"e.	c #E78DAE",
"f.	c #DAA5C9",
"g.	c #BFA7CC",
"h.	c #C2ABD1",
"i.	c #864344",
"j.	c #E180A0",
"k.	c #E382A2",
"l.	c #E598B9",
"m.	c #65535B",
"n.	c #553E44",
"o.	c #848282",
"p.	c #DDDDDD",
"q.	c #E3E3E3",
"r.	c #383838",
"s.	c #693B41",
"t.	c #512C31",
"u.	c #89535D",
"v.	c #9E5E6D",
"w.	c #D493B5",
"x.	c #E5B8EC",
"y.	c #844242",
"z.	c #A35865",
"A.	c #C16C83",
"B.	c #CF748F",
"C.	c #E7A3C3",
"D.	c #E7A1C2",
"E.	c #A37D83",
"F.	c #DCDADA",
"G.	c #868686",
"H.	c #A37785",
"I.	c #876871",
"J.	c #AE91B0",
"K.	c #BDA4C9",
"L.	c #AD8DAB",
"M.	c #AA89A6",
"N.	c #AB5D6D",
"O.	c #E491B1",
"P.	c #DC7E97",
"Q.	c #C47E73",
"R.	c #E1BCAE",
"S.	c #C6C6C6",
"T.	c #C5BBB7",
"U.	c #C89279",
"V.	c #8D7368",
"W.	c #5B3131",
"X.	c #C2ABD2",
"Y.	c #8C474C",
"Z.	c #BC687E",
"`.	c #A35866",
" +	c #E1809F",
".+	c #E38C97",
"++	c #E2A080",
"@+	c #C08061",
"#+	c #DBA58C",
"$+	c #DEA58A",
"%+	c #B2775B",
"&+	c #AD97B9",
"*+	c #B69BBD",
"=+	c #E0809F",
"-+	c #DC7D9C",
";+	c #915042",
">+	c #CF8F6F",
",+	c #A86746",
"'+	c #CA896B",
")+	c #BB9CB9",
"!+	c #D5B2DF",
"~+	c #EAB9EF",
"{+	c #CEB0DB",
"]+	c #CFB0DB",
"^+	c #B99FC2",
"/+	c #8E5864",
"(+	c #9F647C",
"_+	c #864649",
":+	c #CC738D",
"<+	c #88544A",
"[+	c #A2725F",
"}+	c #A57664",
"|+	c #9E6B56",
"1+	c #9D6158",
"2+	c #C798C1",
"3+	c #C4ACD4",
"4+	c #D6B2E0",
"5+	c #EEBBF2",
"6+	c #E2B6E9",
"7+	c #B89BBE",
"8+	c #EEB2EA",
"9+	c #AD87A6",
"0+	c #8A4D49",
"a+	c #A17A69",
"b+	c #B47A76",
"c+	c #C77D7D",
"d+	c #BA6262",
"e+	c #BD667B",
"f+	c #C5ADD5",
"g+	c #FBBFFC",
"h+	c #CCAFD9",
"i+	c #E4B7EA",
"j+	c #DBB4E4",
"k+	c #C7ADD5",
"l+	c #BB97AF",
"m+	c #D29171",
"n+	c #A94029",
"o+	c #DE0000",
"p+	c #E50000",
"q+	c #B35D74",
"r+	c #CEAFDB",
"s+	c #D4B2DF",
"t+	c #8C898C",
"u+	c #8E8582",
"v+	c #855554",
"w+	c #D90000",
"x+	c #93222C",
"y+	c #C0A7CD",
"z+	c #CAAED8",
"A+	c #C1AAD0",
"B+	c #BAA5C9",
"C+	c #B9A4C8",
"D+	c #8E8B8F",
"E+	c #E7E7E7",
"F+	c #B8B8B8",
"G+	c #D25050",
"H+	c #E40000",
"I+	c #A5576C",
"J+	c #C4A6CA",
"K+	c #BDA8CC",
"L+	c #B6A1C5",
"M+	c #7C7482",
"N+	c #545454",
"O+	c #9F9F9F",
"P+	c #D0D0D0",
"Q+	c #B1B1B1",
"R+	c #CACACA",
"S+	c #919191",
"T+	c #E60B0B",
"U+	c #CD5757",
"V+	c #BA8383",
"W+	c #9D96A3",
"X+	c #C1ABD1",
"Y+	c #CFB0DC",
"Z+	c #D7B3E1",
"`+	c #B39EC2",
" @	c #6A6170",
".@	c #8E8E8E",
"+@	c #9C9C9C",
"@@	c #737373",
"#@	c #AFAFAF",
"$@	c #B9B9B9",
"%@	c #E4B5B5",
"&@	c #979797",
"*@	c #A098A6",
"=@	c #D6B2E1",
"-@	c #E8B8EE",
";@	c #FDC0FE",
">@	c #E8B8ED",
",@	c #968D9D",
"'@	c #585858",
")@	c #898989",
"!@	c #727272",
"~@	c #595959",
"{@	c #937575",
"]@	c #CAB9D7",
"^@	c #BCA9CA",
"/@	c #BEA9CD",
"(@	c #FBC0FC",
"_@	c #D2B1DD",
":@	c #C0A9D0",
"<@	c #AA809F",
"[@	c #840000",
"}@	c #837D7D",
"|@	c #434343",
"1@	c #464646",
"2@	c #B49FC3",
"3@	c #D5B2E0",
"4@	c #EBBAF0",
"5@	c #E3B7EA",
"6@	c #A995B7",
"7@	c #420000",
"8@	c #5E3636",
"9@	c #8D5454",
"0@	c #9D9D9D",
"a@	c #948F97",
"b@	c #BCA7CA",
"c@	c #000000",
"d@	c #6D0000",
"e@	c #B70000",
"f@	c #CF8E8E",
"g@	c #D2D2D2",
"h@	c #B8A9C2",
"i@	c #6E0000",
"j@	c #660000",
"k@	c #E00000",
"l@	c #E1E1E1",
"m@	c #C1BDC3",
"n@	c #BFABCE",
"o@	c #D1B1DD",
"p@	c #BCA6CB",
"q@	c #0C0000",
"r@	c #5C0000",
"s@	c #830000",
"t@	c #8D0000",
"u@	c #D93F3F",
"v@	c #999999",
"w@	c #CFCFCF",
"x@	c #E4E4E5",
"y@	c #E3E2E4",
"z@	c #B7AABB",
"A@	c #D7B2E1",
"B@	c #EFBBF3",
"C@	c #E5B7EC",
"D@	c #5E3F4F",
"E@	c #7F0000",
"F@	c #DD0000",
"G@	c #E70000",
"H@	c #E73529",
"I@	c #E71B14",
"J@	c #B49D9D",
"K@	c #D8D8D8",
"L@	c #D0B1D2",
"M@	c #C4ACD3",
"N@	c #B6A0C5",
"O@	c #755367",
"P@	c #690000",
"Q@	c #820000",
"R@	c #900000",
"S@	c #C80000",
"T@	c #C86752",
"U@	c #C83A2D",
"V@	c #C92D2D",
"W@	c #C4C4C4",
"X@	c #BAA6C0",
"Y@	c #B29DC1",
"Z@	c #9C8AA9",
"`@	c #5D2833",
" #	c #540000",
".#	c #561212",
"+#	c #656565",
"@#	c #9889A3",
"##	c #B5A0C4",
"$#	c #BCA5CB",
"  . . . + @ + . . . # $ @ % . . . . . . . & $ @ % . . . * @ = ",
"- ; > . , ' , . . . # $ @ ) ! ! ! ~ { ] ^ / ( ' _ . . . * @ = ",
"- : < . . . . . . . # [ } | 1 2 3 4 5 6 7 8 9 0 a b . . c d e ",
"- : < . . . . . . f g h i j k l m n o p q r s t u v . . w x & ",
"- y _ . . . . . . z A B C D E F G H I J K H L M N . . . . . . ",
"- . . . . . . . . O P Q R S T H H U H H V W X Y Z ` . . . . . ",
"- . . . . . . .  .O P ..+.@.H #.$.%.&.H I *.=.-.;.>.. . . . . ",
"- . . . . . . . ,.O '.).!.~.{.].^./.(._.:.<.[.}.|.1.. . . . . ",
"- . . . . . . . ,.2.3.4.5.6.7.8.9.0.a.b.c.d.e.f.g.h.. . . . x ",
"- . . . . . . . i.j.k.l.H m.n.o.p.q.r.s.t.u.v.w.. . . . . . % ",
"- x.> . . . . . y.z.A.B.C.D.o E.F.0.G.H.I.J.K.L.. . . . . . < ",
"- : < . . . . . M.z.A.N.O.D.P.Q.R.S.T.U.V.W.. . . . . . . . < ",
"- : < . . . . . X.Y.Z.`. +D..+++@+#+$+D %+&+. . . . . . . . < ",
"- : < . . . . . . *+y.y.=+-+;+>+D ,+D '+)+. . . . . . . !+* _ ",
"- ~+{+. ]+> . . . ^+/+(+_+:+<+[+}+|+1+2+. 3+4+# . . . . * 5+. ",
"- # 3+. e 6+. . . . 7+8+9+0+a+b+c+d+e+f+. # g+h+. . . . * 5+. ",
"- . . . + i+. . . . 3+j+k+l+m+n+o+p+q+. . & $ h+. . . . r+s+. ",
"- . . . * j+. . . . . . . t+u+v+w+x+y+. . # 5+z+. . . . . . . ",
"- . . . w 3+. . . A+B+C+D+E+q.F+G+H+I+J+K+. # . . . . . . . . ",
"- . . . . . . . . L+M+N+O+P+Q+R+S+T+U+V+W+X+. . . . . . . . . ",
"- . . . Y+Z+Y+. . . `+ @.@+@@@#@$@%@&@*@K+3+=@Z+x . . . . . . ",
"- . . . -@;@>@. . . . ,@'@)@!@~@{@]@^@/@. k+(@;@_@. . . . . . ",
"- . . . + @ + . . :@<@[@}@|@1@1@2@. . . . & $ @ % . . . 3@4@5@",
"- . . . + @ + . 6@7@[@[@8@9@0@a@b@. . . . & $ @ % . . . * @ = ",
"- . . . + @ + . c@7@[@d@e@f@g@h@. . . . . & $ @ % . . . * @ = ",
"  e > . _@j+_@. c@7@i@j@k@O+l@m@n@. o@5@. 3+y j+_ . . . * @ = ",
"  : < . . . . . p@q@r@s@t@u@v@w@x@y@z@= . . . . . . . . A@B@C@",
"  : < . . . . . X.D@E@[@[@F@G@H@I@J@K@L@. . . . . . . . M@w 3+",
"  c _ . . . . . . N@O@P@Q@R@S@T@U@V@W@X@. . . . . . . . . . . ",
"- . . . . . . . . . Y@Z@`@ # # # #.#+#@#. . . . . . . . . . . ",
"- . . . . . . . . . . . ##2@2@2@2@2@2@$#. . . . . . . . . . . "};
