/* XPM */
static char * perso_up_xpm[] = {
"31 31 330 2",
"  	c #C6A8D1",
". 	c #C3ACD3",
"+ 	c #E9B9EE",
"@ 	c #FFC1FF",
"# 	c #C6ADD5",
"$ 	c #FDC0FD",
"% 	c #FFC0FE",
"& 	c #D2B1DD",
"* 	c #C3ABD2",
"= 	c #C2ABD2",
"- 	c #C7ADD6",
"; 	c #D2B1DE",
"> 	c #DFB5E7",
", 	c #F3BCF6",
"' 	c #BFA8CF",
") 	c #E5B7EB",
"! 	c #CDAFDA",
"~ 	c #D3B1DF",
"{ 	c #DEB5E6",
"] 	c #FBBAF5",
"^ 	c #E886A8",
"/ 	c #E785A6",
"( 	c #E789AA",
"_ 	c #BC6B81",
": 	c #974F59",
"< 	c #DAA1CE",
"[ 	c #BCA2C7",
"} 	c #C4ACD4",
"| 	c #DDB5E5",
"1 	c #C9AED7",
"2 	c #F8BEFA",
"3 	c #D3B1DE",
"4 	c #BBA1C5",
"5 	c #C9A1C6",
"6 	c #E88CB0",
"7 	c #E78DAE",
"8 	c #E790B1",
"9 	c #E7A5C6",
"0 	c #E797B8",
"a 	c #E78EAF",
"b 	c #E7556A",
"c 	c #A73939",
"d 	c #CDAAD0",
"e 	c #CDA8CE",
"f 	c #CAA6CC",
"g 	c #D8B3E2",
"h 	c #F1BCF4",
"i 	c #E7B8ED",
"j 	c #BA87A4",
"k 	c #DA7C9A",
"l 	c #E795B6",
"m 	c #E7566C",
"n 	c #E786A2",
"o 	c #E090B0",
"p 	c #C68AA9",
"q 	c #C5ADD4",
"r 	c #C8ADD6",
"s 	c #DAB4E3",
"t 	c #B69BBD",
"u 	c #D084A2",
"v 	c #E791B2",
"w 	c #E7A3C4",
"x 	c #E7B8CF",
"y 	c #E7B5CD",
"z 	c #E784A5",
"A 	c #E72E3B",
"B 	c #D47894",
"C 	c #9F788F",
"D 	c #C795B6",
"E 	c #DC7D9B",
"F 	c #E79DBD",
"G 	c #E7B3CC",
"H 	c #E7B0CB",
"I 	c #E79ABB",
"J 	c #E11F26",
"K 	c #A65A69",
"L 	c #D59BBF",
"M 	c #E78DAD",
"N 	c #DE718C",
"O 	c #936272",
"P 	c #BCA2C6",
"Q 	c #E7A4C5",
"R 	c #E683A4",
"S 	c #D98CAE",
"T 	c #A988A4",
"U 	c #C66F88",
"V 	c #E589A9",
"W 	c #E79EBE",
"X 	c #DE7E9D",
"Y 	c #97697B",
"Z 	c #E799BA",
"` 	c #995964",
" .	c #E583A3",
"..	c #E7A2C3",
"+.	c #E482A3",
"@.	c #E07F9E",
"#.	c #E788A9",
"$.	c #D47794",
"%.	c #E5B8EC",
"&.	c #99515B",
"*.	c #D67996",
"=.	c #B06072",
"-.	c #D17692",
";.	c #854342",
">.	c #9D6E7B",
",.	c #AF6072",
"'.	c #DE7F9D",
").	c #E799B9",
"!.	c #E78AAB",
"~.	c #864344",
"{.	c #884742",
"].	c #AD7A7B",
"^.	c #B89DBF",
"/.	c #956677",
"(.	c #B9667B",
"_.	c #E381A2",
":.	c #B06073",
"<.	c #9A525C",
"[.	c #C26C83",
"}.	c #854343",
"|.	c #995742",
"1.	c #A27C94",
"2.	c #844242",
"3.	c #AA5C6D",
"4.	c #9A515C",
"5.	c #D37793",
"6.	c #A86B5A",
"7.	c #BC9DBB",
"8.	c #D5B2DF",
"9.	c #EAB9EF",
"0.	c #CEB0DB",
"a.	c #CFB0DB",
"b.	c #BDA3C8",
"c.	c #A87086",
"d.	c #894548",
"e.	c #843F3F",
"f.	c #842828",
"g.	c #843434",
"h.	c #96454F",
"i.	c #A05562",
"j.	c #884547",
"k.	c #9F5D42",
"l.	c #BFA2C3",
"m.	c #D6B2E0",
"n.	c #EEBBF2",
"o.	c #E2B6E9",
"p.	c #C3A9D0",
"q.	c #9D6277",
"r.	c #847F7F",
"s.	c #840D0D",
"t.	c #840303",
"u.	c #840E0E",
"v.	c #840808",
"w.	c #984C33",
"x.	c #A36142",
"y.	c #BDA0C2",
"z.	c #C1A7CC",
"A.	c #FBBFFC",
"B.	c #CCAFD9",
"C.	c #E4B7EA",
"D.	c #968D98",
"E.	c #848181",
"F.	c #970000",
"G.	c #E70000",
"H.	c #C20000",
"I.	c #9A4C32",
"J.	c #D69575",
"K.	c #B37252",
"L.	c #C5AACE",
"M.	c #C5ACD4",
"N.	c #CEAFDB",
"O.	c #D4B2DF",
"P.	c #DBB4E4",
"Q.	c #90828C",
"R.	c #841010",
"S.	c #DA3A3A",
"T.	c #DD4848",
"U.	c #DC4141",
"V.	c #AD2121",
"W.	c #A85B33",
"X.	c #E1A483",
"Y.	c #E79249",
"Z.	c #A09DA2",
"`.	c #E4B7E7",
" +	c #C7ADD3",
".+	c #B8A4C5",
"++	c #956D75",
"@+	c #844B4B",
"#+	c #787878",
"$+	c #909090",
"%+	c #848484",
"&+	c #755050",
"*+	c #D1740E",
"=+	c #E7BF9A",
"-+	c #D6BDA5",
";+	c #D3D3D3",
">+	c #B7B7B7",
",+	c #B1A8B8",
"'+	c #9991A0",
")+	c #818181",
"!+	c #846E6E",
"~+	c #614141",
"{+	c #323232",
"]+	c #493838",
"^+	c #654242",
"/+	c #4B3939",
"(+	c #A2622C",
"_+	c #C3A78F",
":+	c #A5A5A5",
"<+	c #AEAEAE",
"[+	c #D9D9D9",
"}+	c #CFB0DC",
"|+	c #D7B3E1",
"1+	c #B2A0BE",
"2+	c #9B979E",
"3+	c #828282",
"4+	c #844444",
"5+	c #562929",
"6+	c #000000",
"7+	c #512626",
"8+	c #552828",
"9+	c #383838",
"0+	c #7D7D7D",
"a+	c #949494",
"b+	c #9B9B9B",
"c+	c #BFBFBF",
"d+	c #B9AABE",
"e+	c #E8B8EE",
"f+	c #FDC0FE",
"g+	c #E8B8ED",
"h+	c #B799BC",
"i+	c #9C667E",
"j+	c #8E5864",
"k+	c #756666",
"l+	c #8B8B8B",
"m+	c #5F4646",
"n+	c #2D1212",
"o+	c #6C3535",
"p+	c #887575",
"q+	c #5C5C5C",
"r+	c #978597",
"s+	c #EFBBF0",
"t+	c #DCAADB",
"u+	c #8E4152",
"v+	c #840000",
"w+	c #7D1515",
"x+	c #5B4E4E",
"y+	c #D5A9D9",
"z+	c #BA9FC6",
"A+	c #B19CC0",
"B+	c #A091AB",
"C+	c #8C8888",
"D+	c #A3A0A0",
"E+	c #686868",
"F+	c #525252",
"G+	c #545454",
"H+	c #66616A",
"I+	c #EDB4ED",
"J+	c #D5B2E0",
"K+	c #EBBAF0",
"L+	c #E3B7EA",
"M+	c #F6BAF6",
"N+	c #3C2C3B",
"O+	c #210000",
"P+	c #5F0000",
"Q+	c #CD0000",
"R+	c #F3ADE4",
"S+	c #A593B2",
"T+	c #6C6C6C",
"U+	c #875D5D",
"V+	c #821818",
"W+	c #B79DC0",
"X+	c #BEA7CD",
"Y+	c #C2A9D1",
"Z+	c #670000",
"`+	c #D10000",
" @	c #F9ADE5",
".@	c #B18FB0",
"+@	c #871E27",
"@@	c #DD0000",
"#@	c #882929",
"$@	c #AAA9A9",
"%@	c #BB8D8D",
"&@	c #EE779F",
"*@	c #D0AEDB",
"=@	c #D3ADDB",
"-@	c #5E0000",
";@	c #C40000",
">@	c #E50000",
",@	c #FEBFFC",
"'@	c #A87F9D",
")@	c #B4B3B3",
"!@	c #E7C7C7",
"~@	c #E40000",
"{@	c #BF0000",
"]@	c #AB7F9D",
"^@	c #BCA5CB",
"/@	c #710000",
"(@	c #DB0000",
"_@	c #EC9CCB",
":@	c #C60000",
"<@	c #E7C2C2",
"[@	c #D40000",
"}@	c #8D3E4E",
"|@	c #B18EAF",
"1@	c #D7B2E1",
"2@	c #EFBBF3",
"3@	c #E5B7EC",
"4@	c #796A83",
"5@	c #560000",
"6@	c #B90000",
"7@	c #E60000",
"8@	c #E30000",
"9@	c #BC3B4A",
"0@	c #B08DAE",
"a@	c #C4ACD3",
"b@	c #AF9ABE",
"c@	c #520000",
"d@	c #B60000",
"e@	c #B70000",
"f@	c #B62E3B",
"g@	c #B290B1",
"h@	c #BDA7CD",
"i@	c #897895",
"j@	c #B190B1",
"k@	c #BCA0C5",
"l@	c #985E74",
"m@	c #B595B7",
"n@	c #B39EC2",
"o@	c #BA9EC2",
"  . . . + @ + . . . # $ % & . . . * = . . - $ @ ; . . . > @ , ",
"' ) ! . ~ { ~ . . . # ] ^ / ( ( ( _ : < [ } | { 1 . . . > @ , ",
"' 2 3 . . . . . . 4 5 6 7 8 9 9 9 0 a b c d e f . . . . g h i ",
"' 2 3 . . . . . . j k 8 9 9 9 9 9 9 9 l m n o p . . . . q r - ",
"' s 1 . . . . . t u v w 9 9 9 9 x y 9 9 z A B C . . . . . . . ",
"' . . . . . . . D E F 9 9 9 9 9 G H 9 9 I J K C . . . . . . . ",
"' . . . . . . . L z F 9 9 9 9 9 9 9 9 9 M N O P . . . . . . . ",
"' . . . . . . . L z F 7 Q 9 9 9 9 9 9 9 z R S . . . . . . . . ",
"' . . . . . . . T U F V w 9 W 8 9 9 9 ( z X Y . . . . . . . r ",
"' . . . . . . . T U Z `  ...+.@.l 9 ..#.z $.Y . . . . . . . ; ",
"' %.! . . . . . T U z &. .I *.=.l 9 a z -.;.>.. . . . . . . 3 ",
"' 2 3 . . . . . T ,.'.&. .z *.=.a ).!.z ~.{.].. . . . . . . 3 ",
"' 2 3 . . . . . ^./.-.&.(._.:.<.-.z z [.}.|.].. . . . . . . 3 ",
"' 2 3 . . . . . . 1.-.&.2.3.2.2.4.5.z : 2.6.7.. . . . . 8.> 1 ",
"' 9.0.. a.! . . . b.c.d.2.e.f.2.g.h.i.j.k.l.m.# . . . . > n.. ",
"' # } . i o.. . . . p.q.r.s.t.u.v.w.x.y.z.# A.B.. . . . > n.. ",
"' . . . + C.. . . . } D.E.F.G.G.H.I.J.K.L.M.$ B.. . . . N.O.. ",
"' . . . > P.. . . . . Q.R.S.T.T.U.V.W.X.Y.Z.`. +. . . . . . . ",
"' . . . q } . . . . .+++@+#+$+$+%+&+*+=+-+;+>+,+. . . . . . . ",
"' . . . . . . . . . '+)+!+~+{+]+^+/+(+_+:+<+[+,+. . . . . . . ",
"' . . . }+|+}+. . 1+2+3+4+5+6+7+2.8+9+0+a+b+c+d+r . . . . . . ",
"' . . . e+f+g+h+i+j+k+l+m+6+6+n+o+p+q+0+%+3+r+s+& . . . . . . ",
"' . . . + @ t+u+v+v+w+x+y+z+A+B+C+D+E+F+G+H+I+@ ; . . . J+K+L+",
"' . . . + M+N+O+P+v+Q+R+@ ; . S+T+U+V+W+X+Y+$ @ ; . . . > @ , ",
"' . . . + M+6+6+6+Z+`+ @@ ; . .@+@v+v+@@#@$@%@&@*@. . . > @ , ",
"  i ! . & =@6+6+6+-@;@>@,@; . . '@v+v+@@)@!@~@{@]@. . . > @ , ",
"  2 3 . . ^@6+6+6+6+/@(@_@N.. . '@v+v+:@<@G.[@}@|@. . . 1@2@3@",
"  2 3 . . ' 4@6+6+6+5@6@7@. . . '@v+v+v+7@8@9@0@. . . . a@q } ",
"  g 1 . . . b@6+6+6+6+c@d@. . . '@v+v+v+e@f@g@. . . . . . . . ",
"' . . . . . h@i@6+6+6+6+j@. . . k@l@v+v+v+m@. . . . . . . . . ",
"' . . . . . . X+n@n@n@n@. . . . . b.o@o@o@. . . . . . . . . . "};
