/* XPM */
static char * perso_xpm[] = {
"31 31 511 2",
"  	c #C6A8D1",
". 	c #C3ACD3",
"+ 	c #E9B9EE",
"@ 	c #FFC1FF",
"# 	c #C6ADD5",
"$ 	c #FDC0FD",
"% 	c #D2B1DE",
"& 	c #C7ADD6",
"* 	c #DFB5E7",
"= 	c #F3BCF6",
"- 	c #BFA8CF",
"; 	c #E5B7EB",
"> 	c #CDAFDA",
", 	c #D3B1DF",
"' 	c #DEB5E6",
") 	c #D0AFDB",
"! 	c #C0A7CD",
"~ 	c #BFA6CC",
"{ 	c #D0B0DC",
"] 	c #E1B6E9",
"^ 	c #C6AAD2",
"/ 	c #DEB2E1",
"( 	c #DFB3E3",
"_ 	c #C9AED7",
": 	c #F8BEFA",
"< 	c #D3B1DE",
"[ 	c #EDB6ED",
"} 	c #E9B2E7",
"| 	c #BB98BC",
"1 	c #AD879E",
"2 	c #A67A91",
"3 	c #AE728D",
"4 	c #A67995",
"5 	c #CFA7D3",
"6 	c #EDB6EE",
"7 	c #C1A6CB",
"8 	c #D199BC",
"9 	c #D091B3",
"0 	c #CD98BB",
"a 	c #C8ABD1",
"b 	c #C5ACD2",
"c 	c #D8B3E2",
"d 	c #F1BCF4",
"e 	c #E7B8ED",
"f 	c #C7A6CC",
"g 	c #C78EB0",
"h 	c #AB7089",
"i 	c #9C6771",
"j 	c #BB806E",
"k 	c #9F5D50",
"l 	c #CA414F",
"m 	c #A85466",
"n 	c #B77492",
"o 	c #D697C3",
"p 	c #B488A5",
"q 	c #C6768F",
"r 	c #C07A8E",
"s 	c #C791A3",
"t 	c #D69FC1",
"u 	c #C7A4C7",
"v 	c #C5ADD4",
"w 	c #C8ADD6",
"x 	c #DAB4E3",
"y 	c #C8A7CD",
"z 	c #CB8CAD",
"A 	c #BA586D",
"B 	c #A04C49",
"C 	c #BA7B66",
"D 	c #DD9C7D",
"E 	c #C0826B",
"F 	c #E07992",
"G 	c #DD94B3",
"H 	c #DB84A2",
"I 	c #DF83A4",
"J 	c #C4748D",
"K 	c #BC768C",
"L 	c #D79FB7",
"M 	c #DDAFBD",
"N 	c #D38AAA",
"O 	c #BA9ABC",
"P 	c #C8A8CE",
"Q 	c #D895B8",
"R 	c #D2647E",
"S 	c #B62024",
"T 	c #B46152",
"U 	c #D7967A",
"V 	c #E79E8C",
"W 	c #E49791",
"X 	c #E693AF",
"Y 	c #E7A3C4",
"Z 	c #E7A0C0",
"` 	c #E78DAE",
" .	c #E48FAE",
"..	c #E3B1C7",
"+.	c #E6A6C4",
"@.	c #E697B7",
"#.	c #DD97B9",
"$.	c #C9A4C9",
"%.	c #C2ABD2",
"&.	c #CD9EC2",
"*.	c #D67A97",
"=.	c #CD4659",
"-.	c #B41C1E",
";.	c #AA5E60",
">.	c #DA8C8B",
",.	c #E78F9F",
"'.	c #E792B1",
").	c #E7A2C3",
"!.	c #E0A4C1",
"~.	c #E3B7CB",
"{.	c #E79DBE",
"].	c #E7A2C1",
"^.	c #E7BACE",
"/.	c #E19CB8",
"(.	c #CF89A4",
"_.	c #DF94B4",
":.	c #D1A0C4",
"<.	c #BCA3C7",
"[.	c #BF86A4",
"}.	c #C46681",
"|.	c #B61015",
"1.	c #C44B57",
"2.	c #C67C90",
"3.	c #E288A6",
"4.	c #DF8AA9",
"5.	c #E39ABA",
"6.	c #D799B8",
"7.	c #AA8496",
"8.	c #CDABB4",
"9.	c #E798B9",
"0.	c #E79FC0",
"a.	c #E796B7",
"b.	c #E18EAE",
"c.	c #C77891",
"d.	c #C0809A",
"e.	c #C09CBE",
"f.	c #B89DBF",
"g.	c #B47188",
"h.	c #CB6C87",
"i.	c #BE4152",
"j.	c #D67E91",
"k.	c #E1A8BE",
"l.	c #E79BB8",
"m.	c #CF8AA6",
"n.	c #C6819C",
"o.	c #92677B",
"p.	c #A09D9E",
"q.	c #D1B9BE",
"r.	c #D0839E",
"s.	c #DB88A7",
"t.	c #D87F9C",
"u.	c #D785A2",
"v.	c #E091B1",
"w.	c #C791B0",
"x.	c #BDA3C8",
"y.	c #DC7C9A",
"z.	c #D26F8A",
"A.	c #DB88A3",
"B.	c #E79DBA",
"C.	c #E799B8",
"D.	c #C88BA6",
"E.	c #8C5F71",
"F.	c #413438",
"G.	c #D2D2D2",
"H.	c #D6D1D3",
"I.	c #8F7079",
"J.	c #AB647A",
"K.	c #B87992",
"L.	c #AA6476",
"M.	c #C77A94",
"N.	c #C691B1",
"O.	c #E5B8EC",
"P.	c #E281A1",
"Q.	c #E481A2",
"R.	c #E484A4",
"S.	c #E787A8",
"T.	c #E793B3",
"U.	c #D495B2",
"V.	c #B97890",
"W.	c #75434A",
"X.	c #DFDEDE",
"Y.	c #CECECE",
"Z.	c #535252",
"`.	c #856E75",
" +	c #B499B6",
".+	c #AE8CAA",
"++	c #B58DAC",
"@+	c #BB9ABD",
"#+	c #E381A1",
"$+	c #D07590",
"%+	c #D97B98",
"&+	c #E792B2",
"*+	c #E4A0C0",
"=+	c #E28DAD",
"-+	c #CF7692",
";+	c #B8B1B3",
">+	c #CACACA",
",+	c #5E5C5C",
"'+	c #AE8C7F",
")+	c #A38894",
"!+	c #B9A2C6",
"~+	c #C0A8CE",
"{+	c #C1AAD0",
"]+	c #B390B0",
"^+	c #BF6F87",
"/+	c #E180A0",
"(+	c #C46D85",
"_+	c #D27692",
":+	c #E794B5",
"<+	c #E7C7D1",
"[+	c #E6A998",
"}+	c #D9A58D",
"|+	c #ADABAB",
"1+	c #BA9D91",
"2+	c #DB9E80",
"3+	c #936F6F",
"4+	c #B7A2C7",
"5+	c #B395B6",
"6+	c #B96B82",
"7+	c #B56377",
"8+	c #AB5D6D",
"9+	c #DA89A7",
"0+	c #E28DAC",
"a+	c #E09D94",
"b+	c #BE7E62",
"c+	c #DD9C7C",
"d+	c #E2A587",
"e+	c #E1A284",
"f+	c #DFA38F",
"g+	c #C7A6BF",
"h+	c #D5B2DF",
"i+	c #EAB9EF",
"j+	c #CEB0DB",
"k+	c #CFB0DB",
"l+	c #B79CBF",
"m+	c #B6768E",
"n+	c #D67A96",
"o+	c #B36275",
"p+	c #9E5460",
"q+	c #CF7690",
"r+	c #BA687C",
"s+	c #A5604F",
"t+	c #CF8F6F",
"u+	c #B37253",
"v+	c #D69575",
"w+	c #CD9085",
"x+	c #BC9BB7",
"y+	c #C4ACD4",
"z+	c #D6B2E0",
"A+	c #EEBBF2",
"B+	c #E2B6E9",
"C+	c #AE8EAD",
"D+	c #A35A69",
"E+	c #A35968",
"F+	c #7F4344",
"G+	c #945663",
"H+	c #98646F",
"I+	c #9F7B74",
"J+	c #A68378",
"K+	c #9E766E",
"L+	c #B28998",
"M+	c #BC9AB7",
"N+	c #FBBFFC",
"O+	c #CCAFD9",
"P+	c #E4B7EA",
"Q+	c #BAA0C4",
"R+	c #B78BAE",
"S+	c #906474",
"T+	c #835249",
"U+	c #885950",
"V+	c #BC6766",
"W+	c #CE6C6C",
"X+	c #C36973",
"Y+	c #C3AAD1",
"Z+	c #CEAFDB",
"`+	c #D4B2DF",
" @	c #DBB4E4",
".@	c #B08DA6",
"+@	c #BA8074",
"@@	c #B67457",
"#@	c #D63A29",
"$@	c #DE0603",
"%@	c #B5576C",
"&@	c #C1AACF",
"*@	c #C3AFD1",
"=@	c #C8B5D6",
"-@	c #C7AFD6",
";@	c #CAAED8",
">@	c #BCA0C5",
",@	c #A47285",
"'@	c #B6755D",
")@	c #C28262",
"!@	c #D2523B",
"~@	c #B63F12",
"{@	c #C296AB",
"]@	c #BCAEC6",
"^@	c #CDCACF",
"/@	c #E1DEE4",
"(@	c #D1C4DA",
"_@	c #BBA5CA",
":@	c #B19CBD",
"<@	c #AD8FAD",
"[@	c #945467",
"}@	c #93402A",
"|@	c #BE7D5F",
"1@	c #C3794E",
"2@	c #E09D75",
"3@	c #D49674",
"4@	c #C9C7C6",
"5@	c #E6E6E6",
"6@	c #DDDDDD",
"7@	c #D2CFD4",
"8@	c #C4B1D2",
"9@	c #CFB0DC",
"0@	c #D7B3E1",
"a@	c #AF9BBD",
"b@	c #847888",
"c@	c #7E6265",
"d@	c #824A4A",
"e@	c #8E4A41",
"f@	c #9E614B",
"g@	c #D57C2C",
"h@	c #E6BDA8",
"i@	c #ABA7A5",
"j@	c #E2E2E2",
"k@	c #BFBFBF",
"l@	c #AEACAF",
"m@	c #C0A8C7",
"n@	c #D7B3E0",
"o@	c #E8B8EE",
"p@	c #FDC0FE",
"q@	c #E8B8ED",
"r@	c #BDA7CD",
"s@	c #A392AF",
"t@	c #807983",
"u@	c #837072",
"v@	c #957174",
"w@	c #9C7975",
"x@	c #CA7C47",
"y@	c #E48310",
"z@	c #897B74",
"A@	c #E1E1E1",
"B@	c #B1B1B1",
"C@	c #BCBCBD",
"D@	c #BFA7C0",
"E@	c #D2B1DD",
"F@	c #E6B6EA",
"G@	c #BA9DC1",
"H@	c #B698BA",
"I@	c #A689A7",
"J@	c #927F92",
"K@	c #A3929E",
"L@	c #A77F87",
"M@	c #AF7F8F",
"N@	c #9C7C83",
"O@	c #A56653",
"P@	c #D38753",
"Q@	c #756862",
"R@	c #A6A6A6",
"S@	c #BDBDBD",
"T@	c #959098",
"U@	c #A69DAC",
"V@	c #E3B3E3",
"W@	c #FEC1FE",
"X@	c #D5B2E0",
"Y@	c #EBBAF0",
"Z@	c #E3B7EA",
"`@	c #EDB3ED",
" #	c #BC92BC",
".#	c #986881",
"+#	c #A2566B",
"@#	c #B24656",
"##	c #9A6464",
"$#	c #B5ADAE",
"%#	c #CBA5B4",
"&#	c #C090B0",
"*#	c #A48498",
"=#	c #A89092",
"-#	c #C9B5AD",
";#	c #888385",
">#	c #9A8FA2",
",#	c #9E93A6",
"'#	c #A492B0",
")#	c #B69FC4",
"!#	c #FABEFA",
"~#	c #E6B7EB",
"{#	c #CE9BCE",
"]#	c #644459",
"^#	c #78222C",
"/#	c #9A4343",
"(#	c #C88888",
"_#	c #BB9A9A",
":#	c #B0A7AE",
"<#	c #DCB6D8",
"[#	c #CCABD4",
"}#	c #AB9BB1",
"|#	c #ADA6A9",
"1#	c #D9A3A3",
"2#	c #BFB7BB",
"3#	c #B8A3C6",
"4#	c #B8A3C7",
"5#	c #BEA8CD",
"6#	c #BCAAC6",
"7#	c #D9B4D9",
"8#	c #E5B8E5",
"9#	c #CFAEDA",
"0#	c #A88AAF",
"a#	c #320000",
"b#	c #720000",
"c#	c #A37878",
"d#	c #C9BEBE",
"e#	c #A29B9E",
"f#	c #C19DC1",
"g#	c #F5BDF5",
"h#	c #A789A2",
"i#	c #90676C",
"j#	c #DC4949",
"k#	c #E2D7D9",
"l#	c #DFD5E3",
"m#	c #D7C6DA",
"n#	c #CAC2D0",
"o#	c #D5D2D7",
"p#	c #D4D2D5",
"q#	c #CFC8D1",
"r#	c #BDABC7",
"s#	c #C0AAD0",
"t#	c #9583A2",
"u#	c #925F5F",
"v#	c #A99F9F",
"w#	c #A49FA1",
"x#	c #BAA8BC",
"y#	c #E1B7E4",
"z#	c #A77F9C",
"A#	c #8A3441",
"B#	c #A30404",
"C#	c #A88282",
"D#	c #ADA3A4",
"E#	c #C28B8D",
"F#	c #E17374",
"G#	c #E68080",
"H#	c #E39D9D",
"I#	c #D4D3D4",
"J#	c #B2A7BA",
"K#	c #D7B2E1",
"L#	c #EFBBF3",
"M#	c #E5B7EC",
"N#	c #A42020",
"O#	c #D5534F",
"P#	c #DCA19E",
"Q#	c #D6C5C7",
"R#	c #C0B6BC",
"S#	c #B7ABC0",
"T#	c #BBA3C5",
"U#	c #985E74",
"V#	c #85131A",
"W#	c #8F1212",
"X#	c #C93C3C",
"Y#	c #D12D2D",
"Z#	c #DB0000",
"`#	c #D30000",
" $	c #A55252",
".$	c #A19EA0",
"+$	c #A195AA",
"@$	c #C4ACD3",
"#$	c #C1AAD1",
"$$	c #A28FB0",
"%$	c #533E4E",
"&$	c #660000",
"*$	c #9F0000",
"=$	c #D65342",
"-$	c #E76F60",
";$	c #E37777",
">$	c #CAA9A9",
",$	c #B6ADBD",
"'$	c #BFAACE",
")$	c #9C667E",
"!$	c #86161E",
"~$	c #860000",
"{$	c #950000",
"]$	c #8E0000",
"^$	c #840000",
"/$	c #83222C",
"($	c #7C6075",
"_$	c #807389",
":$	c #9D8CAA",
"<$	c #9987A6",
"[$	c #5A3F4F",
"}$	c #610000",
"|$	c #8F1711",
"1$	c #B21C14",
"2$	c #AB3737",
"3$	c #8D6A6A",
"4$	c #988CA0",
"5$	c #BBA6CA",
"6$	c #8C667E",
"7$	c #67161E",
"8$	c #640000",
"9$	c #775063",
"0$	c #8A7792",
"a$	c #937E9C",
"b$	c #B8A2C7",
"c$	c #BEA7CD",
"d$	c #C0A9D0",
"e$	c #A793B5",
"f$	c #9C89A9",
"g$	c #9D89A9",
"h$	c #9E89A9",
"i$	c #9D8AAA",
"j$	c #AD99BB",
"k$	c #AB96B8",
"l$	c #AE99BC",
"  . . . + @ + . . . # $ @ % . . . . . . . & $ @ % . . . * @ = ",
"- ; > . , ' , . . . # $ @ ) ! ~ ~ ! { ] . ^ / ( _ . . . * @ = ",
"- : < . . . . . . . # [ } | 1 2 3 4 5 6 7 8 9 0 a b . . c d e ",
"- : < . . . . . . . f g h i j k l m n o p q r s t u . . v w & ",
"- x _ . . . . . . y z A B C D E F G H I J K L M N O . . . . . ",
"- . . . . . . . P Q R S T U V W X Y Z `  ...+.@.#.$.. . . . . ",
"- . . . . . . %.&.*.=.-.;.>.,.'.).!.~.{.].^./.(._.:.. . . . . ",
"- . . . . . . <.[.}.|.1.2.3.4.5.6.7.8.9.0.a.b.c.d.e.. . . . . ",
"- . . . . . . f.g.h.i.j.k.l.m.n.o.p.q.r.s.t.u.v.w.x.. . . . w ",
"- . . . . . . f.g.y.z.A.B.C.D.E.F.G.H.I.J.K.L.M.N.. . . . . % ",
"- O.> . . . . f.g.P.Q.R.S.T.U.V.W.X.Y.Z.`. +.+++@+. . . . . < ",
"- : < . . . . f.g.P.#+$+%+&+*+=+-+;+>+,+'+)+!+~+{+. . . . . < ",
"- : < . . . . {+]+^+/+(+_+&+:+<+[+}+|+1+2+3+4+. . . . . . . < ",
"- : < . . . . . 5+6+/+7+8+9+0+a+b+c+d+e+f+g+%.. . . . . h+* _ ",
"- i+j+. k+> . . l+m+n+o+p+q+r+s+t+u+v+w+x+y+z+# . . . . * A+. ",
"- # y+. e B+. . . C+D+E+F+G+H+I+J+K+L+M+. # N+O+. . . . * A+. ",
"- . . . + P+. . . Q+C+R+S+T+U+V+W+X+Y+. . & $ O+. . . . Z+`+. ",
"- . . . *  @. . . . . ! .@+@@@#@$@%@&@*@=@-@A+;@. . . . . . . ",
"- . . . v y+. . . . . >@,@'@)@!@~@{@]@^@/@(@-@. . . . . . . . ",
"- . . . . . . . . _@:@<@[@}@|@1@2@3@4@5@6@7@8@. . . . . . . . ",
"- . . . 9@0@9@. . a@b@c@d@e@f@g@h@i@j@5@k@l@m@n@w . . . . . . ",
"- . . . o@p@q@. . r@s@t@u@v@w@x@y@z@Y.A@B@C@D@N+E@. . . . . . ",
"- . . . + @ F@G@H@I@J@K@L@M@N@O@P@Q@R@S@T@U@V@W@% . . . X@Y@Z@",
"- . . . q@`@ #.#+#@###$#%#&#*#=#-#;#>#,#'#)#!#@ % . . . * @ = ",
"- . . . ~#{#]#^#/#(#_#:#<#[#}#|#1#2#3#4#5#6#7#8#% . . . * @ = ",
"  e > . 9#0#a#b#c#d#e#f#g#E@h#i#j#k#l#m#n#o#p#q#r#. . . * @ = ",
"  : < . s#t#a#b#u#v#w#x#y#> z#A#B#C#D#E#F#G#H#I#J#. . . K#L#M#",
"  : < . s#t#a#b#N#O#P#Q#R#S#T#U#V#W#X#Y#Z#`# $.$+$. . . @$v y+",
"  c _ . #$$$%$&$*$=$-$;$>$,$'$)$!$~${$]$^$/$($_$:$. . . . . . ",
"- . . . . r@<$[$}$|$1$2$3$4$5$6$7$8$8$9$0$a$b$c$d$. . . . . . ",
"- . . . . . c$e$f$g$h$h$i$j$- k$i$g$g$l$%.%.. . . . . . . . . "};
