/* XPM */
static char * perso_left_xpm[] = {
"31 31 375 2",
"  	c #C6A8D1",
". 	c #C3ACD3",
"+ 	c #E9B9EE",
"@ 	c #FFC1FF",
"# 	c #C6ADD5",
"$ 	c #FDC0FD",
"% 	c #D2B1DE",
"& 	c #C7ADD6",
"* 	c #DFB5E7",
"= 	c #F3BCF6",
"- 	c #BFA8CF",
"; 	c #E5B7EB",
"> 	c #CDAFDA",
", 	c #D3B1DF",
"' 	c #DEB5E6",
") 	c #CDA3C9",
"! 	c #CFA1C7",
"~ 	c #CEA5CC",
"{ 	c #C098BF",
"] 	c #B392B4",
"^ 	c #B396B7",
"/ 	c #D0B0DC",
"( 	c #E1B6E9",
"_ 	c #C4ACD4",
": 	c #DDB5E5",
"< 	c #C9AED7",
"[ 	c #F8BEFA",
"} 	c #D3B1DE",
"| 	c #C6A9D0",
"1 	c #D79FC3",
"2 	c #D7A8CC",
"3 	c #C0768F",
"4 	c #BE6A80",
"5 	c #D784A4",
"6 	c #C18DB4",
"7 	c #C28DB4",
"8 	c #861921",
"9 	c #920000",
"0 	c #C00000",
"a 	c #9E2525",
"b 	c #945140",
"c 	c #B386A7",
"d 	c #D49ACA",
"e 	c #D8B3E2",
"f 	c #F1BCF4",
"g 	c #E7B8ED",
"h 	c #C5ABD1",
"i 	c #BF90AF",
"j 	c #D0809B",
"k 	c #D7C4C9",
"l 	c #D291AD",
"m 	c #9C535E",
"n 	c #B26275",
"o 	c #D47894",
"p 	c #D490AD",
"q 	c #D88CA9",
"r 	c #E77491",
"s 	c #DB8982",
"t 	c #D89778",
"u 	c #A3583F",
"v 	c #DB566F",
"w 	c #DF8FB2",
"x 	c #CAA6CC",
"y 	c #C5ADD4",
"z 	c #C8ADD6",
"A 	c #DAB4E3",
"B 	c #C3ABD2",
"C 	c #D994B8",
"D 	c #E787A7",
"E 	c #E7A5C6",
"F 	c #E59BBC",
"G 	c #E683A4",
"H 	c #E79CBD",
"I 	c #E7A0C0",
"J 	c #E784A5",
"K 	c #E79A91",
"L 	c #E7A584",
"M 	c #A36142",
"N 	c #AD3738",
"O 	c #E7647D",
"P 	c #CCA4C9",
"Q 	c #C4ABD2",
"R 	c #D69CC0",
"S 	c #E798B9",
"T 	c #DA99B7",
"U 	c #E7A3C2",
"V 	c #E7CEDA",
"W 	c #E7B4CD",
"X 	c #E795B6",
"Y 	c #E79C91",
"Z 	c #E29B87",
"` 	c #BD5337",
" .	c #BB0000",
"..	c #D57492",
"+.	c #C9A7CD",
"@.	c #DB85A3",
"#.	c #C57891",
"$.	c #B9667B",
"%.	c #E794B4",
"&.	c #E79CBC",
"*.	c #C6B7B8",
"=.	c #B4809A",
"-.	c #CB91AE",
";.	c #E796B7",
">.	c #E491B0",
",.	c #D06066",
"'.	c #AD8BA9",
").	c #C0A3C8",
"!.	c #AF768E",
"~.	c #C2809D",
"{.	c #E395B5",
"].	c #E790B1",
"^.	c #E788A9",
"/.	c #E791B1",
"(.	c #E788A8",
"_.	c #CDC0C1",
":.	c #B3B3B3",
"<.	c #7C6972",
"[.	c #CD83A0",
"}.	c #A6768C",
"|.	c #E7CFD7",
"1.	c #E78E8E",
"2.	c #BB4B5F",
"3.	c #864345",
"4.	c #C2ABD1",
"5.	c #BFA7CC",
"6.	c #DAA5C9",
"7.	c #E78DAE",
"8.	c #954E56",
"9.	c #B16174",
"0.	c #B66D85",
"a.	c #8B787E",
"b.	c #E4E4E4",
"c.	c #DCDCDC",
"d.	c #848484",
"e.	c #50353D",
"f.	c #CF9378",
"g.	c #E7E2E1",
"h.	c #E79C8F",
"i.	c #E280A0",
"j.	c #E582A3",
"k.	c #D493B5",
"l.	c #9E5E6D",
"m.	c #89535D",
"n.	c #512C31",
"o.	c #693B41",
"p.	c #383838",
"q.	c #E3E3E3",
"r.	c #DDDDDD",
"s.	c #848282",
"t.	c #553E44",
"u.	c #65535B",
"v.	c #E598B9",
"w.	c #E382A2",
"x.	c #E180A0",
"y.	c #864344",
"z.	c #E5B8EC",
"A.	c #AD8DAB",
"B.	c #BDA4C9",
"C.	c #AE91B0",
"D.	c #876871",
"E.	c #A37785",
"F.	c #868686",
"G.	c #DCDADA",
"H.	c #A37D83",
"I.	c #E7A1C2",
"J.	c #E7A3C3",
"K.	c #CF748F",
"L.	c #C16C83",
"M.	c #A35865",
"N.	c #844242",
"O.	c #5B3131",
"P.	c #8D7368",
"Q.	c #C89279",
"R.	c #C5BBB7",
"S.	c #C6C6C6",
"T.	c #E1BCAE",
"U.	c #C47E73",
"V.	c #DC7E97",
"W.	c #E491B1",
"X.	c #AB5D6D",
"Y.	c #AA89A6",
"Z.	c #AD97B9",
"`.	c #B2775B",
" +	c #DEA58A",
".+	c #DBA58C",
"++	c #C08061",
"@+	c #E2A080",
"#+	c #E38C97",
"$+	c #E1809F",
"%+	c #A35866",
"&+	c #BC687E",
"*+	c #8C474C",
"=+	c #C2ABD2",
"-+	c #BD9DBA",
";+	c #CA896B",
">+	c #A86746",
",+	c #CF8F6F",
"'+	c #915042",
")+	c #DC7D9C",
"!+	c #E0809F",
"~+	c #B69BBD",
"{+	c #D5B2DF",
"]+	c #EAB9EF",
"^+	c #CEB0DB",
"/+	c #CFB0DB",
"(+	c #D89ECE",
"_+	c #9D6157",
":+	c #9E6B56",
"<+	c #A57664",
"[+	c #A2725F",
"}+	c #88544A",
"|+	c #CC738D",
"1+	c #86464A",
"2+	c #996275",
"3+	c #8E5864",
"4+	c #BA9FC3",
"5+	c #D6B2E0",
"6+	c #EEBBF2",
"7+	c #E2B6E9",
"8+	c #BF677E",
"9+	c #BA6262",
"0+	c #C77D7D",
"a+	c #B47A76",
"b+	c #A17A69",
"c+	c #8A4D49",
"d+	c #A885A1",
"e+	c #BCA1C6",
"f+	c #B69ABC",
"g+	c #FBBFFC",
"h+	c #CCAFD9",
"i+	c #E4B7EA",
"j+	c #DBB4E4",
"k+	c #B45E75",
"l+	c #E50000",
"m+	c #DE0000",
"n+	c #A94029",
"o+	c #D29171",
"p+	c #BB97AF",
"q+	c #CEAFDB",
"r+	c #D4B2DF",
"s+	c #C0A7CD",
"t+	c #93222C",
"u+	c #D90000",
"v+	c #855554",
"w+	c #8E8582",
"x+	c #8C898C",
"y+	c #CAAED8",
"z+	c #BDA8CC",
"A+	c #C4A6CA",
"B+	c #A5576C",
"C+	c #E40000",
"D+	c #D25050",
"E+	c #B8B8B8",
"F+	c #E7E7E7",
"G+	c #8E8B8F",
"H+	c #B9A4C8",
"I+	c #BAA5C9",
"J+	c #C1AAD0",
"K+	c #C1ABD1",
"L+	c #9D96A3",
"M+	c #BA8383",
"N+	c #CD5757",
"O+	c #E60B0B",
"P+	c #919191",
"Q+	c #CACACA",
"R+	c #B1B1B1",
"S+	c #D0D0D0",
"T+	c #9F9F9F",
"U+	c #545454",
"V+	c #7C7482",
"W+	c #B6A1C5",
"X+	c #CFB0DC",
"Y+	c #D7B3E1",
"Z+	c #A098A6",
"`+	c #979797",
" @	c #E4B5B5",
".@	c #B9B9B9",
"+@	c #AFAFAF",
"@@	c #737373",
"#@	c #9C9C9C",
"$@	c #8E8E8E",
"%@	c #6A6170",
"&@	c #B39EC2",
"*@	c #D6B2E1",
"=@	c #E8B8EE",
"-@	c #FDC0FE",
";@	c #E8B8ED",
">@	c #BEA9CD",
",@	c #BCA9CA",
"'@	c #CAB9D7",
")@	c #937575",
"!@	c #595959",
"~@	c #727272",
"{@	c #898989",
"]@	c #585858",
"^@	c #968D9D",
"/@	c #C7ADD5",
"(@	c #FBC0FC",
"_@	c #D2B1DD",
":@	c #C5ADD5",
"<@	c #EBBAF0",
"[@	c #B49FC3",
"}@	c #464646",
"|@	c #434343",
"1@	c #837D7D",
"2@	c #840000",
"3@	c #A87F9D",
"4@	c #C4AAD3",
"5@	c #D5B2E0",
"6@	c #E3B7EA",
"7@	c #BCA7CA",
"8@	c #948F97",
"9@	c #9D9D9D",
"0@	c #8D5454",
"a@	c #5E3636",
"b@	c #420000",
"c@	c #DCA7DC",
"d@	c #B8A9C2",
"e@	c #D2D2D2",
"f@	c #CF8E8E",
"g@	c #B70000",
"h@	c #6D0000",
"i@	c #000000",
"j@	c #BFABCE",
"k@	c #C1BDC3",
"l@	c #E1E1E1",
"m@	c #E00000",
"n@	c #660000",
"o@	c #6E0000",
"p@	c #EDBAF1",
"q@	c #C0ACC2",
"r@	c #E4E2E4",
"s@	c #E4E4E5",
"t@	c #CFCFCF",
"u@	c #999999",
"v@	c #D93F3F",
"w@	c #8D0000",
"x@	c #830000",
"y@	c #5C0000",
"z@	c #0C0000",
"A@	c #BCA6CB",
"B@	c #D7B2E1",
"C@	c #EFBBF3",
"D@	c #E5B7EC",
"E@	c #B6A9BE",
"F@	c #D8D8D8",
"G@	c #B49D9D",
"H@	c #E71B14",
"I@	c #E73529",
"J@	c #E70000",
"K@	c #DD0000",
"L@	c #7F0000",
"M@	c #5E3F4F",
"N@	c #C4ACD3",
"O@	c #AFA3B9",
"P@	c #C4C4C4",
"Q@	c #C92D2D",
"R@	c #C83A2D",
"S@	c #C86752",
"T@	c #C80000",
"U@	c #900000",
"V@	c #820000",
"W@	c #690000",
"X@	c #755367",
"Y@	c #B6A0C5",
"Z@	c #9889A3",
"`@	c #656565",
" #	c #561212",
".#	c #540000",
"+#	c #5D2833",
"@#	c #9C8AA9",
"##	c #B29DC1",
"$#	c #BCA5CB",
"%#	c #B5A0C4",
"  . . . + @ + . . . # $ @ % . . . . . . . & $ @ % . . . * @ = ",
"- ; > . , ' , . ) ! ~ $ @ { ] ] ] ^ / ( . _ : ' < . . . * @ = ",
"- [ } . . | 1 2 3 4 5 6 7 8 9 0 a b c d . . . . . . . . e f g ",
"- [ } . . h i j k l m n o p q r s t u v w x . . . . . . y z & ",
"- A < . . . B C D E F G H E I J K L M N O P . . . . . . . . . ",
"- . . . . Q R S T U V E E W E E X Y Z `  .... . . . . . . . . ",
"- . . . . +.@.#.$.%.H E &.*.=.-.E ;.>.,. ...'.. . . . . . . . ",
"- . . . . ).!.~.{.].^./.(._.:.<.[.}.|.1.2...3.. . . . . . . . ",
"- . . . . 4.5.6.7.8.9.0.a.b.c.d.e.f.g.h.i.j.3.. . . . . . . z ",
"- . . . . . . k.l.m.n.o.p.q.r.s.t.u.E v.w.x.y.. . . . . . . % ",
"- z.> . . . . A.B.C.D.E.F.b.G.H.o I.J.K.L.M.N.. . . . . . . } ",
"- [ } . . . . . . O.P.Q.R.S.T.U.V.I.W.X.L.M.Y.. . . . . . . } ",
"- [ } . . . . . . Z.`.L  +.+++@+#+I.$+%+&+*+=+. . . . . . . } ",
"- [ } . . . . . . . -+;+L >+L ,+'+)+!+N.N.~+. . . . . . {+* < ",
"- ]+^+. /+> . . . . # (+_+:+<+[+}+|+1+2+3+4+5+# . . . . * 6+. ",
"- # _ . g 7+. . . . # $ 8+9+0+a+b+c+d+e+f+# g+h+. . . . * 6+. ",
"- . . . + i+. . . . _ j+k+l+m+n+o+p+. . . & $ h+. . . . q+r+. ",
"- . . . * j+. . . . . . s+t+u+v+w+x+. . . # 6+y+. . . . . . . ",
"- . . . y _ . . . . z+A+B+C+D+E+q.F+G+H+I+J+# . . . . . . . . ",
"- . . . . . . . . K+L+M+N+O+P+Q+R+S+T+U+V+W+. . . . . . . . . ",
"- . . . X+Y+X+. . . z+Z+`+ @.@+@@@#@$@%@&@_ *@Y+z . . . . . . ",
"- . . . =@-@;@. . . . >@,@'@)@!@~@{@]@^@. /@(@-@_@. . . . . . ",
"- . . . + @ + . . . :@]+<@> [@}@}@|@1@2@3@4@$ @ % . . . 5@<@6@",
"- . . . + @ + . . . # $ @ % 7@8@9@0@a@2@2@b@c@@ % . . . * @ = ",
"- . . . + @ + . . . # $ @ % . d@e@f@g@h@2@b@i@@ % . . . * @ = ",
"  g > . _@j+_@. . . # $ @ % j@k@l@T+m@n@o@b@i@j+< . . . * @ = ",
"  [ } . . . . . . . :@p@q@r@s@t@u@v@w@x@y@z@A@. . . . . B@C@D@",
"  [ } . . . . . . . . E@F@G@H@I@J@K@2@2@L@M@=+. . . . . N@y _ ",
"  e < . . . . . . . . O@P@Q@R@S@T@U@V@W@X@Y@. . . . . . . . . ",
"- . . . . . . . . . . Z@`@ #.#.#.#.#+#@###. . . . . . . . . . ",
"- . . . . . . . . . . $#[@[@[@[@[@[@%#. . . . . . . . . . . . "};
