/* XPM */
static char * perso_left_left_xpm[] = {
"31 31 517 2",
"  	c #C6A8D1",
". 	c #C3ACD3",
"+ 	c #E9B9EE",
"@ 	c #FFC1FF",
"# 	c #C6ADD5",
"$ 	c #FDC0FD",
"% 	c #D2B1DE",
"& 	c #C7ADD6",
"* 	c #DFB5E7",
"= 	c #F3BCF6",
"- 	c #BFA8CF",
"; 	c #E5B7EB",
"> 	c #CDAFDA",
", 	c #D3B1DF",
"' 	c #DEB5E6",
") 	c #D4AFDC",
"! 	c #C6A9D0",
"~ 	c #C5AAD1",
"{ 	c #F9BBF7",
"] 	c #CDABD7",
"^ 	c #BFA6CC",
"/ 	c #C0A7CD",
"( 	c #C2AAD1",
"_ 	c #D0B0DC",
": 	c #E1B6E9",
"< 	c #C4ACD4",
"[ 	c #DDB5E5",
"} 	c #C9AED7",
"| 	c #F8BEFA",
"1 	c #D3B1DE",
"2 	c #C5ACD2",
"3 	c #C8ABD1",
"4 	c #CD98BB",
"5 	c #D091B3",
"6 	c #D199BC",
"7 	c #C1A6CB",
"8 	c #C2A8CE",
"9 	c #E3AEE3",
"0 	c #C285AD",
"a 	c #B37592",
"b 	c #A67A91",
"c 	c #AD879E",
"d 	c #B295B5",
"e 	c #C0A3C8",
"f 	c #D8AFDD",
"g 	c #F3BBF5",
"h 	c #D8B3E2",
"i 	c #F1BCF4",
"j 	c #E7B8ED",
"k 	c #C7A4C7",
"l 	c #D69FC1",
"m 	c #C791A3",
"n 	c #C07A8E",
"o 	c #C6768F",
"p 	c #B488A5",
"q 	c #BC8DAC",
"r 	c #B2728D",
"s 	c #A85466",
"t 	c #CA414F",
"u 	c #9F5D50",
"v 	c #BB806E",
"w 	c #9C6771",
"x 	c #A96F88",
"y 	c #D092B8",
"z 	c #F0B4EC",
"A 	c #C5ADD4",
"B 	c #C8ADD6",
"C 	c #DAB4E3",
"D 	c #BA9ABC",
"E 	c #D38AAA",
"F 	c #DDAFBD",
"G 	c #D79FB7",
"H 	c #BC768C",
"I 	c #C4748D",
"J 	c #DD83A2",
"K 	c #DB84A2",
"L 	c #DD94B3",
"M 	c #E07992",
"N 	c #C0826B",
"O 	c #DD9C7D",
"P 	c #BA7B66",
"Q 	c #A04C49",
"R 	c #BA586E",
"S 	c #D390B5",
"T 	c #C8A7CD",
"U 	c #C9A4C9",
"V 	c #DD97B9",
"W 	c #E697B7",
"X 	c #E6A6C4",
"Y 	c #E3B1C7",
"Z 	c #E48FAE",
"` 	c #E78DAE",
" .	c #E7A0C0",
"..	c #E7A3C4",
"+.	c #E693AF",
"@.	c #E49791",
"#.	c #E79E8C",
"$.	c #D7967A",
"%.	c #B46152",
"&.	c #B62024",
"*.	c #D2647E",
"=.	c #D895B8",
"-.	c #C8A8CE",
";.	c #D1A0C4",
">.	c #DF94B4",
",.	c #CF89A4",
"'.	c #E19CB8",
").	c #E7BACE",
"!.	c #E7A2C1",
"~.	c #E79DBE",
"{.	c #E3B7CB",
"].	c #E0A4C1",
"^.	c #E7A2C3",
"/.	c #E792B1",
"(.	c #E78F9F",
"_.	c #DA8C8B",
":.	c #AA5E60",
"<.	c #B41C1E",
"[.	c #CD4659",
"}.	c #D67A97",
"|.	c #CD9EC2",
"1.	c #C2ABD2",
"2.	c #C09CBE",
"3.	c #C0809A",
"4.	c #C77891",
"5.	c #E18EAE",
"6.	c #E796B7",
"7.	c #E79FC0",
"8.	c #E798B9",
"9.	c #CDABB4",
"0.	c #AA8496",
"a.	c #D799B8",
"b.	c #E39ABA",
"c.	c #DF8AA9",
"d.	c #E288A6",
"e.	c #C67C90",
"f.	c #C44B57",
"g.	c #B61015",
"h.	c #C46681",
"i.	c #BF86A4",
"j.	c #BCA3C7",
"k.	c #BDA3C8",
"l.	c #C791B0",
"m.	c #E091B1",
"n.	c #D785A2",
"o.	c #D87F9C",
"p.	c #DB88A7",
"q.	c #D0839E",
"r.	c #D1B9BE",
"s.	c #A09D9E",
"t.	c #92677B",
"u.	c #C6819C",
"v.	c #CF8AA6",
"w.	c #E79BB8",
"x.	c #E1A8BE",
"y.	c #D67E91",
"z.	c #BE4152",
"A.	c #CB6C87",
"B.	c #B47188",
"C.	c #B89DBF",
"D.	c #C691B1",
"E.	c #C77A94",
"F.	c #AA6476",
"G.	c #B87992",
"H.	c #AB647A",
"I.	c #8F7079",
"J.	c #D6D1D3",
"K.	c #D2D2D2",
"L.	c #413438",
"M.	c #8C5F71",
"N.	c #C88BA6",
"O.	c #E799B8",
"P.	c #E79DBA",
"Q.	c #DB88A3",
"R.	c #D26F8A",
"S.	c #DC7C9A",
"T.	c #E5B8EC",
"U.	c #BB9ABD",
"V.	c #B58DAC",
"W.	c #AE8CAA",
"X.	c #B499B6",
"Y.	c #856E75",
"Z.	c #535252",
"`.	c #CECECE",
" +	c #DFDEDE",
".+	c #75434A",
"++	c #B97890",
"@+	c #D495B2",
"#+	c #E793B3",
"$+	c #E787A8",
"%+	c #E484A4",
"&+	c #E481A2",
"*+	c #E281A1",
"=+	c #C1AAD0",
"-+	c #C0A8CE",
";+	c #B9A2C6",
">+	c #A38894",
",+	c #AE8C7F",
"'+	c #5E5C5C",
")+	c #CACACA",
"!+	c #B8B1B3",
"~+	c #CF7692",
"{+	c #E28DAD",
"]+	c #E4A0C0",
"^+	c #E792B2",
"/+	c #D97B98",
"(+	c #D07590",
"_+	c #E381A1",
":+	c #B7A2C7",
"<+	c #936F6F",
"[+	c #DB9E80",
"}+	c #BA9D91",
"|+	c #ADABAB",
"1+	c #D9A58D",
"2+	c #E6A998",
"3+	c #E7C7D1",
"4+	c #E794B5",
"5+	c #D27692",
"6+	c #C46D85",
"7+	c #E180A0",
"8+	c #BF6F87",
"9+	c #B390B0",
"0+	c #C7A6BF",
"a+	c #DFA38F",
"b+	c #E1A283",
"c+	c #E2A587",
"d+	c #DD9C7C",
"e+	c #BE7E62",
"f+	c #E09D94",
"g+	c #E28DAC",
"h+	c #DA89A7",
"i+	c #AB5D6D",
"j+	c #B56377",
"k+	c #B96B82",
"l+	c #B395B6",
"m+	c #D5B2DF",
"n+	c #EAB9EF",
"o+	c #CEB0DB",
"p+	c #CFB0DB",
"q+	c #BC9BB7",
"r+	c #C98E7F",
"s+	c #D69575",
"t+	c #B37253",
"u+	c #CF8F6F",
"v+	c #A5604F",
"w+	c #BA687C",
"x+	c #CF7690",
"y+	c #9E5460",
"z+	c #B36275",
"A+	c #D67A96",
"B+	c #B6768E",
"C+	c #B89CBF",
"D+	c #D6B2E0",
"E+	c #EEBBF2",
"F+	c #E2B6E9",
"G+	c #BC9AB7",
"H+	c #D094B3",
"I+	c #9F766F",
"J+	c #A68378",
"K+	c #9F7B74",
"L+	c #98646F",
"M+	c #945663",
"N+	c #7F4343",
"O+	c #A25866",
"P+	c #A35A69",
"Q+	c #AE8EAD",
"R+	c #FBBFFC",
"S+	c #CCAFD9",
"T+	c #E4B7EA",
"U+	c #DAB2E2",
"V+	c #C46974",
"W+	c #CE6C6C",
"X+	c #BC6766",
"Y+	c #885950",
"Z+	c #835249",
"`+	c #8F6373",
" @	c #A886A1",
".@	c #AD8EAC",
"+@	c #BAA0C4",
"@@	c #CEAFDB",
"#@	c #D4B2DF",
"$@	c #DBB4E4",
"%@	c #C4AFD4",
"&@	c #C8B5D6",
"*@	c #C3AFD1",
"=@	c #C1AACF",
"-@	c #B5576C",
";@	c #DE0603",
">@	c #D63A29",
",@	c #B67457",
"'@	c #BA8074",
")@	c #B08DA6",
"!@	c #CAAED8",
"~@	c #C4AED4",
"{@	c #D1C4DA",
"]@	c #E1DEE4",
"^@	c #CDCACF",
"/@	c #BCAEC6",
"(@	c #C296AB",
"_@	c #B63F12",
":@	c #D2523B",
"<@	c #C28262",
"[@	c #B6755D",
"}@	c #A47285",
"|@	c #BCA0C5",
"1@	c #C4B1D2",
"2@	c #D2CFD4",
"3@	c #DDDDDD",
"4@	c #E6E6E6",
"5@	c #C9C7C6",
"6@	c #D49674",
"7@	c #E09D75",
"8@	c #C3794E",
"9@	c #BE7D5F",
"0@	c #93402A",
"a@	c #945467",
"b@	c #AD8FAD",
"c@	c #B19CBD",
"d@	c #BBA5CA",
"e@	c #CFB0DC",
"f@	c #D7B3E1",
"g@	c #B3A4BE",
"h@	c #AEACAF",
"i@	c #BFBFBF",
"j@	c #E2E2E2",
"k@	c #ABA7A5",
"l@	c #E6BDA8",
"m@	c #D57C2C",
"n@	c #9E614B",
"o@	c #8E4A41",
"p@	c #824A4A",
"q@	c #7E6265",
"r@	c #847888",
"s@	c #AF9BBD",
"t@	c #D6B2E1",
"u@	c #E8B8EE",
"v@	c #FDC0FE",
"w@	c #E7B7EC",
"x@	c #A89FAE",
"y@	c #BCBCBC",
"z@	c #B1B1B1",
"A@	c #E1E1E1",
"B@	c #897B74",
"C@	c #E48310",
"D@	c #CA7C47",
"E@	c #9C7975",
"F@	c #957174",
"G@	c #837072",
"H@	c #807983",
"I@	c #A392AF",
"J@	c #BDA7CD",
"K@	c #C7ADD5",
"L@	c #FBC0FC",
"M@	c #D2B1DD",
"N@	c #E8B9ED",
"O@	c #B5A4C1",
"P@	c #A59CAB",
"Q@	c #959098",
"R@	c #BDBDBD",
"S@	c #A6A6A6",
"T@	c #756862",
"U@	c #D38753",
"V@	c #A56653",
"W@	c #9C7C83",
"X@	c #AD7F8E",
"Y@	c #A77F87",
"Z@	c #9C9098",
"`@	c #917F91",
" #	c #A689A7",
".#	c #BA99BD",
"+#	c #EDB0E8",
"@#	c #FCBEFB",
"##	c #D5B2E0",
"$#	c #EBBAF0",
"%#	c #E3B7EA",
"&#	c #C1AAD1",
"*#	c #B39EC1",
"=#	c #A492B0",
"-#	c #9F94A7",
";#	c #B798B7",
">#	c #8D858A",
",#	c #C9B5AD",
"'#	c #A89092",
")#	c #A48498",
"!#	c #B88DA9",
"~#	c #C5A3AE",
"{#	c #B5ADAE",
"]#	c #9A6464",
"^#	c #B24656",
"/#	c #A3566C",
"(#	c #B5759C",
"_#	c #CD98CA",
":#	c #C3A4CE",
"<#	c #D5B3D9",
"[#	c #B6A9BF",
"}#	c #B9AAC4",
"|#	c #BEA8CD",
"1#	c #BBA4C9",
"2#	c #EDB5ED",
"3#	c #C7B9C2",
"4#	c #D9A3A3",
"5#	c #ADA6A9",
"6#	c #AB9BB1",
"7#	c #BFA7CA",
"8#	c #BEACC0",
"9#	c #A9A6A9",
"0#	c #BB9A9A",
"a#	c #C88888",
"b#	c #9A4343",
"c#	c #7D2737",
"d#	c #6C4760",
"e#	c #A98EB3",
"f#	c #CAAFD0",
"g#	c #CDC8CF",
"h#	c #D3D2D4",
"i#	c #D5D2D7",
"j#	c #CAC2D0",
"k#	c #CCC3D1",
"l#	c #F0DAF0",
"m#	c #E4D8DB",
"n#	c #DC4949",
"o#	c #90676C",
"p#	c #A789A2",
"q#	c #BEAACD",
"r#	c #A695AE",
"s#	c #A49C9F",
"t#	c #C9BEBE",
"u#	c #A37878",
"v#	c #720000",
"w#	c #320000",
"x#	c #9A85A5",
"y#	c #C0AAD0",
"z#	c #B2A7BA",
"A#	c #D4D3D4",
"B#	c #E39D9D",
"C#	c #E68080",
"D#	c #E17374",
"E#	c #C18B8C",
"F#	c #ADA3A5",
"G#	c #A88283",
"H#	c #A30404",
"I#	c #8A3441",
"J#	c #A77F9C",
"K#	c #C2ACD2",
"L#	c #BDACCA",
"M#	c #B3A6B6",
"N#	c #A5A0A2",
"O#	c #A99F9F",
"P#	c #925F5F",
"Q#	c #9583A2",
"R#	c #D7B2E1",
"S#	c #EFBBF3",
"T#	c #E5B7EC",
"U#	c #A195AA",
"V#	c #A19EA0",
"W#	c #A55252",
"X#	c #D30000",
"Y#	c #DB0000",
"Z#	c #D12D2D",
"`#	c #C93C3C",
" $	c #8F1212",
".$	c #85131A",
"+$	c #985E74",
"@$	c #BBA3C5",
"#$	c #B7ABC0",
"$$	c #C0B6BC",
"%$	c #D7C5C7",
"&$	c #DCA19E",
"*$	c #D5534F",
"=$	c #A42020",
"-$	c #C4ACD3",
";$	c #9D8CAA",
">$	c #807389",
",$	c #7C6075",
"'$	c #83222C",
")$	c #840000",
"!$	c #8E0000",
"~$	c #950000",
"{$	c #860000",
"]$	c #86161E",
"^$	c #9C667E",
"/$	c #BFAACE",
"($	c #B6ADBD",
"_$	c #CAA9A9",
":$	c #E37777",
"<$	c #E76F60",
"[$	c #D65342",
"}$	c #9F0000",
"|$	c #660000",
"1$	c #533E4E",
"2$	c #A28FB0",
"3$	c #C0A9D0",
"4$	c #BEA7CD",
"5$	c #B8A2C7",
"6$	c #937E9C",
"7$	c #8A7792",
"8$	c #775063",
"9$	c #640000",
"0$	c #67161E",
"a$	c #8C667E",
"b$	c #BBA6CA",
"c$	c #988CA0",
"d$	c #8D6A6A",
"e$	c #AB3737",
"f$	c #B21C14",
"g$	c #8F1711",
"h$	c #610000",
"i$	c #5A3F4F",
"j$	c #9987A6",
"k$	c #AE99BC",
"l$	c #9D89A9",
"m$	c #9D8AAA",
"n$	c #AB96B8",
"o$	c #AD99BB",
"p$	c #9E89A9",
"q$	c #9C89A9",
"r$	c #A793B5",
"  . . . + @ + . . . # $ @ % . . . . . . . & $ @ % . . . * @ = ",
"- ; > . , ' ) ! ~ . # $ { ] ^ / ( . _ : . < [ ' } . . . * @ = ",
"- | 1 . 2 3 4 5 6 7 8 9 0 a b c d e f g . . . . . . . . h i j ",
"- | 1 . k l m n o p q r s t u v w x y z . . . . . . . . A B & ",
"- C } . D E F G H I J K L M N O P Q R S T . . . . . . . . . . ",
"- . . . U V W X Y Z `  ...+.@.#.$.%.&.*.=.-.. . . . . . . . . ",
"- . . . ;.>.,.'.).!.~.{.].^./.(._.:.<.[.}.|.1.. . . . . . . . ",
"- . . . 2.3.4.5.6.7.8.9.0.a.b.c.d.e.f.g.h.i.j.. . . . . . . . ",
"- . . . k.l.m.n.o.p.q.r.s.t.u.v.w.x.y.z.A.B.C.. . . . . . . B ",
"- . . . . D.E.F.G.H.I.J.K.L.M.N.O.P.Q.R.S.B.C.. . . . . . . % ",
"- T.> . . U.V.W.X.Y.Z.`. +.+++@+#+$+%+&+*+B.C.. . . . . . . 1 ",
"- | 1 . . =+-+;+>+,+'+)+!+~+{+]+^+/+(+_+*+B.C.. . . . . . . 1 ",
"- | 1 . . . . :+<+[+}+|+1+2+3+4+^+5+6+7+8+9+=+. . . . . . . 1 ",
"- | 1 . . . . 1.0+a+b+c+d+e+f+g+h+i+j+7+k+l+. . . . . . m+* } ",
"- n+o+. p+> . . . q+r+s+t+u+v+w+x+y+z+A+B+C+D+# . . . . * E+. ",
"- # < . j F+. . . . G+H+I+J+K+L+M+N+O+P+Q+# R+S+. . . . * E+. ",
"- . . . + T+. . . . < U+V+W+X+Y+Z+`+ @.@+@& $ S+. . . . @@#@. ",
"- . . . * $@. . %@&@*@=@-@;@>@,@'@)@/ . . # E+!@. . . . . . . ",
"- . . . A < . ~@{@]@^@/@(@_@:@<@[@}@|@. . . # . . . . . . . . ",
"- . . . . . . 1@2@3@4@5@6@7@8@9@0@a@b@c@d@. . . . . . . . . . ",
"- . . . e@f@p+g@h@i@4@j@k@l@m@n@o@p@q@r@s@< t@f@B . . . . . . ",
"- . . . u@v@w@x@y@z@A@`.B@C@D@E@F@G@H@I@J@K@L@v@M@. . . . . . ",
"- . . . + @ N@O@P@Q@R@S@T@U@V@W@X@Y@Z@`@ #.#+#@#% . . . ##$#%#",
"- . . . + @ + &#*#=#-#;#>#,#'#)#!#~#{#]#^#/#(#_#:#1.. . * @ = ",
"- . . . + @ <#[#}#|#1#2#3#4#5#6#7#8#9#0#a#b#c#d#e#=+. . * @ = ",
"  j > . M@f#g#h#i#j#k#l#m#n#o#p#. q#r#s#t#u#v#w#x#y#. . * @ = ",
"  | 1 . . z#A#B#C#D#E#F#G#H#I#J#K#L#M#N#O#P#v#w#Q#y#. . R#S#T#",
"  | 1 . . U#V#W#X#Y#Z#`# $.$+$@$#$$$%$&$*$=$v#w#Q#y#. . -$A < ",
"  h } . . ;$>$,$'$)$!$~${$]$^$/$($_$:$<$[$}$|$1$2$&#. . . . . ",
"- . . . . 3$4$5$6$7$8$9$9$0$a$b$c$d$e$f$g$h$i$j$J@. . . . . . ",
"- . . . . . . . 1.1.k$l$l$m$n$- o$m$p$p$l$q$r$4$. . . . . . . "};
